<svg width="24" height="24" viewBox="0 0 24 24" fill="none" xmlns="http://www.w3.org/2000/svg">
<path d="M9.5 10C9.5 10.5523 9.05228 11 8.5 11C7.94772 11 7.5 10.5523 7.5 10C7.5 9.44772 7.94772 9 8.5 9C9.05228 9 9.5 9.44772 9.5 10Z" fill="black"/>
<path d="M13.5 10C13.5 10.5523 13.0523 11 12.5 11C11.9477 11 11.5 10.5523 11.5 10C11.5 9.44772 11.9477 9 12.5 9C13.0523 9 13.5 9.44772 13.5 10Z" fill="black"/>
<path fill-rule="evenodd" clip-rule="evenodd" d="M7.00612 12.4356C7.31785 12.1628 7.79167 12.1944 8.06443 12.5061C9.61851 14.2822 12.3815 14.2822 13.9356 12.5061C14.2083 12.1944 14.6822 12.1628 14.9939 12.4356C15.3056 12.7083 15.3372 13.1822 15.0644 13.4939C12.9127 15.953 9.08726 15.953 6.93557 13.4939C6.66281 13.1822 6.69439 12.7083 7.00612 12.4356Z" fill="black"/>
<path fill-rule="evenodd" clip-rule="evenodd" d="M10.5 4.75C7.04822 4.75 4.25 7.54822 4.25 11C4.25 14.4518 7.04822 17.25 10.5 17.25C10.8573 17.25 11.2075 17.22 11.5484 17.1624C11.5165 16.9463 11.5 16.7251 11.5 16.5C11.5 14.0147 13.5147 12 16 12C16.2251 12 16.4463 12.0165 16.6624 12.0484C16.72 11.7075 16.75 11.3573 16.75 11C16.75 7.54822 13.9518 4.75 10.5 4.75ZM18.1011 12.5196C18.1988 12.0282 18.25 11.5201 18.25 11C18.25 6.71979 14.7802 3.25 10.5 3.25C6.21979 3.25 2.75 6.71979 2.75 11C2.75 15.2802 6.21979 18.75 10.5 18.75C11.0201 18.75 11.5282 18.6988 12.0196 18.6011C12.7743 20.0278 14.2736 21 16 21C18.4853 21 20.5 18.9853 20.5 16.5C20.5 14.7736 19.5278 13.2743 18.1011 12.5196ZM16.5 15.9057V14.5C16.5 14.2239 16.2761 14 16 14L15.9841 14.0002C15.7153 14.0086 15.5 14.2292 15.5 14.5V14.7506V16H14.2506H14C13.7292 16 13.5086 16.2153 13.5002 16.4841L13.5 16.5C13.5 16.7761 13.7239 17 14 17H15.4057H15.5V18.5C15.5 18.7761 15.7239 19 16 19C16.2761 19 16.5 18.7761 16.5 18.5V17H18C18.2761 17 18.5 16.7761 18.5 16.5C18.5 16.2239 18.2761 16 18 16H16.5V15.9057Z" fill="black"/>
</svg>
