<svg width="24" height="24" viewBox="0 0 24 24" fill="none" xmlns="http://www.w3.org/2000/svg">
<path d="M5.99994 21C5.82815 20.9995 5.65939 20.9547 5.50994 20.87C5.35547 20.7832 5.22685 20.6569 5.13724 20.504C5.04763 20.3511 5.00024 20.1772 4.99994 20V5.33C4.98642 4.73032 5.20977 4.14946 5.62157 3.71332C6.03338 3.27718 6.60047 3.02089 7.19994 3H16.7999C17.3994 3.02089 17.9665 3.27718 18.3783 3.71332C18.7901 4.14946 19.0135 4.73032 18.9999 5.33V20C18.9989 20.1745 18.9522 20.3457 18.8645 20.4966C18.7767 20.6475 18.6511 20.7727 18.4999 20.86C18.3479 20.9478 18.1755 20.994 17.9999 20.994C17.8244 20.994 17.652 20.9478 17.4999 20.86L11.8299 17.65L6.49994 20.85C6.34949 20.9434 6.17695 20.9951 5.99994 21Z" fill="#FECE23"/>
</svg>
