<svg width="540" height="480" viewBox="0 0 540 480" fill="none" xmlns="http://www.w3.org/2000/svg">
<path d="M407.154 129.506C410.692 125.548 409.308 119.38 409.308 119.38C409.308 119.38 392.61 76.7788 390.758 76.3104C388.907 75.842 384.261 65.096 384.261 65.096C384.261 65.096 339.734 22.7254 338.133 22.7254C336.531 22.7254 320.274 11.0229 318.192 10.792C316.11 10.5611 312.854 9.38691 309.375 7.49366C305.896 5.60041 270.641 7.73114 269.25 9.36712C267.86 11.0031 261.342 12.1773 261.342 12.1773C261.342 12.1773 248.123 12.8766 246.265 15.2184C244.407 17.5602 230.733 18.8004 230.733 18.8004C230.733 18.8004 224.005 21.3071 233.138 27.9632C230.213 28.425 226.792 28.7812 223.32 29.0319C222.45 29.0912 221.567 29.1506 220.684 29.1968H220.163C219.58 27.4316 218.443 25.9022 216.921 24.8364C215.926 24.2955 214.898 23.8174 213.844 23.4049C212.211 22.5356 210.681 21.4844 209.284 20.2715C202.523 14.8894 195.308 10.1043 187.722 5.96983C186.551 5.23581 185.244 4.74455 183.88 4.52515C181.053 4.25468 178.529 6.24029 175.762 6.90656C170.898 8.07417 165.996 5.10566 160.994 5.05948C154.747 5.00011 149.06 9.86847 147.155 15.8715C146.45 18.0946 146.134 20.5683 144.612 22.3296C142.635 24.6319 139.294 24.9683 136.586 26.3338C134.623 27.3585 132.979 28.9019 131.831 30.7964C130.683 32.691 130.076 34.8641 130.075 37.0798V37.1326C130.075 37.4822 130.075 37.8319 130.134 38.1815C130.444 41.0049 131.749 43.6106 132.704 46.2888C133.686 49.0331 134.306 51.8938 134.549 54.7986C134.553 54.8293 134.553 54.8602 134.549 54.8909C134.589 55.3725 134.622 55.854 134.642 56.3422C134.642 56.4412 134.642 56.5467 134.642 56.6522C134.642 57.114 134.642 57.5824 134.642 58.0507C134.642 60.5707 134.556 63.1104 134.562 65.6304V65.7623V66.9035C134.562 66.9959 134.562 67.0882 134.562 67.1806C134.562 67.517 134.562 67.8402 134.602 68.1965V68.5527C134.602 68.8627 134.648 69.1794 134.681 69.4894C134.681 69.6213 134.681 69.7599 134.714 69.8918C134.714 70.1953 134.787 70.4921 134.826 70.789L134.885 71.2112C134.932 71.508 134.984 71.8049 135.037 72.1017L135.116 72.5107C135.182 72.8273 135.261 73.1704 135.34 73.4606C135.373 73.5728 135.393 73.6783 135.419 73.7905C135.538 74.2302 135.67 74.6524 135.815 75.057C136.801 77.8269 138.43 80.323 140.568 82.3401C142.705 84.3573 145.291 85.838 148.111 86.6606C149.173 86.9537 150.272 87.0915 151.373 87.0696C153.35 87.0234 155.241 86.4099 156.414 85.0576C156.704 85.3875 156.987 85.7173 157.29 86.0471C161.588 90.7263 166.95 94.2989 172.921 96.4622C178.892 98.6255 185.296 99.3157 191.59 98.4741C197.884 97.6326 203.882 95.2842 209.076 91.628C214.271 87.9718 218.508 83.1157 221.428 77.4714C222.12 77.3197 222.806 77.1812 223.498 77.0492C224.697 76.8249 225.903 76.6138 227.115 76.3896L228.282 76.2049L228.743 76.1257C234.674 75.189 240.433 74.5623 244.558 74.1467L228.255 76.1719C228.255 76.1719 224.302 95.1769 223.162 97.2813C222.021 99.3856 227.115 102.895 227.115 102.895C227.115 102.895 231.524 108.278 231.524 109.921C231.524 111.563 236.624 116.24 238.015 118.813C238.192 119.139 238.413 119.439 238.674 119.703C237.644 120.102 236.694 120.681 235.866 121.412C232.644 124.466 233.718 129.823 232.242 134.018C231.32 136.657 229.389 138.794 227.531 140.872C226.863 141.551 226.303 142.327 225.87 143.175C225.628 143.736 225.479 144.333 225.428 144.942C225.395 145.28 225.382 145.619 225.389 145.958V146.077C225.389 146.341 225.389 146.598 225.442 146.855C225.442 146.968 225.442 147.08 225.442 147.192C225.764 149.949 226.7 152.614 226.984 155.372C227.267 158.129 226.924 160.906 227.491 163.591C227.687 164.527 227.993 165.437 228.4 166.303L218.964 176.857C218.964 176.857 218.905 177.378 218.885 178.236C211.017 184.773 198.852 197.109 203.195 207.987C203.669 209.179 204.108 210.32 204.513 211.411C201.317 213.449 200.262 215.87 205.053 218.285C205.811 218.667 206.542 218.997 207.26 219.294C209.718 226.517 210.681 228.529 214.799 223.206C215.241 222.625 215.755 221.886 216.315 221.088C222.114 220.969 225.468 218.285 225.468 218.285C225.468 218.285 241.698 217.348 245.896 219.927C247.998 221.246 252.941 221.51 257.316 221.477C257.257 226.196 257.477 230.915 257.975 235.607C257.975 235.607 257.277 255.503 259.135 259.718C260.993 263.934 262.021 271.19 262.021 271.19C262.021 271.19 258.904 278.209 260.756 281.956C262.608 285.703 259.135 291.086 259.135 291.086V304.893L260.453 304.8C260.354 305.73 260.229 306.707 260.064 307.637C259.682 309.794 259.108 311.727 258.225 312.353C255.906 314.022 255.675 322.908 255.675 322.908C255.675 322.908 251.965 333.681 252.657 335.554C253.349 337.427 248.255 341.168 249.415 343.978C250.575 346.788 252.947 364.573 255.01 369.705C257.072 374.837 250.805 373.452 250.805 373.452L252.657 386.791C252.657 386.791 254.515 400.367 253.125 401.303C251.735 402.24 243.735 409.028 249.237 413.006C249.665 413.316 250.1 413.599 250.555 413.87C250.58 414.486 250.564 415.103 250.509 415.717C250.403 416.766 250.14 417.604 249.553 417.696C247.919 417.934 244.67 419.569 243.985 418.87C243.3 418.171 239.372 420.638 235.418 421.443L234.871 421.529L229.738 420.209C222.311 417.377 214.158 417.076 206.542 419.352C206.542 419.352 202.819 419.932 201.013 422.716C200.097 424.141 199.695 426.146 200.513 428.943C202.99 437.216 219.88 440.065 219.88 440.065C219.88 440.065 225.731 441.273 232.763 442.869C232.532 442.869 232.295 442.869 232.058 442.869C230.117 442.856 228.242 443.571 226.802 444.874C225.363 446.177 224.464 447.972 224.282 449.907C224.1 451.841 224.65 453.773 225.821 455.321C226.993 456.87 228.702 457.923 230.612 458.271C232.521 458.62 234.491 458.24 236.134 457.205C237.776 456.171 238.972 454.558 239.485 452.684C239.997 450.81 239.79 448.812 238.903 447.084C238.016 445.357 236.514 444.024 234.694 443.351C242.601 445.171 251.359 447.388 254.917 448.951C257.567 449.95 260.282 450.765 263.043 451.392C263.179 453.029 263.833 454.58 264.911 455.819C265.988 457.058 267.433 457.921 269.034 458.281C270.635 458.642 272.309 458.482 273.813 457.824C275.317 457.166 276.572 456.045 277.395 454.624C288.156 456.874 298.522 458.78 298.522 458.78L315.833 459.064H315.952C313.911 459.078 311.96 459.901 310.525 461.352C309.089 462.804 308.287 464.766 308.294 466.808C308.301 468.851 309.117 470.807 310.562 472.249C312.007 473.69 313.964 474.5 316.004 474.5C318.045 474.5 320.002 473.69 321.447 472.249C322.892 470.807 323.707 468.851 323.714 466.808C323.721 464.766 322.919 462.804 321.484 461.352C320.049 459.901 318.097 459.078 316.057 459.064L342.264 459.493C341.95 460.56 341.869 461.683 342.027 462.785C342.185 463.887 342.579 464.942 343.181 465.877C343.783 466.813 344.579 467.608 345.516 468.208C346.453 468.808 347.508 469.198 348.609 469.353C349.71 469.508 350.831 469.423 351.897 469.105C352.962 468.787 353.947 468.242 354.783 467.509C355.619 466.775 356.288 465.87 356.743 464.854C357.198 463.838 357.429 462.737 357.421 461.623C357.419 460.987 357.34 460.354 357.184 459.737L380.3 460.113L384.913 455.033C385.171 454.54 385.326 453.999 385.368 453.444C385.506 451.775 384.643 449.241 378.739 448.166C378.304 448.087 366.258 448.278 355.615 448.456V444.274C355.615 444.274 355.319 441.972 355.134 439.261C355.081 438.462 355.035 437.631 355.016 436.813C355.618 437.226 356.286 437.532 356.992 437.717C361.401 438.423 367.431 425.546 367.431 425.546C367.431 425.546 367.431 418.29 368.821 412.438C370.211 406.587 372.775 386.922 372.775 386.922L378.35 363.286C378.35 363.286 380.656 315.065 379.496 313.191C378.337 311.318 380.893 308.039 380.893 308.039C380.893 308.039 382.745 297.742 379.964 294.232C377.183 290.723 381.585 287.207 381.585 287.207C381.585 287.207 382.745 275.036 379.496 270.359C376.248 265.682 381.019 262.403 381.019 262.403L382.178 243.444C387.048 238.53 391.45 209.273 391.687 202.954C391.748 199.396 392.538 195.889 394.007 192.65C394.007 192.65 397.249 187.735 397.717 184.457C398.185 181.178 401.671 174.397 401.671 174.397L407.7 151.922C410.132 142.858 409.513 136.156 407.898 131.38C407.661 130.707 407.41 130.093 407.154 129.506ZM298.219 130.826C301.929 133.167 300.769 133.867 301.929 135.272C303.088 136.677 302.159 136.439 301.23 138.781C300.301 141.123 300.999 140.424 301.461 142.996C301.922 145.569 301.698 145.569 301.698 145.569L302.858 145.734L301.243 156.599C298.607 158.321 297.401 161.619 296.855 165.023C295.299 162.991 293.731 160.88 292.327 158.914C292.808 157.839 292.716 156.559 292.729 155.352C292.782 151.394 294.258 147.614 294.937 143.715C295.63 139.749 295.502 135.683 294.561 131.769C294.223 130.296 293.703 128.871 293.013 127.527C294.515 128.53 296.42 129.717 298.219 130.852V130.826ZM302.39 360.212C302.39 360.212 305.322 358.233 308.169 356.432C309.125 363.379 310.027 370.602 310.667 377.133C309.645 374.864 308.933 373.32 308.933 373.32C307.887 372.061 307.261 370.507 307.141 368.874C307.029 366.328 302.39 360.239 302.39 360.239V360.212ZM285 119.618C285.659 119.71 286.594 120.548 287.477 121.551C286.66 120.891 285.836 120.231 284.993 119.611L285 119.618ZM242.555 206.219C239.88 207.064 230.812 206.938 225.422 206.622C227.438 203.171 229.442 199.662 231.221 196.515C232.27 196.787 233.338 196.979 234.417 197.089L252.071 181.567C258.711 183.899 265.954 183.852 272.565 181.435L273.046 182.187C273.25 182.517 273.468 182.847 273.705 183.216L273.263 182.497C273.263 182.497 266.449 186.561 267.141 188.434C267.833 190.308 266.219 194.985 263.669 199.998C263.01 201.252 262.436 202.492 261.883 203.739C256.11 204.28 245.231 205.375 242.555 206.219ZM276.051 422.485L275.952 420.632C277.072 420.387 277.81 420.163 277.81 420.163C277.579 417.412 277.191 414.677 276.65 411.97C275.952 409.16 276.314 410.097 279.029 408.012C281.744 405.928 279.029 382.285 279.029 382.285C279.029 382.285 280.347 380.642 282.436 384.858C284.525 389.073 286.621 391.646 287.319 391.877C288.018 392.107 284.532 396.798 287.319 401.244C289.05 404.12 290.228 407.295 290.792 410.605C290.792 410.605 288.94 418.039 291.721 421.344C292.097 421.729 292.545 422.036 293.039 422.248C293.039 422.861 293.039 423.514 293.039 424.128C293.039 425.361 293.039 426.417 292.98 426.641C292.953 426.799 292.885 426.948 292.784 427.072C292.683 427.196 292.551 427.292 292.402 427.351C292.253 427.409 292.091 427.428 291.933 427.405C291.774 427.383 291.624 427.319 291.497 427.222C290.779 426.753 286.225 427.802 286.535 430.738C285.458 432.011 284.238 433.156 282.897 434.148L276.578 432.512L276.051 422.485Z" fill="url(#paint0_linear_40_248)"/>
<path d="M219.162 179.662C219.162 179.662 217.019 197.658 234.016 199.5L236.575 187.044L231.22 179.662L223.55 177L219.162 179.662Z" fill="#FECB23"/>
<path opacity="0.1" d="M223.718 177L219.165 179.656C219.165 179.656 216.942 197.657 234.575 199.5" fill="black"/>
<path d="M251.075 77.6124C251.075 77.6124 239.24 78.3391 227.372 80.3079C226.157 80.5149 224.949 80.7352 223.748 80.9686C223.048 81.1007 222.362 81.2395 221.676 81.3915C215.458 82.6732 209.794 84.3381 206.494 86.4655C202.534 89.0091 201.213 82.1578 201.088 72.6375C201.035 69.2878 201.147 65.6144 201.326 61.9014C201.557 57.607 201.893 53.2598 202.25 49.3485C203.035 40.6804 203.939 33.9415 203.939 33.9415C203.939 33.9415 208.085 33.9415 213.623 33.7499L215.405 33.6838C217.141 33.6178 218.982 33.5253 220.837 33.413C221.715 33.3667 222.6 33.3139 223.477 33.2478C226.989 32.9967 230.454 32.64 233.378 32.1775C236.494 31.6754 239.022 31.0411 240.395 30.1955C246.666 26.456 251.075 77.6124 251.075 77.6124Z" fill="#F8BDC5"/>
<path d="M303.695 144.184L301.428 159.514C301.428 159.514 296.486 165.783 297.133 169.267C297.781 172.752 303.481 326.736 303.481 326.736C303.481 326.736 314.655 391.764 310.775 400.125C306.895 408.486 310.548 428 310.548 428L333.802 424.285L341.575 140L303.695 144.184Z" fill="#474463"/>
<path opacity="0.1" d="M303.695 144.184L301.428 159.514C301.428 159.514 296.486 165.783 297.133 169.267C297.781 172.752 303.481 326.736 303.481 326.736C303.481 326.736 314.655 391.764 310.775 400.125C306.895 408.486 310.548 428 310.548 428L333.802 424.285L341.575 140L303.695 144.184Z" fill="black"/>
<path d="M356.001 432.314C355.248 433.556 355.307 437.211 355.519 440.32C355.704 442.996 356.001 445.27 356.001 445.27V461C356.001 461 330.649 452.211 316.691 442.956C310.934 439.137 309.295 435.587 309.612 432.748C310.075 428.705 314.503 426.069 316.691 426.069C318.779 426.069 325.375 422.447 330.781 419.246C335.031 416.742 338.56 414.5 338.56 414.5C338.56 414.5 357.396 430 356.001 432.314Z" fill="#575988"/>
<path opacity="0.1" d="M356.001 432.093C355.241 433.32 355.301 436.929 355.514 440C349.831 437.403 332.234 420.771 330.575 419.187C334.859 416.714 338.417 414.5 338.417 414.5C338.417 414.5 357.406 429.808 356.001 432.093Z" fill="black"/>
<path d="M407.464 154.738L401.453 177.085C401.453 177.085 397.985 183.831 397.512 187.092C397.039 190.352 393.814 195.24 393.814 195.24C392.354 198.457 391.567 201.941 391.501 205.478C391.271 211.767 386.903 240.861 382.022 245.748L380.866 264.604C380.866 264.604 376.268 267.858 379.48 272.54C382.692 277.223 381.562 289.299 381.562 289.299C381.562 289.299 377.168 292.791 379.946 296.283C382.725 299.775 380.866 310.02 380.866 310.02C380.866 310.02 378.324 313.274 379.48 315.139C380.636 317.004 378.337 364.953 378.337 364.953L372.779 388.458C372.779 388.458 370.231 408.014 368.838 413.834C367.445 419.654 367.452 426.863 367.452 426.863C367.452 426.863 361.441 439.667 357.047 438.973C352.652 438.278 331.388 417.32 331.388 417.32L334.39 346.554C334.39 346.554 336.932 316.527 335.316 310.707C333.7 304.887 332.544 275.794 332.544 275.794L329.305 229.942L296.973 178.732C296.973 178.732 294.627 163.831 301.328 159.413L302.543 151.365L303.64 144.05L342.023 139.857L400.744 124.5C400.744 124.5 405.27 127.311 407.642 134.328C409.264 139.057 409.888 145.723 407.464 154.738Z" fill="#474463"/>
<path d="M305.075 178.432C305.075 178.432 277.926 212.292 279.077 202.831C279.796 196.889 276.083 189.633 273.193 185.045C271.487 182.316 270.075 180.53 270.075 180.53C270.075 180.53 286.64 149.691 287.562 153.894C287.856 155.221 289.771 158.269 292.236 161.748C297.433 169.038 305.075 178.432 305.075 178.432Z" fill="#FFC1C8"/>
<path opacity="0.3" d="M356.075 457.626V461C356.075 461 330.682 451.979 316.702 442.479C310.936 438.558 309.295 434.915 309.612 432C317.331 435.981 331.689 443.572 336.038 446.993C339.731 449.894 349.277 454.489 356.075 457.626Z" fill="white"/>
<path d="M349.575 470.5C353.993 470.5 357.575 466.918 357.575 462.5C357.575 458.082 353.993 454.5 349.575 454.5C345.157 454.5 341.575 458.082 341.575 462.5C341.575 466.918 345.157 470.5 349.575 470.5Z" fill="#474463"/>
<path d="M270.825 459.5C275.105 459.5 278.575 455.918 278.575 451.5C278.575 447.082 275.105 443.5 270.825 443.5C266.545 443.5 263.075 447.082 263.075 451.5C263.075 455.918 266.545 459.5 270.825 459.5Z" fill="#474463"/>
<path d="M385.562 454.294C385.518 454.853 385.363 455.397 385.107 455.894L380.491 461L315.972 459.949L298.623 459.662C298.623 459.662 262.103 452.916 254.988 449.77C247.873 446.625 219.9 440.869 219.9 440.869C219.9 440.869 203.005 437.992 200.526 429.673C199.689 426.856 200.111 424.841 201.027 423.409C202.827 420.605 206.56 420.016 206.56 420.016C214.184 417.731 222.335 418.036 229.772 420.886L337.918 449.121L339.593 449.556C339.593 449.556 378.143 448.827 378.921 448.967C384.836 450.065 385.7 452.614 385.562 454.294Z" fill="#FECB23"/>
<path opacity="0.3" d="M385.562 454.351C379.073 453.496 367.757 452.232 364.842 453.449C364.842 453.449 344.262 450.868 315.946 460L298.623 459.713C298.623 459.713 262.103 452.974 254.988 449.832C247.873 446.69 219.9 440.941 219.9 440.941C219.9 440.941 203.005 438.067 200.526 429.757C199.689 426.943 200.111 424.931 201.027 423.5C202.181 426.909 204.403 431.85 207.951 433.233C213.523 435.406 236.425 439.831 236.425 439.831L281.754 451.082C281.754 451.082 307.927 456.838 318.115 453.088C322.289 451.564 330.124 450.206 337.898 449.144L339.573 449.578C339.573 449.578 378.123 448.849 378.901 448.99C384.836 450.126 385.7 452.673 385.562 454.351Z" fill="white"/>
<path d="M323.013 445.843C322.958 446.831 322.837 447.814 322.651 448.785C322.651 448.785 297.053 449.716 283.727 447.706C280.047 447.15 277.966 445.95 276.932 444.516C276.471 443.839 276.185 443.054 276.101 442.234C276.017 441.414 276.138 440.586 276.452 439.826C276.599 439.389 276.786 438.968 277.011 438.567C278.005 436.798 279.533 435.545 280.369 435.712C282.687 436.188 286.663 431.35 286.663 431.35C286.347 428.396 290.91 427.33 291.621 427.813C291.748 427.912 291.898 427.976 292.056 427.999C292.215 428.022 292.376 428.003 292.526 427.944C292.675 427.884 292.806 427.787 292.907 427.661C293.008 427.534 293.076 427.384 293.102 427.223C293.149 427.002 293.162 425.936 293.162 424.69C293.162 422.613 293.102 420 293.102 420L318.832 423.183L319.853 428.188C320.788 432.65 322.092 438.781 322.651 440.878C323.04 442.501 323.163 444.179 323.013 445.843Z" fill="#474463"/>
<path opacity="0.1" d="M323.075 445.601C323.02 446.664 322.899 447.723 322.713 448.768C322.713 448.768 297.16 449.771 283.858 447.606C280.184 447.008 278.107 445.716 277.075 444.172C280.486 443.949 284.922 443.826 287.67 444.562C291.587 445.63 315.017 445.63 323.075 445.601Z" fill="black"/>
<path d="M277.066 438.697C277.094 438.935 277.056 439.177 276.957 439.395C276.858 439.614 276.702 439.802 276.504 439.938C273.25 442.448 257.638 439.72 257.638 439.72C257.638 439.72 225.739 437.739 220.972 434.489C220.541 434.206 220.182 433.829 219.92 433.386C217.937 429.806 225.118 423.795 225.739 423.795C226.361 423.795 234.937 422.626 235.513 422.514C239.48 421.714 243.448 419.257 244.109 419.957C244.77 420.657 248.076 419.026 249.69 418.795C250.278 418.709 250.55 417.877 250.649 416.813C250.742 415.374 250.693 413.93 250.503 412.5L275.981 419.35L276.206 423.405L276.94 436.906L277.033 438.564C277.049 438.607 277.06 438.651 277.066 438.697Z" fill="#474463"/>
<path opacity="0.1" d="M257.702 439.652C257.702 439.652 225.88 437.571 221.124 434.158C220.694 433.862 220.336 433.465 220.075 433C226.52 433.555 237.266 434.491 239.205 435.011C241.995 435.705 257.675 436.718 257.675 436.718H276.957L277.05 438.459C277.887 443.369 257.702 439.652 257.702 439.652Z" fill="black"/>
<path d="M232.075 459.5C236.493 459.5 240.075 455.918 240.075 451.5C240.075 447.082 236.493 443.5 232.075 443.5C227.657 443.5 224.075 447.082 224.075 451.5C224.075 455.918 227.657 459.5 232.075 459.5Z" fill="#474463"/>
<path d="M316.325 475C320.605 475 324.075 471.642 324.075 467.5C324.075 463.358 320.605 460 316.325 460C312.045 460 308.575 463.358 308.575 467.5C308.575 471.642 312.045 475 316.325 475Z" fill="#474463"/>
<path d="M237.075 188.171C237.075 188.171 235.612 190.825 233.412 194.767C228.141 204.135 218.659 220.743 214.581 225.998C208.783 233.469 209.251 226.469 202.985 210.824C198.333 199.186 212.65 185.869 220.307 179.818C222.942 177.714 224.787 176.5 224.787 176.5L237.075 188.171Z" fill="#F8BDC5"/>
<path d="M265.522 206.5C265.522 206.5 246.306 208.075 242.602 209.202C238.899 210.329 222.926 209.651 221.551 209.202C220.176 208.754 192.835 214.838 205.341 220.921C217.847 227.005 225.735 220.921 225.735 220.921C225.735 220.921 241.945 220.018 246.129 222.503C250.313 224.987 265.575 223.63 265.575 223.63L265.522 206.5Z" fill="#FFC1C8"/>
<path opacity="0.1" d="M225.403 64.0802C227.753 70.1829 226.284 75.4972 223.516 80.9506C216.583 82.2758 210.061 84.0981 206.431 86.4636C196.091 93.229 203.905 33.7584 203.905 33.7584C203.905 33.7584 208.906 33.7584 215.245 33.5C213.325 42.3924 220.598 51.6228 225.403 64.0802Z" fill="black"/>
<path d="M226.075 62.8006C226.062 72.5663 222.455 81.9857 215.942 89.262C209.429 96.5383 200.464 101.162 190.76 102.252C181.055 103.341 171.289 100.82 163.324 95.1694C155.359 89.5186 149.753 81.1335 147.576 71.6137C145.398 62.0938 146.801 52.1055 151.517 43.554C156.233 35.0025 163.932 28.4863 173.146 25.2484C182.359 22.0106 192.442 22.2776 201.471 25.9986C210.5 29.7196 217.843 36.6342 222.1 45.4233C224.723 50.8401 226.083 56.782 226.075 62.8006Z" fill="#F8BDC5"/>
<path opacity="0.1" d="M408.075 134.318C406.822 136.145 404.945 137.449 402.799 137.985C393.743 140.542 329.906 155.891 325.731 154.959C322.044 154.14 306.222 151.861 302.575 151.339L303.676 144.031L342.213 139.842L401.169 124.5C401.169 124.5 405.694 127.308 408.075 134.318Z" fill="black"/>
<path opacity="0.1" d="M251.075 77.4977C243.55 77.9492 236.054 78.7844 228.614 80C228.72 79.6611 228.706 79.296 228.575 78.9661L243.965 77.063C243.965 77.063 241.716 40.8449 233.442 32.1657C236.546 31.6652 239.065 31.033 240.433 30.1901C246.681 26.5091 251.075 77.4977 251.075 77.4977Z" fill="black"/>
<path d="M230.678 22.9486C230.678 22.9486 244.369 21.7147 246.221 19.3922C248.073 17.0696 261.302 16.3767 261.302 16.3767C261.302 16.3767 267.795 15.2155 269.212 13.5857C270.629 11.9559 305.861 9.87086 309.341 11.7316C312.822 13.5923 316.071 14.747 318.161 14.9845C320.25 15.222 336.485 26.8218 338.107 26.8218C339.728 26.8218 384.247 68.8593 384.247 68.8593C384.247 68.8593 388.861 79.5419 390.746 80.0038C392.632 80.4657 409.308 122.734 409.308 122.734C409.308 122.734 411.628 132.948 402.585 135.508C393.541 138.069 329.735 153.39 325.563 152.459C321.39 151.529 301.669 148.745 301.669 148.745C301.669 148.745 301.899 148.745 301.438 146.191C300.977 143.637 300.278 144.33 301.201 142.008C302.123 139.685 303.059 139.916 301.899 138.524C300.739 137.132 301.899 136.432 298.188 134.11C294.477 131.787 290.279 129.233 290.068 128.541C289.857 127.848 286.587 123.196 284.966 122.965C283.344 122.734 237.869 109.96 237.869 109.96L227.198 106.476C227.198 106.476 222.096 102.992 223.243 100.907C224.39 98.8221 228.338 79.9576 228.338 79.9576L244.652 77.9452C244.652 77.9452 242.22 38.6195 233.084 32.0212C223.948 25.423 230.678 22.9486 230.678 22.9486Z" fill="#FECB23"/>
<path opacity="0.1" d="M237.075 188.32C237.075 188.32 235.636 191.008 233.47 195C233.133 182.662 224.808 180.27 220.575 179.86C223.168 177.73 224.984 176.5 224.984 176.5L237.075 188.32Z" fill="black"/>
<path d="M226.119 99.5L227.247 105.792C227.247 105.792 231.689 111.157 231.689 112.787C231.689 114.416 236.827 119.079 238.235 121.642C239.642 124.205 244.542 124.676 242.67 129.107C240.798 133.538 230.056 167.337 230.056 167.337L219.075 179.458C219.075 179.458 237.299 177.822 234.491 199.5L258.092 178.967L276.575 145.42C276.575 145.42 258.583 111.389 257.886 108.594C257.189 105.799 226.119 99.5 226.119 99.5Z" fill="#FECB23"/>
<path opacity="0.1" d="M280.075 111.5C280.075 111.5 295.075 100.769 295.075 99.5766C295.075 98.3843 280.075 111.5 280.075 111.5Z" fill="black"/>
<path opacity="0.1" d="M305.075 124.5C305.075 124.5 312.89 122.782 313.542 118.926C314.193 115.07 305.075 124.5 305.075 124.5Z" fill="black"/>
<path opacity="0.1" d="M311.575 135.5C311.575 135.5 323.042 129.611 322.56 128.591C322.078 127.57 311.575 135.5 311.575 135.5Z" fill="black"/>
<path opacity="0.1" d="M371.075 99.5C371.075 99.5 367.117 102.795 368.293 105.882C369.469 108.968 371.075 99.5 371.075 99.5Z" fill="black"/>
<path opacity="0.1" d="M384.575 101.5C384.575 101.5 372.185 113.764 374.987 113.997C377.79 114.229 384.575 101.5 384.575 101.5Z" fill="black"/>
<path opacity="0.1" d="M355.075 295.5C355.075 295.5 371.616 299.056 372.066 300.326C372.517 301.596 355.075 295.5 355.075 295.5Z" fill="black"/>
<path opacity="0.1" d="M361.075 307C361.075 307 370.334 312.276 370.571 313.811C370.807 315.347 361.075 307 361.075 307Z" fill="black"/>
<path opacity="0.1" d="M359.575 319C359.575 319 360.722 325.464 362.637 326.424C364.551 327.383 359.575 319 359.575 319Z" fill="black"/>
<path opacity="0.1" d="M221.855 45.1084C221.855 45.1741 221.855 45.2465 221.822 45.3123C221.506 47.3707 220.663 49.6002 218.728 50.2841C217.559 50.6127 216.309 50.498 215.219 49.9619C211.928 48.5216 208.998 45.0624 205.483 45.8976C203.811 46.2922 202.64 47.5614 201.81 49.1201C201.235 50.242 200.793 51.4272 200.494 52.6517C199.835 55.2297 199.309 58.0313 200.316 60.4843C200.481 60.8856 200.68 61.2727 200.908 61.6418C201.843 63.1347 203.16 64.4039 204.081 65.91C205.227 67.7909 205.523 70.6122 203.739 71.9012C203.291 72.1951 202.784 72.3859 202.253 72.4599C201.723 72.5338 201.182 72.489 200.671 72.3287C199.364 71.9184 198.108 71.3625 196.926 70.6714C194.595 69.4547 191.659 68.6984 189.448 70.1058C188.684 70.5793 188.072 71.2633 187.341 71.7631C185.822 72.7028 184.021 73.0777 182.253 72.8219C178.066 72.3944 176.499 69.7441 173.3 67.6922C170.957 66.1796 166.059 65.5351 164.664 68.6261C163.768 70.599 165.098 73.085 164.223 75.0974C163.347 77.1098 160.563 77.728 159.272 79.5957C157.574 82.0554 159.154 85.6133 157.91 88.3425C157.719 88.7653 157.464 89.1558 157.153 89.5C150.177 81.9905 146.388 72.0711 146.582 61.8278C146.776 51.5846 150.939 41.8157 158.194 34.5756C165.45 27.3355 175.233 23.1883 185.486 23.0063C195.739 22.8242 205.664 26.6215 213.172 33.5994L214.949 33.5337C216.681 33.4679 218.517 33.3758 220.367 33.264C220.804 34.1893 221.146 35.1567 221.387 36.1511C222.103 39.0813 222.262 42.1197 221.855 45.1084Z" fill="black"/>
<path d="M164.025 67.9511C163.121 69.9449 164.454 72.4572 163.583 74.4842C162.712 76.5113 159.902 77.1427 158.622 79.0302C156.913 81.5225 158.496 85.1181 157.256 87.8696C155.831 91.0132 151.529 91.505 148.23 90.5879C145.412 89.7771 142.826 88.3026 140.685 86.286C138.545 84.2694 136.911 81.7686 135.919 78.9903C133.683 72.5768 135.128 65.5186 134.547 58.7461C134.3 55.844 133.679 52.9865 132.7 50.2457C131.743 47.5873 130.437 44.9687 130.127 42.1441C129.905 39.7474 130.401 37.3388 131.551 35.2289C132.701 33.119 134.452 31.4047 136.579 30.3073C139.297 28.978 142.642 28.5992 144.622 26.3196C146.139 24.5517 146.462 22.086 147.168 19.8595C149.075 13.878 154.769 8.9997 161.023 9.05952C166.024 9.09939 170.92 12.0702 175.808 10.9005C178.573 10.2359 181.086 8.24205 183.937 8.52783C185.302 8.7441 186.61 9.23455 187.783 9.97005C195.371 14.0989 202.592 18.8797 209.364 24.2593C210.765 25.4746 212.299 26.5248 213.936 27.3896C214.99 27.8036 216.019 28.2807 217.017 28.8185C219.148 30.1478 220.263 32.6799 220.87 35.139C221.599 38.0983 221.764 41.1697 221.358 44.1911C221.068 46.3245 220.237 48.7171 218.224 49.4282C217.049 49.7586 215.793 49.6378 214.701 49.0893C211.402 47.6471 208.473 44.1512 204.95 44.9886C202.073 45.6532 200.688 48.9364 199.936 51.8142C199.276 54.4195 198.735 57.2508 199.758 59.7364C200.602 61.7967 202.397 63.3054 203.525 65.2128C204.653 67.1203 204.976 69.9715 203.182 71.2675C201.203 72.7097 198.517 71.1744 196.347 70.0313C194.024 68.8018 191.069 68.0375 188.858 69.4531C188.1 69.9316 187.486 70.6228 186.747 71.1346C185.224 72.0751 183.423 72.4511 181.654 72.198C177.451 71.7659 175.881 69.0876 172.681 67.014C170.326 65.4721 165.43 64.8207 164.025 67.9511Z" fill="#474463"/>
<path opacity="0.1" d="M292.075 161.71C291.9 162.704 290.563 162.817 290.29 163.785C287.694 173.139 281.983 181.553 273.17 185C271.477 182.275 270.075 180.492 270.075 180.492C270.075 180.492 286.52 149.696 287.435 153.893C287.727 155.199 289.628 158.236 292.075 161.71Z" fill="black"/>
<path d="M292.575 155.243C292.576 161.326 290.788 167.271 287.438 172.329C284.087 177.387 279.324 181.329 273.751 183.657C268.178 185.986 262.045 186.596 256.129 185.41C250.212 184.224 244.777 181.296 240.51 176.996C236.244 172.696 233.339 167.217 232.161 161.252C230.984 155.286 231.588 149.103 233.896 143.484C236.204 137.865 240.113 133.062 245.129 129.683C250.145 126.304 256.042 124.5 262.075 124.5C266.084 124.485 270.056 125.27 273.763 126.81C277.469 128.35 280.837 130.613 283.672 133.471C286.507 136.329 288.753 139.724 290.281 143.46C291.809 147.197 292.589 151.202 292.575 155.243Z" fill="#FFC1C8"/>
<path opacity="0.1" d="M275.847 419.796L276.075 423.819C273.352 424.409 268.175 425.182 265.159 423.374C261.259 421.034 255.5 420.464 250.222 417.279C250.316 415.852 250.267 414.418 250.075 413L275.847 419.796Z" fill="black"/>
<path opacity="0.1" d="M320.075 428.473C319.895 429.42 319.729 430 319.729 430C319.729 430 299.085 427.802 293.135 424.838C293.135 422.695 293.075 420 293.075 420L319.058 423.283L320.075 428.473Z" fill="black"/>
<path d="M315.048 336.207C313.662 339.926 312.965 340.626 314.358 342.482C315.751 344.337 315.048 354.105 312.84 355.03C310.633 355.954 302.329 361.535 302.329 361.535C302.329 361.535 306.928 367.578 307.066 370.12C307.187 371.745 307.812 373.29 308.853 374.539C308.853 374.539 315.974 389.88 317.393 394.761C318.812 399.641 320.113 407.309 320.113 407.309C320.113 407.309 317.623 414.283 319.344 418.239C321.066 422.195 319.344 428 319.344 428C319.344 428 294.505 425.444 291.752 422.162C289 418.88 290.833 411.496 290.833 411.496C290.265 408.206 289.088 405.051 287.364 402.197C284.585 397.779 288.021 393.136 287.364 392.898C286.707 392.661 284.585 390.111 282.496 385.931C280.407 381.75 279.106 383.368 279.106 383.368C279.106 383.368 281.813 406.847 279.106 408.94C276.399 411.034 276.031 410.102 276.728 412.903C277.267 415.59 277.653 418.307 277.884 421.039C277.884 421.039 269.56 423.595 265.402 421.039C261.243 418.483 254.983 418.014 249.484 414.065C243.985 410.116 251.974 403.373 253.36 402.442C254.746 401.51 252.9 388.031 252.9 388.031L251.048 374.783C251.048 374.783 257.289 376.176 255.239 371.065C253.189 365.953 250.818 348.287 249.661 345.5C248.505 342.713 253.603 338.988 252.9 337.132C252.197 335.276 255.902 324.584 255.902 324.584C255.902 324.584 256.139 315.754 258.445 314.096C259.325 313.476 259.897 311.547 260.278 309.414C260.682 306.896 260.921 304.355 260.994 301.806C260.994 301.806 313.938 298.088 322.491 303.199C326.341 305.498 326.072 309.731 324.462 314.017C322.491 319.248 318.444 324.584 317.426 326.519C315.514 330.085 316.434 332.489 315.048 336.207Z" fill="#575988"/>
<path opacity="0.1" d="M324.443 314.065C317.852 315.928 309.074 318.665 307.644 320.236C305.324 322.807 297.435 305.774 297.435 305.774C297.435 305.774 297.903 318.579 287.464 313.223C278.429 308.584 263.845 309.194 260.075 309.446C260.48 306.919 260.72 304.369 260.793 301.811C260.793 301.811 313.905 298.079 322.485 303.209C326.347 305.515 326.077 309.764 324.443 314.065Z" fill="black"/>
<path d="M297.538 173.454C297.538 173.454 302.136 167.878 303.089 169.97C304.041 172.061 309.467 176.239 309.467 176.239C309.467 176.239 311.024 181.115 313.763 181.815C316.502 182.514 337.075 210.381 337.075 210.381L329.672 225.473L323.662 262.17C323.662 262.17 323.925 267.977 322.289 270.089C320.653 272.2 314.407 271.712 317.303 274.266C320.2 276.819 324.358 279.142 326.67 290.763C328.982 302.384 331.754 309.108 331.754 309.108C331.754 309.108 310.025 314.684 307.713 317.238C305.401 319.792 297.538 302.839 297.538 302.839C297.538 302.839 298.005 315.582 287.6 310.256C277.195 304.931 259.394 306.554 259.394 306.554V292.828C259.394 292.828 262.863 287.483 261.017 283.768C259.171 280.053 262.278 273.084 262.278 273.084C262.278 273.084 261.247 265.885 259.394 261.708C257.542 257.531 258.238 237.787 258.238 237.787C258.238 237.787 256.833 225.011 258.114 218.505C259.2 212.865 261.12 207.42 263.809 202.35C266.351 197.375 267.96 192.729 267.27 190.868C266.58 189.007 273.372 184.982 273.372 184.982L277.136 191.099L278.095 194.755C278.095 194.755 298.005 180.422 297.538 173.454Z" fill="#DCE6F2"/>
<path d="M331.101 206.5C331.101 206.5 344.138 218.964 345.534 221.005C346.929 223.047 351.606 233.662 345.553 236.883C339.501 240.103 315.789 245.07 313.434 243.356C311.079 241.643 296.898 245.289 296.898 245.289C296.898 245.289 273.179 250.957 278.299 241.662C283.418 232.368 295.529 233.933 295.529 233.933C295.529 233.933 315.094 233.901 317.184 232.001C319.275 230.1 335.043 226.023 331.472 217.624C327.9 209.225 331.101 206.5 331.101 206.5Z" fill="#FFC1C8"/>
<path opacity="0.1" d="M292.575 263.5C292.575 263.5 262.82 289.5 265.782 289.5C268.744 289.5 292.575 263.5 292.575 263.5Z" fill="black"/>
<path opacity="0.1" d="M313.075 273.5C313.075 273.5 303.454 276.134 305.313 277.724C307.173 279.315 313.075 273.5 313.075 273.5Z" fill="black"/>
<path opacity="0.1" d="M279.075 210C279.075 210 291.507 211.022 289.316 214.596C287.124 218.169 279.075 210 279.075 210Z" fill="black"/>
<path opacity="0.1" d="M271.792 323C271.792 323 270.179 327.756 271.792 330.306C273.405 332.857 271.792 338.941 271.792 338.941V360.197C271.792 360.197 271.57 375.626 277.075 381L271.792 323Z" fill="black"/>
<path opacity="0.1" d="M256.075 388.5C256.075 388.5 259.104 393.44 259.541 395.249C259.978 397.058 256.075 388.5 256.075 388.5Z" fill="black"/>
<path opacity="0.1" d="M256.575 378.982C256.575 378.982 263.862 378.178 264.983 378.647C266.104 379.116 256.575 378.982 256.575 378.982Z" fill="black"/>
<path opacity="0.1" d="M254.115 407.5C254.115 407.5 251.957 407.738 256.267 410.225C260.577 412.712 268.965 415.859 269.074 414.783C269.184 413.706 254.115 407.5 254.115 407.5Z" fill="black"/>
<path opacity="0.1" d="M287.075 384.607C287.818 384.607 297.088 384.039 296.553 385.517C296.018 386.995 287.075 384.607 287.075 384.607Z" fill="black"/>
<path opacity="0.1" d="M300.075 371C300.075 371 302.188 367.327 302.967 368.885C303.745 370.443 300.075 371 300.075 371Z" fill="black"/>
<path opacity="0.1" d="M292.568 155.135C292.572 157.979 292.178 160.809 291.4 163.544C290.126 164.703 287.927 164.716 286.358 163.854C284.52 162.839 283.319 160.995 282.124 159.244C280.929 157.492 279.57 155.74 277.614 154.99C275.139 154.055 272.316 154.99 270.163 156.544C268.009 158.098 266.289 160.153 264.254 161.812C262.219 163.472 259.626 164.815 257.033 164.407C255.359 164.15 253.875 163.202 252.438 162.286C250.468 161.042 248.354 159.105 246.195 158.269C244.035 157.433 242.256 158.928 240.201 158.928C238.566 159.52 236.787 160.87 237.116 162.576C237.291 163.209 237.576 163.806 237.956 164.341C238.616 165.645 238.876 167.115 238.704 168.567C238.533 170.019 237.936 171.387 236.991 172.5C234.27 168.554 232.512 164.021 231.86 159.267C231.208 154.514 231.679 149.673 233.236 145.136C234.793 140.599 237.392 136.493 240.823 133.15C244.254 129.807 248.421 127.32 252.987 125.89C257.553 124.46 262.39 124.128 267.108 124.919C271.826 125.711 276.292 127.605 280.145 130.448C283.998 133.291 287.131 137.003 289.291 141.284C291.45 145.566 292.575 150.297 292.575 155.095L292.568 155.135Z" fill="black"/>
<path d="M239.755 158.499C238.112 159.103 236.323 160.48 236.646 162.226C236.83 162.867 237.118 163.473 237.498 164.018C239.425 167.516 237.795 172.539 234.198 174.164C233.634 174.462 232.99 174.566 232.363 174.459C231.865 174.302 231.413 174.026 231.042 173.653C229.108 171.894 227.774 169.554 227.234 166.973C226.666 164.287 227.016 161.44 226.725 158.68C226.435 155.921 225.504 153.202 225.181 150.422C224.952 149.048 225.096 147.637 225.597 146.34C226.032 145.484 226.593 144.7 227.26 144.016C229.115 141.915 231.049 139.766 231.98 137.101C233.452 132.857 232.382 127.452 235.604 124.344C237.095 122.92 239.181 122.39 241.029 121.49C242.77 120.55 244.436 119.475 246.013 118.274C251.987 114.098 259.248 110.888 266.35 112.365C269.188 113.064 271.905 114.196 274.41 115.722C279.062 118.331 283.479 121.351 287.611 124.746C289.398 126.091 290.959 127.721 292.232 129.574C293.181 131.16 293.863 132.896 294.252 134.71C295.2 138.669 295.331 142.784 294.635 146.796C293.975 150.731 292.476 154.551 292.417 158.546C292.417 159.889 292.522 161.339 291.842 162.494C290.753 164.334 288.054 164.508 286.205 163.488C284.357 162.467 283.149 160.574 281.954 158.788C280.76 157.002 279.387 155.216 277.42 154.457C274.931 153.497 272.093 154.457 269.928 156.035C267.763 157.613 266.04 159.714 263.987 161.406C261.934 163.098 259.366 164.468 256.726 164.052C255.043 163.79 253.551 162.83 252.106 161.897C250.125 160.621 248 158.647 245.835 157.801C243.67 156.955 241.815 158.499 239.755 158.499Z" fill="#794F6A"/>
<path d="M310.482 206.5C310.482 206.5 275.986 237.648 283.021 253.222C290.057 268.796 321.032 241.312 321.032 241.312L332.075 216.373L310.482 206.5Z" fill="#F8BDC5"/>
<g opacity="0.1">
<path d="M234.628 171.805C234.067 172.098 233.425 172.2 232.801 172.095C232.302 171.942 231.849 171.668 231.482 171.297C229.548 169.57 228.213 167.274 227.669 164.74C227.108 162.068 227.458 159.297 227.167 156.586C226.877 153.875 225.94 151.21 225.624 148.472C225.624 148.34 225.624 148.202 225.591 148.063C225.519 148.819 225.53 149.58 225.624 150.333C225.94 153.064 226.877 155.702 227.167 158.446C227.458 161.191 227.108 163.928 227.669 166.593C228.211 169.13 229.546 171.429 231.482 173.157C231.851 173.524 232.303 173.796 232.801 173.949C233.425 174.054 234.067 173.952 234.628 173.658C237.465 172.398 239.068 169.08 238.692 166.046C238.554 167.27 238.11 168.44 237.399 169.447C236.689 170.454 235.736 171.265 234.628 171.805Z" fill="black"/>
<path d="M294.994 144.923C294.334 148.789 292.837 152.542 292.784 156.467C292.784 157.787 292.89 159.212 292.204 160.346C291.122 162.154 288.424 162.325 286.577 161.323C284.73 160.32 283.522 158.466 282.322 156.705C281.121 154.944 279.762 153.195 277.79 152.45C275.31 151.513 272.473 152.45 270.309 154.007C268.146 155.564 266.417 157.615 264.372 159.284C262.327 160.953 259.722 162.292 257.116 161.89C255.434 161.626 253.943 160.683 252.498 159.766C250.519 158.512 248.395 156.58 246.232 155.742C244.068 154.904 242.274 156.401 240.209 156.401C238.566 157.002 236.779 158.347 237.095 160.069C237.136 160.255 237.195 160.436 237.273 160.61C237.92 159.484 238.969 158.645 240.209 158.262C242.267 158.262 244.088 156.784 246.232 157.602C248.376 158.42 250.539 160.373 252.498 161.626C253.93 162.543 255.421 163.486 257.116 163.743C259.755 164.152 262.341 162.827 264.372 161.144C266.404 159.462 268.152 157.384 270.309 155.867C272.466 154.35 275.31 153.374 277.79 154.317C279.769 155.062 281.128 156.837 282.322 158.572C283.516 160.307 284.73 162.147 286.577 163.189C288.424 164.232 291.122 164.021 292.204 162.213C292.863 161.078 292.764 159.66 292.784 158.334C292.837 154.409 294.314 150.656 294.994 146.79C295.342 144.805 295.483 142.789 295.416 140.774C295.374 142.165 295.233 143.552 294.994 144.923Z" fill="black"/>
</g>
<path opacity="0.1" d="M269.503 45.1771C269.503 45.1771 256.943 67.9202 274.13 79.5259C291.317 91.1315 292.976 89.971 292.976 89.971C292.976 89.971 292.738 92.7537 292.976 93.4527C293.214 94.1516 297.603 95.7672 297.603 95.7672C297.603 95.7672 302.951 104.34 310.626 108.072C318.3 111.804 319.702 120.601 319.702 120.601C319.702 120.601 319.702 123.621 323.668 126.404C327.634 129.186 330.688 137.31 330.688 137.31V144.742C330.688 145.902 332.083 149.358 329.062 149.727C326.041 150.096 328.593 157.04 328.593 157.04C328.593 157.04 325.34 160.996 326.034 162.843C326.729 164.689 324.64 168.408 324.64 168.408C324.64 168.408 322.081 172.121 322.313 172.82C322.544 173.519 319.523 176.07 320.217 177.693C320.911 179.315 316.734 181.405 317.428 183.265C318.122 185.124 314.453 186.047 314.453 186.047L304.399 209.259C304.399 209.259 325.552 213.875 331.012 225.5L357.678 176.763C357.678 176.763 372.565 140.33 373.034 138.009C373.503 135.688 369.775 127.333 369.775 127.333L351.63 94.3627L324.408 56.0706C324.408 56.0706 302.773 10.1359 269.503 45.1771Z" fill="black"/>
<path opacity="0.1" d="M296.569 55.1192C296.569 55.1192 263.86 66.5655 281.087 78.1767C298.315 89.788 299.949 88.6202 299.949 88.6202C299.949 88.6202 299.718 91.4109 299.949 92.1036C300.181 92.7963 304.58 94.4259 304.58 94.4259C304.58 94.4259 309.939 103.002 317.62 106.736C325.302 110.47 326.704 119.271 326.704 119.271C326.704 119.271 326.704 122.293 330.674 125.077C334.643 127.861 337.66 135.989 337.66 135.989V143.417C337.66 144.578 339.056 148.035 336.026 148.411C332.996 148.787 335.563 155.728 335.563 155.728C335.563 155.728 332.301 159.686 333.002 161.527C333.704 163.367 331.606 167.102 331.606 167.102C331.606 167.102 329.046 170.816 329.278 171.515C329.509 172.214 326.479 174.768 327.18 176.391C327.882 178.013 323.687 180.105 324.389 181.965C325.09 183.826 321.405 184.749 321.405 184.749L311.349 207.965C311.349 207.965 328.788 208.862 334.293 220.5L364.666 175.487C364.666 175.487 379.572 139.037 380.035 136.714C380.498 134.392 376.786 126.007 376.786 126.007L358.626 93.0206L317.197 69.1912C317.197 69.1912 329.866 20.0546 296.569 55.1192Z" fill="black"/>
<path d="M271.503 45.1748C271.503 45.1748 258.942 67.9182 276.131 79.524C293.319 91.1298 294.978 89.9692 294.978 89.9692C294.978 89.9692 294.747 92.752 294.978 93.451C295.209 94.15 299.606 95.7656 299.606 95.7656C299.606 95.7656 304.96 104.338 312.635 108.07C320.311 111.803 321.712 120.599 321.712 120.599C321.712 120.599 321.712 123.619 325.679 126.402C329.645 129.185 332.693 137.309 332.693 137.309V144.741C332.693 145.901 334.088 149.357 331.06 149.726C328.032 150.095 330.597 157.039 330.597 157.039C330.597 157.039 327.338 160.995 328.039 162.842C328.739 164.688 326.644 168.407 326.644 168.407C326.644 168.407 324.085 172.12 324.317 172.819C324.548 173.518 321.52 176.07 322.221 177.692C322.922 179.314 318.731 181.405 319.431 183.264C320.132 185.124 316.45 186.047 316.45 186.047L306.401 209.258C306.401 209.258 327.516 213.874 333.01 225.5L359.678 176.762C359.678 176.762 374.572 140.329 375.035 138.008C375.498 135.687 371.776 127.332 371.776 127.332L353.629 94.361L326.412 56.0816C326.412 56.0816 304.769 10.1332 271.503 45.1748Z" fill="#FECB23"/>
<g opacity="0.1">
<path d="M134.472 56.7594C134.228 53.8762 133.607 51.0374 132.625 48.3157C131.668 45.6771 130.362 43.078 130.052 40.2744C130.052 40.1887 130.052 40.1095 130.052 40.0237C129.983 40.7257 129.983 41.4327 130.052 42.1347C130.362 44.9382 131.668 47.5175 132.625 50.1759C133.607 52.8954 134.228 55.732 134.472 58.613C134.564 59.6949 134.604 60.7899 134.617 61.9113C134.637 60.1632 134.617 58.4547 134.472 56.7594Z" fill="black"/>
<path d="M157.177 85.6658C155.759 88.7794 151.451 89.2742 148.153 88.3573C145.337 87.5503 142.754 86.0867 140.614 84.0867C138.474 82.0867 136.839 79.6075 135.844 76.8527C134.927 74.0179 134.481 71.0518 134.524 68.0726C134.485 71.7074 134.623 75.2959 135.844 78.7064C136.839 81.4621 138.473 83.9424 140.613 85.9435C142.753 87.9446 145.337 89.4094 148.153 90.2175C151.451 91.1278 155.759 90.6397 157.177 87.5195C157.778 86.2002 157.718 84.6697 157.692 83.1657C157.68 84.0241 157.505 84.8724 157.177 85.6658Z" fill="black"/>
<path d="M221.27 42.2996C220.986 44.4105 220.149 46.7853 218.137 47.4911C216.964 47.8187 215.712 47.7012 214.621 47.1613C211.322 45.7232 208.387 42.2534 204.864 43.0912C201.988 43.7509 200.609 47.003 199.851 49.8659C199.301 51.6749 199.062 53.5643 199.145 55.4533C199.271 54.1905 199.507 52.9412 199.851 51.7196C200.609 48.8632 201.988 45.6309 204.864 44.9448C208.387 44.1137 211.296 47.5835 214.621 49.015C215.71 49.5596 216.963 49.6795 218.137 49.3514C220.149 48.6455 220.986 46.2708 221.27 44.1532C221.451 42.8046 221.518 41.443 221.468 40.0831C221.435 40.822 221.369 41.5674 221.27 42.2996Z" fill="black"/>
<path d="M203.096 69.1742C201.117 70.6057 198.432 69.0819 196.262 67.9407C193.94 66.7203 190.985 65.9617 188.775 67.3668C188.016 67.8417 187.403 68.5278 186.664 69.0357C185.144 69.9761 183.34 70.3498 181.571 70.0912C177.369 69.6624 175.799 67.004 172.6 64.9458C170.252 63.4352 165.344 62.7887 163.945 65.8891C163.61 66.8019 163.517 67.786 163.675 68.7455C163.718 68.4025 163.809 68.0672 163.945 67.7494C165.35 64.6424 170.252 65.2888 172.6 66.8061C175.799 68.8642 177.369 71.5226 181.571 71.9514C183.341 72.2047 185.143 71.8288 186.664 70.8894C187.403 70.388 188.016 69.702 188.775 69.227C191.005 67.8417 193.94 68.5674 196.262 69.8009C198.432 70.9355 201.104 72.4396 203.096 71.0279C204.257 70.1967 204.534 68.7191 204.277 67.2612C204.142 68.0261 203.719 68.7103 203.096 69.1742Z" fill="black"/>
<path d="M163.503 72.3802C162.6 74.4515 159.822 75.0188 158.543 76.8856C157.586 78.2709 157.665 79.9993 157.698 81.7342C157.686 80.6776 157.979 79.6399 158.543 78.7459C159.822 76.879 162.6 76.3051 163.503 74.2338C163.819 73.3325 163.906 72.3666 163.754 71.4236C163.713 71.7522 163.629 72.0739 163.503 72.3802Z" fill="black"/>
</g>
<defs>
<linearGradient id="paint0_linear_40_248" x1="269.83" y1="474.744" x2="269.83" y2="4.53173" gradientUnits="userSpaceOnUse">
<stop stop-color="#808080" stop-opacity="0.25"/>
<stop offset="0.54" stop-color="#808080" stop-opacity="0.12"/>
<stop offset="1" stop-color="#808080" stop-opacity="0.1"/>
</linearGradient>
</defs>
</svg>
