<svg width="117" height="158" viewBox="0 0 117 158" fill="none" xmlns="http://www.w3.org/2000/svg">
<g clip-path="url(#clip0_491_1965)">
<path d="M81.0203 88.0802C81.0236 87.5956 80.9269 87.1155 80.7362 86.6699C80.5454 86.2243 80.2647 85.8228 79.9116 85.4904C79.5585 85.158 79.1405 84.9018 78.6838 84.738C78.2271 84.5741 77.7415 84.506 77.2572 84.5379C76.773 84.5699 76.3005 84.7012 75.8694 84.9236C75.4382 85.146 75.0577 85.4549 74.7514 85.8308C74.4451 86.2067 74.2197 86.6416 74.0893 87.1084C73.9589 87.5751 73.9263 88.0638 73.9935 88.5437L63.8503 101.808C63.4175 102.672 63.2497 103.645 63.3679 104.604C63.4861 105.563 63.8852 106.466 64.515 107.2L65.3107 108.127L68.9614 107.398L73.0991 103.752L72.6123 99.6203L77.7235 91.5999L77.7169 91.5941C78.6116 91.5372 79.451 91.1423 80.0646 90.4896C80.6782 89.8369 81.0199 88.9754 81.0203 88.0802Z" fill="#FFB9B9"/>
<path d="M10.8769 152.927L9.22119 146.786L32.1517 137.487L34.5953 146.55L10.8769 152.927Z" fill="#FFB8B8"/>
<path d="M5.33838 156.095L0 136.296L0.250784 136.228C2.29755 135.678 4.47937 135.962 6.31633 137.018C8.15329 138.074 9.49495 139.816 10.0462 141.86L10.0463 141.86L13.3068 153.953L5.33838 156.095Z" fill="#2F2E41"/>
<path d="M42.4628 151.945L37.3127 148.205L49.3084 126.588L56.9097 132.108L42.4628 151.945Z" fill="#FFB8B8"/>
<path d="M40.1458 157.885L23.5391 145.825L23.6919 145.615C24.9386 143.903 26.8152 142.756 28.9089 142.426C31.0025 142.096 33.1418 142.609 34.8562 143.854L34.8566 143.854L44.9994 151.22L40.1458 157.885Z" fill="#2F2E41"/>
<path d="M86.2421 121.737L73.2818 109.165C72.1507 108.068 70.6609 107.415 69.0864 107.328C67.512 107.24 65.9587 107.723 64.7122 108.687L40.2413 135.834L42.4319 139.237L65.7972 123.439L81.6176 144.098L96.7078 136.563L86.2421 121.737Z" fill="#2F2E41"/>
<path d="M80.6442 124.411L71.1519 123.682L64.2777 122.018C63.8894 121.413 63.3253 120.941 62.661 120.665C61.9966 120.389 61.2637 120.322 60.5604 120.474C59.857 120.625 59.2168 120.987 58.7254 121.512C58.234 122.037 57.915 122.699 57.8109 123.41C57.7068 124.121 57.8227 124.847 58.1431 125.49C58.4635 126.134 58.973 126.664 59.6035 127.01C60.234 127.356 60.9553 127.502 61.671 127.427C62.3866 127.353 63.0624 127.062 63.6078 126.593L63.6068 126.598L67.7445 128.3L85.5119 134.376L87.7024 132.674L80.6442 124.411Z" fill="#FFB9B9"/>
<path d="M103.523 150.66L98.1681 154.063H91.8399L62.3899 143.126L19.3099 150.903L18.093 141.667L57.5223 124.411L92.0836 135.834L103.523 150.66Z" fill="#2F2E41"/>
<path d="M92.0835 91.5999C97.3259 91.5999 101.576 87.3561 101.576 82.1211C101.576 76.8861 97.3259 72.6423 92.0835 72.6423C86.8411 72.6423 82.5912 76.8861 82.5912 82.1211C82.5912 87.3561 86.8411 91.5999 92.0835 91.5999Z" fill="#FFB9B9"/>
<path d="M116.644 119.966C116.644 125.686 115.741 131.371 113.969 136.811L113.258 138.994L109.851 154.549L106.2 155.521L103.523 152.118L98.1683 148.229L94.274 141.91L90.9347 136.354L89.893 134.619L86.2421 116.39L72.3689 108.613L67.7445 107.884L68.7181 105.21L72.8557 99.6203L76.9933 99.1342L78.2103 98.162L79.1838 98.6481L84.5506 100.713L101.951 93.3716L104.496 93.7872L113.258 101.079C115.498 107.124 116.645 113.519 116.644 119.966Z" fill="#CCCCCC"/>
<path opacity="0.1" d="M113.988 117.849L104.74 123.925L90.9347 136.354L89.893 134.619L86.9722 120.036H87.7025L95.2477 106.183L113.988 117.849Z" fill="black"/>
<path d="M95.2477 104.724L87.7025 118.578L83.3215 123.439L79.4274 124.411L89.893 135.834L104.74 122.467L113.988 116.39L95.2477 104.724Z" fill="#CCCCCC"/>
<path d="M84.7005 75.0733L83.672 75.4684C83.5159 75.3628 83.3821 75.2276 83.2783 75.0704C83.1745 74.9132 83.1028 74.7372 83.0671 74.5523C83.0315 74.3674 83.0326 74.1774 83.0706 73.9929C83.1085 73.8085 83.1824 73.6333 83.2881 73.4774C83.2936 73.4693 83.2993 73.4611 83.305 73.4531L81.4044 73.3643C82.6245 71.7417 84.1756 70.3963 85.9553 69.4171C87.735 68.4379 89.7026 67.8473 91.728 67.6843C93.7533 67.5213 95.7903 67.7896 97.704 68.4715C99.6178 69.1534 101.365 70.2333 102.829 71.6398C102.916 71.3422 103.859 71.9212 104.244 72.5083C104.374 72.0241 105.258 74.365 105.571 76.0197C105.716 75.4687 106.272 76.3582 105.785 77.2116C106.094 77.1666 106.233 77.9563 105.994 78.3962C106.332 78.2376 106.275 79.1803 105.909 79.8103C106.391 79.7675 105.867 89.692 98.626 88.9689C98.1219 86.6559 98.264 86.7996 97.6703 83.8253C97.394 83.5324 97.0915 83.2657 96.7894 82.9994L95.1555 81.5592C93.2556 79.8846 91.5273 77.8177 88.9964 77.1918C87.257 76.7616 86.1572 76.6645 87.1051 74.7073C86.2487 75.0642 85.449 75.5949 84.5849 75.9264C84.5965 75.6529 84.7173 75.3469 84.7005 75.0733Z" fill="#2F2E41"/>
<path d="M96.8296 84.9161C97.7705 84.9161 98.5333 84.1544 98.5333 83.2147C98.5333 82.2751 97.7705 81.5134 96.8296 81.5134C95.8886 81.5134 95.1259 82.2751 95.1259 83.2147C95.1259 84.1544 95.8886 84.9161 96.8296 84.9161Z" fill="#FFB9B9"/>
<path d="M17.3784 43.0334L16.8585 50.8293L24.6656 51.3485L25.1855 43.5525L17.3784 43.0334Z" fill="#FECE23"/>
<path d="M12.3414 47.1729L21.8213 47.8033L21.19 57.2698L11.71 56.6394L12.3414 47.1729ZM21.3817 48.1875L12.7261 47.6119L12.1496 56.2552L20.8053 56.8308L21.3817 48.1875Z" fill="#CCCCCC"/>
<path d="M61.4973 19.9158L53.8476 21.5571L55.4913 29.196L63.141 27.5547L61.4973 19.9158Z" fill="#FECE23"/>
<path d="M56.1281 16.2158L58.1241 25.4916L48.8351 27.4847L46.8392 18.2089L56.1281 16.2158ZM57.6334 25.175L55.8111 16.7058L47.3298 18.5256L49.1522 26.9948L57.6334 25.175Z" fill="#CCCCCC"/>
<path d="M53.4593 56.6006L47.7488 61.9419L53.0977 67.6443L58.8082 62.303L53.4593 56.6006Z" fill="#FECE23"/>
<path d="M59.2188 55.8016L52.2846 62.2874L45.7896 55.3631L52.7237 48.8772L59.2188 55.8016ZM52.3037 61.7044L58.6349 55.7825L52.7046 49.4603L46.3734 55.3821L52.3037 61.7044Z" fill="#CCCCCC"/>
</g>
<defs>
<clipPath id="clip0_491_1965">
<rect width="117" height="158" fill="white"/>
</clipPath>
</defs>
</svg>
