<svg width="160" height="132" viewBox="0 0 160 132" fill="none" xmlns="http://www.w3.org/2000/svg">
<g clip-path="url(#clip0_280_53)">
<path d="M80.6874 46.5742C91.259 46.5742 99.8291 37.9932 99.8291 27.4081C99.8291 16.8229 91.259 8.24194 80.6874 8.24194C70.1157 8.24194 61.5457 16.8229 61.5457 27.4081C61.5457 37.9932 70.1157 46.5742 80.6874 46.5742Z" fill="#FEB8B8"/>
<path d="M98.5659 10.8731C95.704 6.22001 91.2243 2.79131 85.9891 1.24703L83.6391 2.96408V0.734539C82.3819 0.54186 81.1093 0.467635 79.8382 0.512839L77.8107 2.34961V0.665438C74.809 1.03893 71.917 2.03113 69.3173 3.57947C66.7175 5.12781 64.4664 7.1987 62.7058 9.66155C58.303 16.0169 57.5597 24.8585 61.8903 31.2649C63.0789 27.6069 64.5218 24.1746 65.7108 20.517C66.6451 20.6445 67.5921 20.6491 68.5276 20.5306L69.9738 17.1516L70.3778 20.3876C74.8608 19.9967 81.5099 19.138 85.7596 18.3514L85.3462 15.8687L87.8187 17.9316C89.1206 17.6316 89.8937 17.3593 89.8299 17.1513C92.9906 22.2533 96.8587 25.5118 100.019 30.6138C101.22 23.4197 102.601 17.438 98.5659 10.8731Z" fill="#2F2E41"/>
<path d="M121.856 76.6943C121.197 72.7293 120.518 68.6881 118.678 65.1162C117.468 62.7765 115.548 60.547 112.96 60.0844C112.45 60.0389 111.949 59.9227 111.471 59.7393C110.713 59.3735 100.521 53.548 98.901 52.5334C97.5101 51.6623 95.3145 50.0495 94.2074 50.0495C93.0937 50.025 88.823 51.0202 72.1544 49.7156C72.1544 49.7156 67.5753 51.5228 64.0321 53.7142C63.9784 53.6787 46.7315 62.952 46.0835 62.9276C44.8564 62.8759 43.7159 63.6626 43.0124 64.6532C42.3091 65.6438 41.9792 66.8702 41.6338 68.0559C45.4008 76.4556 48.8474 84.8661 52.6148 93.2658C52.7912 93.5822 52.8849 93.9381 52.8872 94.3004C52.8115 94.6764 52.6513 95.0303 52.4186 95.335C50.5711 98.3065 50.6299 102.044 50.8317 105.536C51.0337 109.029 51.2834 112.718 49.7246 115.848C49.3006 116.708 48.7492 117.494 48.346 118.354C47.4016 120.3 47.0603 126.526 47.6119 128.617L116.718 130.6C115.232 126.51 121.856 76.6943 121.856 76.6943Z" fill="#FDC80C"/>
<path d="M35.6604 93.6382C35.5225 94.637 35.5086 95.6489 35.619 96.6511L36.6095 110.894C36.7025 112.236 36.794 113.575 36.9198 114.914C37.1575 117.513 37.5125 120.091 37.9531 122.665C37.9631 123.031 38.1174 123.377 38.3823 123.629C38.6472 123.881 39.001 124.017 39.3661 124.007C43.7261 124.931 48.2308 124.894 52.6805 124.643C59.4706 124.263 76.8421 123.545 77.9034 122.165C78.9647 120.784 78.3462 118.551 76.9624 117.435C75.5785 116.319 52.6543 113.598 52.6543 113.598C52.8783 111.82 53.554 110.147 54.195 108.459C55.3464 105.466 56.4217 102.375 56.4424 99.1688C56.463 95.9627 55.2567 92.5918 52.6337 90.755C50.476 89.2471 47.6979 88.9674 45.0686 89.0295C43.1556 89.0846 39.8502 88.6256 38.1029 89.3746C36.7202 89.9843 35.9187 92.2826 35.6604 93.6382Z" fill="#FBBEBE"/>
<path d="M41.4345 68.3115C41.0988 68.6635 40.8385 69.0805 40.6696 69.5368C37.8836 75.8236 36.238 82.557 35.8099 89.4216C35.8174 89.7563 35.7403 90.0875 35.5859 90.3845C35.4335 90.582 35.264 90.7656 35.0792 90.9331C34.9181 91.1244 34.7962 91.3455 34.7204 91.5839C34.6447 91.8223 34.6165 92.0734 34.6377 92.3226C34.6588 92.5719 34.7288 92.8146 34.8436 93.0368C34.9584 93.259 35.1157 93.4564 35.3067 93.6178C35.3381 93.6442 35.3702 93.6696 35.4032 93.694C35.9719 92.6225 37.3332 92.2722 38.5432 92.1791C44.3369 91.7202 49.9963 94.419 55.8073 94.2154C55.3973 92.7969 54.8076 91.4338 54.4733 89.9983C52.9946 83.6242 56.6827 76.6843 54.4216 70.5447C53.97 69.3162 53.2153 68.1083 52.0263 67.5699C51.534 67.3711 51.0187 67.2346 50.4926 67.1635C49.0243 66.8978 46.1012 65.7624 44.6816 66.218C44.1576 66.3872 43.9509 66.8805 43.5166 67.1786C42.8568 67.6006 41.9814 67.7558 41.4345 68.3115Z" fill="#FDC80C"/>
<path d="M121.897 89.3746C120.15 88.6256 116.844 89.0845 114.931 89.0295C112.302 88.9674 109.524 89.2471 107.366 90.755C104.743 92.5918 103.537 95.9627 103.558 99.1688C103.578 102.375 104.654 105.466 105.805 108.459C106.446 110.147 107.122 111.82 107.346 113.598C107.346 113.598 84.4214 116.319 83.0376 117.435C81.6537 118.551 81.0353 120.784 82.0966 122.165C83.1579 123.545 116.274 124.931 120.634 124.007C120.999 124.017 121.353 123.881 121.618 123.629C121.883 123.377 122.037 123.031 122.047 122.665C122.487 120.091 122.842 117.513 123.08 114.914C123.206 113.575 123.297 112.236 123.39 110.894L124.381 96.6511C124.491 95.6489 124.478 94.637 124.34 93.6382C124.081 92.2826 123.28 89.9843 121.897 89.3746Z" fill="#FBBEBE"/>
<path d="M116.483 67.1786C116.049 66.8805 115.842 66.3872 115.318 66.218C113.899 65.7624 110.976 66.8978 109.507 67.1635C108.981 67.2346 108.466 67.3711 107.974 67.5699C106.785 68.1083 106.03 69.3162 105.578 70.5447C103.317 76.6843 107.005 83.6242 105.527 89.9983C105.192 91.4338 104.603 92.7969 104.193 94.2154C110.004 94.419 115.663 91.7202 121.457 92.1791C122.667 92.2722 124.028 92.6225 124.597 93.694C124.63 93.6696 124.662 93.6442 124.693 93.6177C124.884 93.4564 125.042 93.259 125.156 93.0368C125.271 92.8146 125.341 92.5719 125.362 92.3226C125.383 92.0733 125.355 91.8223 125.28 91.5839C125.204 91.3455 125.082 91.1244 124.921 90.9332C124.736 90.7656 124.566 90.582 124.414 90.3845C124.26 90.0875 124.183 89.7563 124.19 89.4216C123.762 82.557 122.116 75.8236 119.33 69.5368C119.161 69.0804 118.901 68.6635 118.565 68.3115C118.019 67.7558 117.143 67.6006 116.483 67.1786Z" fill="#FDC80C"/>
<path d="M75.0182 124.688C77.8715 124.688 80.1845 122.372 80.1845 119.515C80.1845 116.658 77.8715 114.342 75.0182 114.342C72.1649 114.342 69.8518 116.658 69.8518 119.515C69.8518 122.372 72.1649 124.688 75.0182 124.688Z" fill="#FBBEBE"/>
<path d="M86.4579 124.688C89.3112 124.688 91.6242 122.372 91.6242 119.515C91.6242 116.658 89.3112 114.342 86.4579 114.342C83.6046 114.342 81.2915 116.658 81.2915 119.515C81.2915 122.372 83.6046 124.688 86.4579 124.688Z" fill="#FBBEBE"/>
<path d="M118.348 131.171H47.3706C46.5419 131.17 45.7475 130.84 45.1615 130.254C44.5755 129.667 44.2459 128.872 44.2449 128.042V84.9266C44.2459 84.0969 44.5755 83.3015 45.1615 82.7148C45.7475 82.1281 46.5419 81.7981 47.3706 81.7971H118.348C119.177 81.7981 119.972 82.1281 120.558 82.7148C121.144 83.3015 121.473 84.0969 121.474 84.9266V128.042C121.473 128.872 121.144 129.667 120.558 130.254C119.972 130.84 119.177 131.17 118.348 131.171Z" fill="#3F3D56"/>
<path d="M82.6874 108.555C83.8295 108.555 84.7554 107.628 84.7554 106.484C84.7554 105.341 83.8295 104.414 82.6874 104.414C81.5453 104.414 80.6194 105.341 80.6194 106.484C80.6194 107.628 81.5453 108.555 82.6874 108.555Z" fill="white"/>
<path d="M63.0854 34.5515C60.0097 34.5515 57.5164 31.8522 57.5164 28.5224V25.5079C57.5164 22.1781 60.0097 19.4788 63.0854 19.4788L63.0854 34.5515Z" fill="#FDC80C"/>
<path d="M98.6306 19.479C101.706 19.479 104.2 22.1783 104.2 25.5081V28.5227C104.2 31.8525 101.706 34.5518 98.6306 34.5518V19.479Z" fill="#FDC80C"/>
<path d="M101.549 25.9817H100.665C100.665 13.85 91.5486 3.98003 80.3426 3.98003C69.1366 3.98003 60.0198 13.85 60.0198 25.9817H59.1362C59.1362 13.3225 68.6494 3.02344 80.3426 3.02344C92.0359 3.02344 101.549 13.3225 101.549 25.9817Z" fill="#FDC80C"/>
<path d="M80.6874 47.0742C91.259 47.0742 99.8291 38.4932 99.8291 27.9081C99.8291 17.3229 91.259 8.74194 80.6874 8.74194C70.1157 8.74194 61.5457 17.3229 61.5457 27.9081C61.5457 38.4932 70.1157 47.0742 80.6874 47.0742Z" fill="#F2F2F2"/>
<path d="M98.5659 11.3731C95.704 6.72001 91.2243 3.29131 85.9891 1.74703L83.6391 3.46408V1.23454C82.3819 1.04186 81.1093 0.967635 79.8382 1.01284L77.8108 2.84961V1.16544C74.809 1.53893 71.917 2.53113 69.3173 4.07947C66.7175 5.62781 64.4664 7.6987 62.7058 10.1616C58.303 16.5169 57.5597 25.3585 61.8903 31.7649C63.0789 28.1069 64.5218 24.6746 65.7108 21.017C66.6451 21.1445 67.5921 21.1491 68.5276 21.0306L69.9738 17.6516L70.3778 20.8876C74.8608 20.4967 81.5099 19.638 85.7596 18.8514L85.3462 16.3687L87.8187 18.4316C89.1206 18.1316 89.8937 17.8593 89.8299 17.6513C92.9906 22.7533 96.8587 26.0118 100.019 31.1138C101.22 23.9197 102.601 17.938 98.5659 11.3731Z" fill="#474747"/>
<path d="M121.856 77.1943C121.197 73.2293 120.519 69.1881 118.678 65.6162C117.468 63.2765 115.548 61.047 112.96 60.5844C112.45 60.5389 111.949 60.4227 111.471 60.2393C110.713 59.8735 100.521 54.048 98.901 53.0334C97.5101 52.1623 95.3145 50.5495 94.2074 50.5495C93.0937 50.525 88.8231 51.5202 72.1544 50.2156C72.1544 50.2156 67.5753 52.0228 64.0321 54.2142C63.9784 54.1787 46.7315 63.452 46.0835 63.4276C44.8564 63.3759 43.7159 64.1626 43.0124 65.1532C42.3091 66.1438 41.9792 67.3702 41.6338 68.5559C45.4008 76.9556 48.8474 85.3661 52.6148 93.7658C52.7912 94.0822 52.8849 94.4381 52.8873 94.8004C52.8115 95.1764 52.6513 95.5303 52.4186 95.835C50.5711 98.8065 50.6299 102.544 50.8317 106.036C51.0337 109.529 51.2834 113.218 49.7246 116.348C49.3006 117.208 48.7492 117.994 48.346 118.854C47.4016 120.8 47.0603 127.026 47.6119 129.117L116.718 131.1C115.232 127.01 121.856 77.1943 121.856 77.1943Z" fill="#AAAAAA"/>
<path d="M35.6604 94.1382C35.5225 95.137 35.5086 96.1489 35.619 97.1511L36.6095 111.394C36.7025 112.736 36.794 114.075 36.9198 115.414C37.1575 118.013 37.5125 120.591 37.9531 123.165C37.9631 123.531 38.1174 123.877 38.3823 124.129C38.6472 124.381 39.001 124.517 39.3661 124.507C43.7261 125.431 48.2308 125.394 52.6805 125.143C59.4706 124.763 76.8421 124.045 77.9034 122.665C78.9647 121.284 78.3462 119.051 76.9624 117.935C75.5785 116.819 52.6543 114.098 52.6543 114.098C52.8783 112.32 53.554 110.647 54.195 108.959C55.3464 105.966 56.4217 102.875 56.4424 99.6688C56.463 96.4627 55.2567 93.0918 52.6337 91.255C50.476 89.7471 47.6979 89.4674 45.0686 89.5295C43.1556 89.5846 39.8502 89.1256 38.1029 89.8746C36.7202 90.4843 35.9187 92.7826 35.6604 94.1382Z" fill="#EBEBEB"/>
<path d="M41.4345 68.8115C41.0988 69.1635 40.8385 69.5805 40.6696 70.0368C37.8836 76.3236 36.238 83.057 35.8099 89.9216C35.8174 90.2563 35.7403 90.5875 35.5859 90.8845C35.4335 91.082 35.264 91.2656 35.0792 91.4332C34.9181 91.6244 34.7962 91.8455 34.7204 92.0839C34.6447 92.3223 34.6165 92.5734 34.6377 92.8226C34.6588 93.0719 34.7288 93.3146 34.8436 93.5368C34.9584 93.759 35.1157 93.9564 35.3067 94.1178C35.3381 94.1442 35.3702 94.1696 35.4032 94.194C35.9719 93.1225 37.3332 92.7722 38.5432 92.6791C44.3369 92.2202 49.9963 94.919 55.8073 94.7154C55.3973 93.2969 54.8076 91.9338 54.4733 90.4983C52.9946 84.1242 56.6827 77.1843 54.4216 71.0447C53.97 69.8162 53.2153 68.6083 52.0263 68.0699C51.534 67.8711 51.0187 67.7346 50.4926 67.6635C49.0243 67.3978 46.1012 66.2624 44.6816 66.718C44.1576 66.8872 43.9509 67.3805 43.5166 67.6786C42.8568 68.1006 41.9814 68.2558 41.4345 68.8115Z" fill="#AAAAAA"/>
<path d="M121.897 89.8746C120.15 89.1256 116.844 89.5845 114.931 89.5295C112.302 89.4674 109.524 89.7471 107.366 91.255C104.743 93.0918 103.537 96.4627 103.558 99.6688C103.578 102.875 104.654 105.966 105.805 108.959C106.446 110.647 107.122 112.32 107.346 114.098C107.346 114.098 84.4214 116.819 83.0376 117.935C81.6537 119.051 81.0353 121.284 82.0966 122.665C83.1579 124.045 116.274 125.431 120.634 124.507C120.999 124.517 121.353 124.381 121.618 124.129C121.883 123.877 122.037 123.531 122.047 123.165C122.487 120.591 122.842 118.013 123.08 115.414C123.206 114.075 123.297 112.736 123.39 111.394L124.381 97.1511C124.491 96.1489 124.478 95.137 124.34 94.1382C124.081 92.7826 123.28 90.4843 121.897 89.8746Z" fill="#EBEBEB"/>
<path d="M116.483 67.6786C116.049 67.3805 115.842 66.8872 115.318 66.718C113.899 66.2624 110.976 67.3978 109.507 67.6635C108.981 67.7346 108.466 67.8711 107.974 68.0699C106.785 68.6083 106.03 69.8162 105.578 71.0447C103.317 77.1843 107.005 84.1242 105.527 90.4983C105.192 91.9338 104.603 93.2969 104.193 94.7154C110.004 94.919 115.663 92.2202 121.457 92.6791C122.667 92.7722 124.028 93.1225 124.597 94.194C124.63 94.1696 124.662 94.1442 124.693 94.1177C124.884 93.9564 125.042 93.759 125.156 93.5368C125.271 93.3146 125.341 93.0719 125.362 92.8226C125.383 92.5733 125.355 92.3223 125.28 92.0839C125.204 91.8455 125.082 91.6244 124.921 91.4332C124.736 91.2656 124.566 91.082 124.414 90.8845C124.26 90.5875 124.183 90.2563 124.19 89.9216C123.762 83.057 122.116 76.3236 119.33 70.0368C119.161 69.5804 118.901 69.1635 118.565 68.8115C118.019 68.2558 117.143 68.1006 116.483 67.6786Z" fill="#AAAAAA"/>
<path d="M75.0182 125.188C77.8715 125.188 80.1845 122.872 80.1845 120.015C80.1845 117.158 77.8715 114.842 75.0182 114.842C72.1649 114.842 69.8518 117.158 69.8518 120.015C69.8518 122.872 72.1649 125.188 75.0182 125.188Z" fill="#EBEBEB"/>
<path d="M86.4579 125.188C89.3112 125.188 91.6242 122.872 91.6242 120.015C91.6242 117.158 89.3112 114.842 86.4579 114.842C83.6046 114.842 81.2915 117.158 81.2915 120.015C81.2915 122.872 83.6046 125.188 86.4579 125.188Z" fill="#EBEBEB"/>
<path d="M118.348 131.671H47.3706C46.5419 131.67 45.7475 131.34 45.1615 130.754C44.5755 130.167 44.2459 129.372 44.2449 128.542V85.4266C44.2459 84.5969 44.5755 83.8015 45.1615 83.2148C45.7475 82.6281 46.5419 82.2981 47.3706 82.2971H118.348C119.177 82.2981 119.972 82.6281 120.558 83.2148C121.144 83.8015 121.473 84.5969 121.474 85.4266V128.542C121.473 129.372 121.144 130.167 120.558 130.754C119.972 131.34 119.177 131.67 118.348 131.671Z" fill="#585858"/>
<path d="M82.6874 109.055C83.8295 109.055 84.7554 108.128 84.7554 106.984C84.7554 105.841 83.8295 104.914 82.6874 104.914C81.5453 104.914 80.6194 105.841 80.6194 106.984C80.6194 108.128 81.5453 109.055 82.6874 109.055Z" fill="white"/>
<path d="M63.0852 35.0515C60.0095 35.0515 57.5161 32.3522 57.5161 29.0224V26.0079C57.5161 22.6781 60.0095 19.9788 63.0851 19.9788L63.0852 35.0515Z" fill="#AAAAAA"/>
<path d="M98.6306 19.979C101.706 19.979 104.2 22.6783 104.2 26.0081V29.0227C104.2 32.3525 101.706 35.0518 98.6306 35.0518V19.979Z" fill="#AAAAAA"/>
<path d="M101.549 26.4817H100.665C100.665 14.35 91.5486 4.48003 80.3426 4.48003C69.1366 4.48003 60.0198 14.35 60.0198 26.4817H59.1362C59.1362 13.8225 68.6494 3.52344 80.3426 3.52344C92.0359 3.52344 101.549 13.8225 101.549 26.4817Z" fill="#AAAAAA"/>
</g>
<defs>
<clipPath id="clip0_280_53">
<rect width="238" height="131" fill="white" transform="translate(-39 0.5)"/>
</clipPath>
</defs>
</svg>
