<svg width="24" height="24" viewBox="0 0 24 24" fill="none" xmlns="http://www.w3.org/2000/svg">
<g clip-path="url(#clip0_288_2174)">
<path fill-rule="evenodd" clip-rule="evenodd" d="M5.25581 7.57073C6.89425 6.22723 9.09934 5.25 11.55 5.25C14.0007 5.25 16.2058 6.22722 17.8442 7.5707C19.4664 8.90083 20.6182 10.6631 20.8432 12.3224C20.8477 12.3553 20.8499 12.3884 20.85 12.4217C20.8535 14.235 19.6457 16.0347 17.9768 17.3404C17.9456 17.3647 17.9143 17.389 17.8827 17.4131L17.2612 16.9412L16.6464 16.4583L15.7373 15.7848L15.1694 15.2871L14.5446 14.8349C14.6057 14.7844 14.6657 14.7322 14.7247 14.6782C16.0623 13.4542 16.085 11.3507 14.7739 10.103C12.9897 8.40525 10.1996 8.38495 8.39137 10.0421L7.80914 9.55971L7.20251 9.10396L6.45506 8.53432L5.82864 8.07195L5.25581 7.57073ZM7 10.6614L6.40044 10.1862L5.43583 9.44303L4.83919 8.98238L4.23173 8.53432C3.15964 9.69347 2.43087 11.0387 2.25681 12.3223C2.25235 12.3553 2.25007 12.3884 2.25001 12.4217C2.24643 14.235 3.45424 16.0347 5.12317 17.3404C6.8158 18.6646 9.11435 19.593 11.55 19.593C13.4358 19.593 15.2394 19.0364 16.7432 18.1706L16.1096 17.665L15.4266 17.1724L14.6386 16.5884L14 16.0804L13.3441 15.5557C11.7015 16.2315 9.75305 15.939 8.37529 14.6782C7.35435 13.744 7.09942 12.2974 7.61894 11.11L7 10.6614ZM9.88245 10.7279C10.3226 10.254 10.942 10.1282 11.55 10.1282C12.158 10.1282 12.7773 10.254 13.2175 10.7279C13.6447 11.1878 13.749 11.8138 13.749 12.4231C13.749 12.944 13.6728 13.477 13.3832 13.9078L12.7824 13.4553L12.1736 13L10.8838 12L10.2586 11.5L9.67653 11C9.73497 10.9043 9.80315 10.8132 9.88245 10.7279ZM11.2738 13.9532L10.1711 13.0951L9.35113 12.4648C9.35588 13.0608 9.46497 13.6688 9.88328 14.1177C10.3239 14.5905 10.9433 14.7148 11.55 14.7148C11.759 14.7148 11.9695 14.7001 12.1736 14.6614L11.2738 13.9532Z" fill="black"/>
<path fill-rule="evenodd" clip-rule="evenodd" d="M2.04094 4.3624C2.26888 4.06742 2.6928 4.01307 2.98778 4.24101L22.7877 19.541C23.0827 19.7689 23.1371 20.1928 22.9091 20.4878C22.6812 20.7828 22.2573 20.8371 21.9623 20.6092L2.16233 5.30924C1.86735 5.0813 1.813 4.65739 2.04094 4.3624Z" fill="black"/>
</g>
<defs>
<clipPath id="clip0_288_2174">
<rect width="24" height="24" fill="white"/>
</clipPath>
</defs>
</svg>
