<svg width="24" height="24" viewBox="0 0 24 24" fill="none" xmlns="http://www.w3.org/2000/svg">
<path fill-rule="evenodd" clip-rule="evenodd" d="M12 19C15.866 19 19 15.866 19 12C19 8.13401 15.866 5 12 5C8.13401 5 5 8.13401 5 12C5 15.866 8.13401 19 12 19ZM9.31307 9.31297C9.50833 9.11771 9.82491 9.11771 10.0202 9.31297L12 11.2927L13.9797 9.31297C14.175 9.11771 14.4916 9.11771 14.6868 9.31297C14.8821 9.50823 14.8821 9.82481 14.6868 10.0201L12.7071 11.9999L14.6868 13.9796C14.8821 14.1749 14.8821 14.4915 14.6868 14.6867C14.4916 14.882 14.175 14.882 13.9797 14.6867L12 12.707L10.0202 14.6867C9.82491 14.882 9.50833 14.882 9.31307 14.6867C9.11781 14.4915 9.11781 14.1749 9.31307 13.9796L11.2928 11.9999L9.31307 10.0201C9.11781 9.82481 9.11781 9.50823 9.31307 9.31297Z" fill="#020202"/>
</svg>
