<svg width="540" height="480" viewBox="0 0 540 480" fill="none" xmlns="http://www.w3.org/2000/svg">
<g clip-path="url(#clip0_40_359)">
<path d="M506.465 364H-91.465C-99.4797 364 -106 354.353 -106 342.494V40.5046C-106 28.6469 -99.4797 19 -91.465 19H506.465C514.48 19 521 28.6469 521 40.5046V342.494C521 354.353 514.48 364 506.465 364ZM-91.465 21.5638C-98.5239 21.5638 -104.267 30.0609 -104.267 40.5046V342.494C-104.267 352.939 -98.5239 361.436 -91.465 361.436H506.465C513.524 361.436 519.267 352.939 519.267 342.494V40.5046C519.267 30.0609 513.524 21.5638 506.465 21.5638H-91.465Z" fill="#666674"/>
<path d="M220.365 426.874C221.411 440.016 229.04 450.13 237.404 449.463C245.768 448.796 251.698 437.602 250.65 424.455C250.303 419.198 248.703 414.1 245.982 409.587L240.848 353.957L214.793 356.923L222.621 411.45C220.648 416.337 219.874 421.626 220.365 426.874Z" fill="#DBDBDB"/>
<path d="M189.24 167.338C189.24 167.338 213.595 154.445 225.945 173.712C238.295 192.978 246.818 401.352 246.818 401.352L212.589 405.007L206.1 258.171L189.24 167.338Z" fill="#E6E6E6"/>
<path d="M122.285 150.895L121.345 144.072L132.519 116.78L163.223 113.369L169.852 152.441L122.285 150.895Z" fill="#DBDBDB"/>
<path opacity="0.1" d="M122.285 150.895L121.345 144.072L132.519 116.78L163.223 113.369L169.852 152.441L122.285 150.895Z" fill="black"/>
<path d="M86.4642 343.645L72.8182 381.171L83.0527 401.64L134.225 698.44H168.246L161.517 435.755L239.981 698.44H273.653L246.576 521.042L226.335 357.291L214.059 349.706L154.694 316.353L86.4642 343.645Z" fill="#383838"/>
<path d="M173.457 369.231L152.988 372.642L125.696 307.824H187.103L173.457 369.231Z" fill="#E6E6E6"/>
<path d="M214.395 352.173L173.457 369.231L159.811 338.527L152.988 372.642L81.347 349.58L91.5815 307.824L81.347 171.364L117.475 147.279L122.285 144.072L166.634 147.484L170.523 149.599L197.338 164.541L204.161 277.12L214.395 352.173Z" fill="#383838"/>
<path d="M170.523 149.599L151.283 231.065L117.475 147.279L122.285 144.072L166.634 147.484L170.523 149.599Z" fill="#E6E6E6"/>
<path d="M137.637 144.072L130.814 155.823L137.637 159.74L134.225 231.277L147.871 249.828L161.517 222.41L151.283 159.74L154.694 144.072H137.637Z" fill="#383838"/>
<path d="M147.871 137.249C165.77 137.249 180.28 122.739 180.28 104.84C180.28 86.9411 165.77 72.431 147.871 72.431C129.972 72.431 115.462 86.9411 115.462 104.84C115.462 122.739 129.972 137.249 147.871 137.249Z" fill="#DBDBDB"/>
<path d="M127.159 107.683L134.162 110.739L137.218 92.4024C137.218 92.4024 149.443 86.2902 158.611 89.3463C167.779 92.4024 183.06 89.3463 183.06 89.3463C183.06 89.3463 183.06 58.785 161.667 58.785C140.274 58.785 118.881 61.8412 118.881 71.0095C118.881 80.1779 109.713 89.3463 109.713 89.3463C109.713 89.3463 97.4884 107.683 109.713 119.908C121.937 132.132 128.05 132.132 128.05 132.132L127.159 107.683Z" fill="#383838"/>
<path d="M64.2738 425.915C63.9184 439.094 70.4306 449.961 78.8181 450.185C87.2057 450.41 94.2908 439.909 94.6446 426.725C94.8581 421.46 93.8078 416.221 91.5814 411.446L92.382 355.585L66.16 355.768L68.1548 410.817C65.674 415.468 64.3431 420.645 64.2738 425.915Z" fill="#DBDBDB"/>
<path d="M96.7154 164.477C96.7154 164.477 74.5407 157.654 64.3062 178.123C54.0717 198.592 67.7177 406.693 67.7177 406.693H102.142L93.0054 259.999L96.7154 164.477Z" fill="#E6E6E6"/>
<path d="M373.032 330H327.968C324.396 330 321.5 332.94 321.5 336.566V355.434C321.5 359.06 324.396 362 327.968 362H373.032C376.604 362 379.5 359.06 379.5 355.434V336.566C379.5 332.94 376.604 330 373.032 330Z" fill="#4A4A4A"/>
<path d="M468.976 349H423.524C419.921 349 417 351.91 417 355.5V355.5C417 359.09 419.921 362 423.524 362H468.976C472.579 362 475.5 359.09 475.5 355.5V355.5C475.5 351.91 472.579 349 468.976 349Z" fill="#919191"/>
</g>
<defs>
<clipPath id="clip0_40_359">
<rect width="540" height="480" fill="white"/>
</clipPath>
</defs>
</svg>
