<svg width="160" height="148" viewBox="0 0 160 148" fill="none" xmlns="http://www.w3.org/2000/svg">
<g clip-path="url(#clip0_280_70)">
<path d="M113.014 49.1933C114.008 48.0781 113.619 46.3402 113.619 46.3402C113.619 46.3402 108.93 34.337 108.41 34.205C107.891 34.073 106.586 31.0453 106.586 31.0453C106.586 31.0453 94.0833 19.1071 93.6337 19.1071C93.1841 19.1071 88.6193 15.8098 88.0346 15.7447C87.4499 15.6797 86.5358 15.3488 85.5588 14.8154C84.5819 14.282 74.6826 14.8823 74.2922 15.3433C73.9017 15.8042 72.0718 16.1351 72.0718 16.1351C72.0718 16.1351 68.36 16.3321 67.8382 16.9919C67.3164 17.6517 63.477 18.0012 63.477 18.0012C63.477 18.0012 61.5878 18.7075 64.1523 20.5828C63.3308 20.713 62.3705 20.8133 61.3953 20.884C61.1511 20.9007 60.9032 20.9174 60.6552 20.9304H60.509C60.3453 20.4331 60.026 20.0021 59.5987 19.7018C59.3193 19.5495 59.0307 19.4147 58.7346 19.2985C58.276 19.0536 57.8465 18.7574 57.4541 18.4156C55.5558 16.8992 53.5301 15.551 51.3998 14.3861C51.071 14.1792 50.7042 14.0408 50.3211 13.979C49.5273 13.9028 48.8186 14.4623 48.0415 14.65C46.6759 14.979 45.2993 14.1426 43.8949 14.1296C42.1408 14.1128 40.5439 15.4845 40.0092 17.1759C39.8112 17.8023 39.7224 18.4993 39.295 18.9955C38.7399 19.6442 37.8018 19.739 37.0413 20.1238C36.4902 20.4125 36.0285 20.8473 35.7062 21.3811C35.3839 21.9149 35.2134 22.5272 35.2131 23.1515V23.1664C35.2131 23.2649 35.2131 23.3634 35.2298 23.4619C35.3168 24.2574 35.6831 24.9916 35.9514 25.7462C36.2271 26.5194 36.4013 27.3254 36.4695 28.1439C36.4704 28.1525 36.4704 28.1613 36.4695 28.1699C36.4806 28.3056 36.4899 28.4413 36.4954 28.5788C36.4954 28.6067 36.4954 28.6364 36.4954 28.6662C36.4954 28.7963 36.4954 28.9283 36.4954 29.0602C36.4954 29.7702 36.4714 30.4858 36.4732 31.1958V31.233V31.5546C36.4732 31.5806 36.4732 31.6066 36.4732 31.6326C36.4732 31.7274 36.4732 31.8185 36.4843 31.9189V32.0192C36.4843 32.1066 36.4973 32.1958 36.5065 32.2831C36.5065 32.3203 36.5065 32.3594 36.5158 32.3965C36.5158 32.482 36.5361 32.5657 36.5472 32.6493L36.5639 32.7683C36.5768 32.8519 36.5916 32.9355 36.6064 33.0192L36.6286 33.1344C36.6471 33.2236 36.6693 33.3203 36.6915 33.4021C36.7008 33.4337 36.7064 33.4634 36.7138 33.495C36.7471 33.6189 36.7841 33.7379 36.8248 33.8519C37.1018 34.6323 37.5592 35.3356 38.1595 35.9039C38.7597 36.4723 39.4856 36.8895 40.2775 37.1213C40.5757 37.2038 40.8842 37.2427 41.1934 37.2365C41.7485 37.2235 42.2796 37.0506 42.6089 36.6696C42.6903 36.7625 42.7699 36.8555 42.855 36.9484C44.0618 38.2668 45.5673 39.2734 47.2439 39.8829C48.9204 40.4925 50.7186 40.6869 52.4859 40.4498C54.2532 40.2127 55.9375 39.551 57.396 38.5209C58.8545 37.4907 60.0442 36.1225 60.8643 34.5321C61.0586 34.4894 61.251 34.4504 61.4453 34.4132C61.7821 34.35 62.1207 34.2905 62.4611 34.2273L62.7886 34.1753L62.9182 34.153C64.5835 33.889 66.2007 33.7125 67.359 33.5954L62.7812 34.166C62.7812 34.166 61.671 39.5208 61.3509 40.1137C61.0308 40.7066 62.4611 41.6954 62.4611 41.6954C62.4611 41.6954 63.699 43.2121 63.699 43.6749C63.699 44.1377 65.1312 45.4555 65.5216 46.1804C65.5712 46.2723 65.6335 46.3568 65.7066 46.4313C65.4176 46.5436 65.1507 46.7066 64.9184 46.9127C64.0136 47.7733 64.3152 49.2825 63.9007 50.4646C63.6416 51.2081 63.0995 51.8103 62.5777 52.3958C62.3903 52.5869 62.2331 52.8056 62.1114 53.0444C62.0436 53.2027 62.0017 53.3709 61.9875 53.5426C61.9782 53.6377 61.9745 53.7333 61.9764 53.8288V53.8623C61.9764 53.9366 61.9763 54.0091 61.9911 54.0816C61.9911 54.1132 61.9911 54.1448 61.9911 54.1764C62.0818 54.9533 62.3446 55.7042 62.4241 56.4811C62.5037 57.258 62.4075 58.0405 62.5666 58.797C62.6217 59.0608 62.7074 59.3172 62.8219 59.5609L60.1723 62.5348C60.1723 62.5348 60.1556 62.6816 60.1501 62.9233C57.9408 64.7652 54.5251 68.2409 55.7444 71.3058C55.8776 71.6416 56.001 71.9632 56.1145 72.2705C55.2171 72.8448 54.921 73.5269 56.2662 74.2072C56.479 74.315 56.6844 74.4079 56.8861 74.4916C57.5763 76.5268 57.8464 77.0937 59.0029 75.5938C59.1268 75.4302 59.2712 75.222 59.4284 74.9971C61.0567 74.9637 61.9986 74.2072 61.9986 74.2072C61.9986 74.2072 66.5559 73.9433 67.7346 74.67C68.3248 75.0418 69.7126 75.1161 70.9412 75.1068C70.9247 76.4364 70.9865 77.7658 71.1262 79.0881C71.1262 79.0881 70.9301 84.6938 71.4519 85.8815C71.9737 87.0692 72.2623 89.1137 72.2623 89.1137C72.2623 89.1137 71.3871 91.0913 71.9071 92.1471C72.427 93.2028 71.4519 94.7194 71.4519 94.7194V98.6096L71.822 98.5836C71.7942 98.8457 71.7591 99.1208 71.7128 99.3828C71.6055 99.9906 71.4445 100.535 71.1966 100.712C70.5452 101.182 70.4805 103.686 70.4805 103.686C70.4805 103.686 69.4387 106.721 69.633 107.249C69.8273 107.777 68.397 108.83 68.7227 109.622C69.0483 110.414 69.7144 115.425 70.2936 116.871C70.8728 118.317 69.1131 117.927 69.1131 117.927L69.633 121.685C69.633 121.685 70.1548 125.51 69.7644 125.774C69.374 126.038 67.1277 127.951 68.6727 129.071C68.793 129.159 68.9151 129.239 69.0428 129.315C69.0496 129.488 69.0453 129.662 69.0298 129.835C69.0002 130.131 68.9262 130.367 68.7615 130.393C68.3026 130.46 67.3904 130.921 67.198 130.724C67.0056 130.527 65.9028 131.222 64.7926 131.449L64.639 131.473L63.1976 131.101C61.1121 130.303 58.8228 130.218 56.6844 130.859C56.6844 130.859 55.639 131.023 55.132 131.807C54.8748 132.209 54.7619 132.774 54.9913 133.562C55.6871 135.893 60.4295 136.696 60.4295 136.696C60.4295 136.696 62.0726 137.036 64.0469 137.485C63.9821 137.485 63.9155 137.485 63.8489 137.485C63.304 137.482 62.7775 137.683 62.3733 138.05C61.9691 138.417 61.7165 138.923 61.6655 139.468C61.6146 140.013 61.7688 140.558 62.0978 140.994C62.4269 141.43 62.9068 141.727 63.4428 141.825C63.9789 141.923 64.5322 141.816 64.9934 141.525C65.4547 141.233 65.7904 140.779 65.9343 140.251C66.0783 139.723 66.0199 139.16 65.7709 138.673C65.5218 138.186 65.1001 137.811 64.589 137.621C66.8094 138.134 69.2685 138.759 70.2677 139.199C71.0116 139.481 71.7739 139.71 72.5492 139.887C72.5874 140.348 72.7712 140.785 73.0737 141.134C73.3763 141.483 73.7818 141.726 74.2314 141.828C74.681 141.93 75.1511 141.884 75.5733 141.699C75.9956 141.514 76.3479 141.198 76.5792 140.798C79.6008 141.431 82.5113 141.969 82.5113 141.969L87.3722 142.049H87.4055C86.8326 142.052 86.2846 142.284 85.8816 142.693C85.4786 143.102 85.2534 143.655 85.2554 144.231C85.2574 144.806 85.4863 145.357 85.8921 145.763C86.2979 146.17 86.8474 146.398 87.4203 146.398C87.9932 146.398 88.5427 146.17 88.9485 145.763C89.3542 145.357 89.5832 144.806 89.5851 144.231C89.5871 143.655 89.3619 143.102 88.9589 142.693C88.5559 142.284 88.0079 142.052 87.4351 142.049L94.7938 142.169C94.7055 142.47 94.6828 142.787 94.7272 143.097C94.7716 143.407 94.8821 143.705 95.0511 143.968C95.2202 144.232 95.4439 144.456 95.7069 144.625C95.9699 144.794 96.2661 144.904 96.5753 144.948C96.8845 144.991 97.1994 144.967 97.4986 144.878C97.7978 144.788 98.0742 144.635 98.309 144.428C98.5438 144.221 98.7315 143.966 98.8593 143.68C98.9871 143.394 99.052 143.083 99.0496 142.77C99.0493 142.59 99.0269 142.412 98.983 142.238L105.474 142.344L106.769 140.913C106.842 140.774 106.885 140.621 106.897 140.465C106.936 139.995 106.693 139.281 105.035 138.978C104.913 138.956 101.531 139.01 98.5426 139.06V137.881C98.5426 137.881 98.4594 137.233 98.4076 136.469C98.3928 136.244 98.3798 136.01 98.3742 135.779C98.5433 135.896 98.7311 135.982 98.9293 136.034C100.167 136.233 101.86 132.605 101.86 132.605C101.86 132.605 101.86 130.56 102.251 128.911C102.641 127.263 103.361 121.722 103.361 121.722L104.926 115.063C104.926 115.063 105.574 101.476 105.248 100.948C104.923 100.42 105.641 99.4962 105.641 99.4962C105.641 99.4962 106.16 96.5948 105.38 95.606C104.599 94.6172 105.835 93.6265 105.835 93.6265C105.835 93.6265 106.16 90.1973 105.248 88.8795C104.336 87.5617 105.676 86.638 105.676 86.638L106.001 81.2962C107.369 79.9115 108.605 71.6683 108.671 69.8877C108.688 68.8854 108.91 67.8972 109.323 66.9844C109.323 66.9844 110.233 65.5997 110.364 64.676C110.496 63.7522 111.475 61.8415 111.475 61.8415L113.168 55.509C113.85 52.9552 113.676 51.0668 113.223 49.7211C113.157 49.5316 113.086 49.3587 113.014 49.1933ZM82.4262 49.565C83.468 50.2248 83.1423 50.4219 83.468 50.8178C83.7936 51.2137 83.5327 51.1467 83.2718 51.8066C83.0109 52.4664 83.2071 52.2694 83.3366 52.9943C83.4661 53.7191 83.4032 53.7191 83.4032 53.7191L83.7289 53.7656L83.2755 56.8268C82.5354 57.3119 82.1968 58.2413 82.0432 59.2003C81.6065 58.6279 81.1661 58.0331 80.772 57.4792C80.9071 57.1763 80.8812 56.8157 80.8849 56.4755C80.8997 55.3603 81.3142 54.2953 81.5048 53.1968C81.6994 52.0794 81.6635 50.9337 81.3993 49.8308C81.3044 49.4158 81.1584 49.0143 80.9645 48.6357C81.3863 48.9182 81.9211 49.2528 82.4262 49.5725V49.565ZM83.5975 114.196C83.5975 114.196 84.4209 113.639 85.2202 113.131C85.4885 115.089 85.742 117.124 85.9215 118.964C85.6347 118.324 85.4349 117.89 85.4349 117.89C85.1411 117.535 84.9652 117.097 84.9316 116.637C84.9001 115.919 83.5975 114.204 83.5975 114.204V114.196ZM78.7145 46.4071C78.8995 46.4332 79.1622 46.6692 79.4102 46.9517C79.1807 46.7659 78.9495 46.58 78.7126 46.4053L78.7145 46.4071ZM66.7965 70.8077C66.0452 71.0456 63.4992 71.0103 61.9856 70.9211C62.5518 69.949 63.1143 68.9602 63.6139 68.0736C63.9085 68.1502 64.2085 68.2043 64.5113 68.2353L69.4683 63.8619C71.333 64.5188 73.3668 64.5057 75.2229 63.8247L75.358 64.0366C75.4153 64.1295 75.4764 64.2225 75.543 64.3265L75.419 64.124C75.419 64.124 73.5058 65.2689 73.7001 65.7967C73.8943 66.3246 73.441 67.6424 72.7249 69.055C72.5399 69.4081 72.3789 69.7576 72.2235 70.1089C70.6026 70.2613 67.5477 70.5698 66.7965 70.8077ZM76.2017 131.742L76.174 131.22C76.4885 131.151 76.6957 131.088 76.6957 131.088C76.6307 130.313 76.522 129.542 76.3701 128.779C76.174 127.988 76.2757 128.252 77.0381 127.664C77.8004 127.077 77.0381 120.415 77.0381 120.415C77.0381 120.415 77.4081 119.953 77.9947 121.14C78.5812 122.328 79.1696 123.053 79.3658 123.118C79.5619 123.183 78.5831 124.505 79.3658 125.757C79.8517 126.568 80.1825 127.462 80.3409 128.395C80.3409 128.395 79.821 130.489 80.6018 131.421C80.7073 131.529 80.833 131.616 80.9719 131.675C80.9719 131.848 80.9719 132.032 80.9719 132.205C80.9719 132.553 80.9719 132.85 80.9552 132.913C80.9476 132.958 80.9287 133 80.9003 133.035C80.8719 133.07 80.835 133.097 80.7931 133.113C80.7512 133.13 80.7057 133.135 80.6612 133.129C80.6167 133.122 80.5745 133.104 80.5389 133.077C80.3372 132.945 79.0586 133.24 79.1456 134.067C78.8432 134.426 78.5005 134.749 78.1242 135.028L76.3497 134.567L76.2017 131.742Z" fill="url(#paint0_linear_280_70)"/>
<path d="M60.2205 63.4158C60.2205 63.4158 59.6006 68.5178 64.5169 69.0401L65.2571 65.5086L63.7083 63.4158L61.4898 62.6611L60.2205 63.4158Z" fill="#AAAAAA"/>
<path opacity="0.1" d="M61.4898 62.6611L60.2205 63.4139C60.2205 63.4139 59.6006 68.5159 64.5169 69.0382" fill="#020202"/>
<path d="M69.1408 34.5675C69.1408 34.5675 65.8231 34.7719 62.4962 35.3258C62.1558 35.3841 61.8171 35.446 61.4804 35.5117C61.2842 35.5489 61.0918 35.5879 60.8994 35.6306C59.1564 35.9912 57.5688 36.4596 56.6436 37.0581C55.5334 37.7737 55.1633 35.8462 55.1282 33.1679C55.1134 32.2256 55.1448 31.1921 55.1948 30.1476C55.2596 28.9394 55.3539 27.7164 55.4538 26.6161C55.674 24.1775 55.9275 22.2817 55.9275 22.2817C55.9275 22.2817 57.0895 22.2817 58.642 22.2278L59.1416 22.2092C59.6282 22.1906 60.1444 22.1646 60.6644 22.133C60.9105 22.12 61.1584 22.1051 61.4045 22.0865C62.3889 22.0159 63.3603 21.9155 64.18 21.7854C65.0534 21.6442 65.762 21.4657 66.1469 21.2278C67.9047 20.1758 69.1408 34.5675 69.1408 34.5675Z" fill="#EDE5E6"/>
<path d="M83.9231 53.4069L83.2755 57.7246C83.2755 57.7246 81.8637 59.4903 82.0487 60.4717C82.2337 61.4531 83.862 104.823 83.862 104.823C83.862 104.823 87.0539 123.138 85.9455 125.493C84.8372 127.848 85.8807 133.344 85.8807 133.344L92.5234 132.298L94.7438 52.2285L83.9231 53.4069Z" fill="#666666"/>
<path opacity="0.1" d="M83.9231 53.4069L83.2755 57.7246C83.2755 57.7246 81.8637 59.4903 82.0487 60.4717C82.2337 61.4531 83.862 104.823 83.862 104.823C83.862 104.823 87.0539 123.138 85.9455 125.493C84.8372 127.848 85.8807 133.344 85.8807 133.344L92.5234 132.298L94.7438 52.2285L83.9231 53.4069Z" fill="#020202"/>
<path d="M98.5759 134.456C98.3649 134.807 98.3816 135.841 98.4408 136.72C98.4926 137.476 98.5759 138.119 98.5759 138.119V142.567C98.5759 142.567 91.478 140.082 87.5701 137.465C85.9585 136.385 85.4996 135.382 85.5884 134.579C85.7179 133.436 86.9576 132.69 87.5701 132.69C88.1548 132.69 90.0014 131.666 91.515 130.761C92.7048 130.053 93.6928 129.419 93.6928 129.419C93.6928 129.419 98.9663 133.802 98.5759 134.456Z" fill="#ADADAD"/>
<path opacity="0.1" d="M98.576 134.456C98.3651 134.807 98.3817 135.841 98.4409 136.72C96.8626 135.976 91.9759 131.214 91.5151 130.761C92.7049 130.053 93.693 129.419 93.693 129.419C93.693 129.419 98.9664 133.802 98.576 134.456Z" fill="#020202"/>
<path d="M113.164 56.416L111.471 62.6965C111.471 62.6965 110.494 64.5923 110.361 65.5086C110.228 66.4249 109.319 67.7985 109.319 67.7985C108.908 68.7026 108.686 69.6819 108.668 70.6757C108.603 72.4433 107.372 80.6196 105.998 81.9931L105.672 87.2922C105.672 87.2922 104.377 88.2066 105.282 89.5226C106.186 90.8385 105.868 94.2324 105.868 94.2324C105.868 94.2324 104.63 95.2138 105.413 96.1952C106.196 97.1766 105.672 100.056 105.672 100.056C105.672 100.056 104.956 100.97 105.282 101.494C105.607 102.018 104.96 115.494 104.96 115.494L103.394 122.099C103.394 122.099 102.676 127.595 102.284 129.231C101.892 130.867 101.894 132.893 101.894 132.893C101.894 132.893 100.201 136.491 98.9627 136.296C97.7249 136.101 91.7353 130.211 91.7353 130.211L92.5809 110.323C92.5809 110.323 93.297 101.885 92.8418 100.249C92.3867 98.6133 92.061 90.437 92.061 90.437L91.1488 77.5509L82.0414 63.1593C82.0414 63.1593 81.3809 58.9717 83.2682 57.7301L83.6105 55.4681L83.9195 53.4124L94.731 52.234L111.271 47.9182C111.271 47.9182 112.546 48.7081 113.214 50.6802C113.671 52.0091 113.847 53.8827 113.164 56.416Z" fill="#666666"/>
<path d="M84.3857 63.033C84.3857 63.033 76.7012 72.5122 77.0269 69.8636C77.2304 68.2001 76.1795 66.1686 75.3616 64.8843C74.8787 64.1204 74.479 63.6204 74.479 63.6204C74.479 63.6204 79.1677 54.9869 79.4286 56.1634C79.5119 56.5351 80.054 57.3883 80.7516 58.3622C82.2226 60.403 84.3857 63.033 84.3857 63.033Z" fill="#F4F4F4"/>
<path opacity="0.3" d="M98.5759 141.641V142.571C98.5759 142.571 91.478 140.086 87.5701 137.469C85.9585 136.389 85.4996 135.385 85.5884 134.582C87.7459 135.679 91.7592 137.77 92.9749 138.712C94.0074 139.511 96.6756 140.777 98.5759 141.641Z" fill="white"/>
<path d="M96.9051 145.171C98.1038 145.171 99.0755 144.195 99.0755 142.991C99.0755 141.787 98.1038 140.811 96.9051 140.811C95.7064 140.811 94.7346 141.787 94.7346 142.991C94.7346 144.195 95.7064 145.171 96.9051 145.171Z" fill="#666666"/>
<path d="M74.7344 142.11C75.9331 142.11 76.9048 141.134 76.9048 139.93C76.9048 138.726 75.9331 137.75 74.7344 137.75C73.5357 137.75 72.564 138.726 72.564 139.93C72.564 141.134 73.5357 142.11 74.7344 142.11Z" fill="#666666"/>
<path d="M106.93 140.705C106.918 140.86 106.875 141.011 106.803 141.149L105.507 142.567L87.4037 142.275L82.5354 142.195C82.5354 142.195 72.2883 140.322 70.2918 139.448C68.2953 138.575 60.4462 136.976 60.4462 136.976C60.4462 136.976 55.7056 136.177 55.0099 133.867C54.7749 133.084 54.8933 132.525 55.1505 132.127C55.6557 131.348 56.7029 131.185 56.7029 131.185C58.8422 130.55 61.1293 130.635 63.2161 131.426L93.5616 139.268L94.0316 139.389C94.0316 139.389 104.849 139.186 105.067 139.225C106.727 139.53 106.969 140.238 106.93 140.705Z" fill="#AAAAAA"/>
<path opacity="0.3" d="M106.93 140.705C105.11 140.467 101.934 140.115 101.116 140.454C101.116 140.454 95.3416 139.736 87.3963 142.275L82.5354 142.195C82.5354 142.195 72.2883 140.322 70.2918 139.448C68.2953 138.575 60.4462 136.976 60.4462 136.976C60.4462 136.976 55.7056 136.177 55.0099 133.867C54.7749 133.084 54.8933 132.525 55.1505 132.127C55.4743 133.075 56.0979 134.448 57.0934 134.833C58.6569 135.437 65.0831 136.668 65.0831 136.668L77.8023 139.796C77.8023 139.796 85.1463 141.396 88.005 140.353C89.1763 139.93 91.3745 139.552 93.556 139.257L94.026 139.378C94.026 139.378 104.843 139.175 105.061 139.214C106.727 139.53 106.969 140.238 106.93 140.705Z" fill="white"/>
<path d="M89.365 138.35C89.3496 138.624 89.3156 138.896 89.2633 139.166C89.2633 139.166 82.0692 139.424 78.3241 138.866C77.2898 138.712 76.7051 138.38 76.4146 137.982C76.2849 137.794 76.2045 137.576 76.1809 137.349C76.1573 137.121 76.1912 136.891 76.2795 136.681C76.3209 136.56 76.3735 136.443 76.4368 136.331C76.7162 135.841 77.1454 135.493 77.3804 135.539C78.0318 135.671 79.1494 134.329 79.1494 134.329C79.0605 133.51 80.3428 133.214 80.5426 133.348C80.5783 133.376 80.6204 133.394 80.665 133.4C80.7095 133.406 80.7549 133.401 80.7968 133.385C80.8387 133.368 80.8757 133.341 80.9041 133.306C80.9325 133.271 80.9514 133.229 80.959 133.185C80.9719 133.123 80.9756 132.828 80.9756 132.482C80.9756 131.906 80.959 131.181 80.959 131.181L88.1901 132.064L88.4769 133.452C88.7396 134.69 89.106 136.391 89.2633 136.973C89.3726 137.423 89.407 137.888 89.365 138.35Z" fill="#666666"/>
<path opacity="0.1" d="M89.365 138.35C89.3496 138.624 89.3156 138.897 89.2633 139.166C89.2633 139.166 82.0692 139.424 78.3241 138.867C77.2898 138.712 76.7051 138.38 76.4146 137.982C77.3749 137.924 78.6238 137.893 79.3973 138.082C80.5001 138.357 87.0965 138.357 89.365 138.35Z" fill="#020202"/>
<path d="M76.4293 136.328C76.4371 136.395 76.4267 136.463 76.3989 136.524C76.3712 136.586 76.3274 136.639 76.272 136.677C75.3616 137.383 70.993 136.616 70.993 136.616C70.993 136.616 62.067 136.058 60.7329 135.144C60.6125 135.064 60.5118 134.958 60.4387 134.833C59.8836 133.826 61.8931 132.134 62.067 132.134C62.2409 132.134 64.6408 131.805 64.8018 131.774C65.912 131.549 67.0222 130.857 67.2072 131.054C67.3922 131.252 68.3174 130.792 68.7689 130.727C68.9336 130.703 69.0094 130.469 69.0372 130.17C69.0632 129.765 69.0496 129.358 68.9965 128.956L76.1258 130.883L76.1887 132.025L76.3941 135.824L76.42 136.29C76.4245 136.302 76.4276 136.315 76.4293 136.328Z" fill="#666666"/>
<path opacity="0.1" d="M71.0003 136.616C71.0003 136.616 62.0743 136.058 60.7402 135.144C60.6198 135.064 60.5192 134.958 60.446 134.833C62.2538 134.982 65.268 135.233 65.812 135.372C66.5947 135.558 70.9929 135.829 70.9929 135.829H76.4015L76.4274 136.296C76.6624 137.612 71.0003 136.616 71.0003 136.616Z" fill="#020202"/>
<path d="M63.8655 142.11C65.0642 142.11 66.0359 141.134 66.0359 139.93C66.0359 138.726 65.0642 137.75 63.8655 137.75C62.6668 137.75 61.6951 138.726 61.6951 139.93C61.6951 141.134 62.6668 142.11 63.8655 142.11Z" fill="#666666"/>
<path d="M87.4387 146.636C88.6374 146.636 89.6092 145.66 89.6092 144.456C89.6092 143.252 88.6374 142.275 87.4387 142.275C86.24 142.275 85.2683 143.252 85.2683 144.456C85.2683 145.66 86.24 146.636 87.4387 146.636Z" fill="#666666"/>
<path d="M65.3643 65.7709C65.3643 65.7709 64.9535 66.5143 64.3355 67.6184C62.8552 70.2428 60.1926 74.895 59.0473 76.3671C57.419 78.46 57.5503 76.4991 55.7907 72.1163C54.4843 68.8562 58.5051 65.1259 60.6552 63.4308C61.3953 62.8416 61.9134 62.5015 61.9134 62.5015L65.3643 65.7709Z" fill="#EDE5E6"/>
<path d="M73.243 70.8076C73.243 70.8076 67.8382 71.2648 66.7964 71.592C65.7547 71.9191 61.2621 71.7221 60.8754 71.592C60.4886 71.4619 52.7987 73.2276 56.3161 74.9933C59.8336 76.7591 62.0522 74.9933 62.0522 74.9933C62.0522 74.9933 66.6114 74.7313 67.7882 75.4524C68.965 76.1736 73.2578 75.7795 73.2578 75.7795L73.243 70.8076Z" fill="#F4F4F4"/>
<path opacity="0.1" d="M62.0152 30.774C62.6813 32.4859 62.265 33.9765 61.4804 35.5062C59.5154 35.8779 57.6669 36.3891 56.6381 37.0526C53.7072 38.9503 55.922 22.2688 55.922 22.2688C55.922 22.2688 57.3394 22.2688 59.1361 22.1963C58.5921 24.6906 60.6533 27.2797 62.0152 30.774Z" fill="#020202"/>
<path d="M62.1818 30.4023C62.1783 33.1421 61.1709 35.7847 59.3517 37.8261C57.5326 39.8675 55.0289 41.1648 52.3184 41.4704C49.6079 41.7761 46.8803 41.0688 44.6557 39.4835C42.4312 37.8981 40.8655 35.5456 40.2573 32.8748C39.6491 30.204 40.041 27.4017 41.3582 25.0026C42.6753 22.6034 44.8256 20.7753 47.3989 19.8669C49.9721 18.9585 52.7882 19.0334 55.31 20.0774C57.8317 21.1213 59.8827 23.0612 61.0716 25.527C61.8043 27.0467 62.1839 28.7137 62.1818 30.4023Z" fill="#EDE5E6"/>
<path opacity="0.1" d="M113.218 50.6746C112.866 51.1884 112.34 51.5553 111.737 51.7061C109.197 52.4254 91.2874 56.7431 90.1161 56.481C89.0818 56.2506 84.6429 55.6093 83.6196 55.4625L83.9286 53.4068L94.7401 52.2284L111.28 47.9126C111.28 47.9126 112.55 48.7025 113.218 50.6746Z" fill="#020202"/>
<path opacity="0.1" d="M69.1408 34.5675C67.0239 34.6949 64.9149 34.9306 62.8219 35.2737C62.8516 35.1781 62.8477 35.075 62.8108 34.9819L67.1406 34.4448C67.1406 34.4448 66.5078 24.2221 64.18 21.7724C65.0534 21.6311 65.7621 21.4527 66.1469 21.2148C67.9048 20.1758 69.1408 34.5675 69.1408 34.5675Z" fill="#020202"/>
<path d="M63.4769 19.2149C63.4769 19.2149 67.32 18.8674 67.8399 18.2131C68.3599 17.5589 72.0735 17.3637 72.0735 17.3637C72.0735 17.3637 73.8961 17.0366 74.2939 16.5775C74.6917 16.1184 84.5818 15.5311 85.5587 16.0552C86.5357 16.5793 87.4479 16.9046 88.0345 16.9715C88.621 17.0384 93.1784 20.306 93.6336 20.306C94.0888 20.306 106.586 32.1475 106.586 32.1475C106.586 32.1475 107.881 35.1567 108.41 35.2868C108.94 35.4169 113.621 47.3235 113.621 47.3235C113.621 47.3235 114.272 50.2007 111.734 50.9219C109.195 51.6431 91.2837 55.9589 90.1124 55.6968C88.9411 55.4347 83.4049 54.6504 83.4049 54.6504C83.4049 54.6504 83.4697 54.6504 83.3402 53.9311C83.2107 53.2118 83.0145 53.4069 83.2736 52.7527C83.5326 52.0984 83.7954 52.1635 83.4697 51.7713C83.144 51.3791 83.4697 51.1821 82.428 50.5279C81.3862 49.8736 80.2076 49.1543 80.1484 48.9592C80.0891 48.764 79.1714 47.4536 78.7162 47.3886C78.261 47.3235 65.4956 43.7251 65.4956 43.7251L62.4999 42.7438C62.4999 42.7438 61.0677 41.7624 61.3897 41.1751C61.7116 40.5877 62.82 35.2738 62.82 35.2738L67.3996 34.7069C67.3996 34.7069 66.7168 23.6293 64.1522 21.7706C61.5877 19.9119 63.4769 19.2149 63.4769 19.2149Z" fill="#AAAAAA"/>
<path opacity="0.1" d="M65.3644 65.7709C65.3644 65.7709 64.9536 66.5143 64.3356 67.6184C64.2394 64.2059 61.8635 63.5442 60.6553 63.4308C61.3954 62.8416 61.9135 62.5015 61.9135 62.5015L65.3644 65.7709Z" fill="#020202"/>
<path d="M62.1817 40.978L62.4963 42.7438C62.4963 42.7438 63.7341 44.2493 63.7341 44.7065C63.7341 45.1637 65.1663 46.4722 65.5586 47.1915C65.9508 47.9108 67.3164 48.0428 66.7946 49.2863C66.2728 50.5297 63.279 60.0145 63.279 60.0145L60.2185 63.4158C60.2185 63.4158 65.2977 62.9567 64.515 69.0402L71.0929 63.2783L76.2442 53.8642C76.2442 53.8642 71.2298 44.3143 71.0355 43.53C70.8413 42.7456 62.1817 40.978 62.1817 40.978Z" fill="#AAAAAA"/>
<path opacity="0.1" d="M77.4119 44.2493C77.4119 44.2493 81.5788 41.3052 81.5788 40.9781C81.5788 40.6509 77.4119 44.2493 77.4119 44.2493Z" fill="#020202"/>
<path opacity="0.1" d="M84.3857 47.9127C84.3857 47.9127 86.6061 47.3886 86.7912 46.2121C86.9762 45.0355 84.3857 47.9127 84.3857 47.9127Z" fill="#020202"/>
<path opacity="0.1" d="M86.2026 50.9219C86.2026 50.9219 89.3297 49.3662 89.1983 49.0967C89.067 48.8272 86.2026 50.9219 86.2026 50.9219Z" fill="#020202"/>
<path opacity="0.1" d="M102.939 40.9575C102.939 40.9575 101.644 41.8069 102.029 42.6024C102.414 43.3979 102.939 40.9575 102.939 40.9575Z" fill="#020202"/>
<path opacity="0.1" d="M106.775 41.3052C106.775 41.3052 103.085 44.8366 103.92 44.9035C104.754 44.9705 106.775 41.3052 106.775 41.3052Z" fill="#020202"/>
<path opacity="0.1" d="M98.3816 96.0576C98.3816 96.0576 103.135 96.9739 103.265 97.3011C103.394 97.6282 98.3816 96.0576 98.3816 96.0576Z" fill="#020202"/>
<path opacity="0.1" d="M100.075 99.197C100.075 99.197 102.613 100.768 102.678 101.225C102.743 101.682 100.075 99.197 100.075 99.197Z" fill="#020202"/>
<path opacity="0.1" d="M99.488 102.73C99.488 102.73 99.8785 104.496 100.53 104.758C101.181 105.02 99.488 102.73 99.488 102.73Z" fill="#020202"/>
<path opacity="0.1" d="M61.0826 25.4692C61.0826 25.4878 61.0826 25.5083 61.0733 25.5269C60.9845 26.1086 60.7477 26.7387 60.2037 26.932C59.875 27.0249 59.5237 26.9924 59.2174 26.8409C58.2923 26.4339 57.4689 25.4562 56.4808 25.6923C56.0108 25.8038 55.6814 26.1625 55.4483 26.603C55.2867 26.9201 55.1625 27.2551 55.0782 27.6011C54.8932 28.3297 54.7452 29.1215 55.0283 29.8148C55.0748 29.9282 55.1305 30.0376 55.1948 30.1419C55.4576 30.5638 55.8276 30.9226 56.0867 31.3482C56.4086 31.8798 56.4919 32.6771 55.9904 33.0414C55.8646 33.1245 55.722 33.1784 55.5729 33.1993C55.4237 33.2202 55.2718 33.2076 55.1282 33.1623C54.7609 33.0463 54.4077 32.8892 54.0754 32.6939C53.4203 32.35 52.5951 32.1363 51.9734 32.534C51.7587 32.6678 51.5867 32.8611 51.3813 33.0024C50.9544 33.268 50.4479 33.3739 49.951 33.3017C48.7741 33.1808 48.3338 32.4318 47.4345 31.8519C46.7758 31.4244 45.3991 31.2423 45.0069 32.1158C44.7552 32.6734 45.129 33.376 44.8829 33.9447C44.6368 34.5135 43.8541 34.6882 43.4914 35.2161C43.0141 35.9112 43.4581 36.9168 43.1084 37.6881C43.0549 37.8076 42.9831 37.918 42.8956 38.0152C40.9348 35.8929 39.8698 33.0894 39.9244 30.1945C39.979 27.2995 41.149 24.5387 43.1884 22.4924C45.2279 20.4462 47.9778 19.2742 50.8598 19.2227C53.7418 19.1713 56.5315 20.2444 58.642 22.2166L59.1416 22.198C59.6282 22.1794 60.1444 22.1534 60.6644 22.1218C60.7873 22.3833 60.8834 22.6567 60.9512 22.9377C61.1525 23.7658 61.1971 24.6246 61.0826 25.4692Z" fill="#020202"/>
<path d="M44.7422 31.8556C44.4887 32.4132 44.8625 33.1158 44.6182 33.6827C44.374 34.2496 43.5858 34.4261 43.2268 34.954C42.7476 35.651 43.1916 36.6565 42.8438 37.426C42.4441 38.3052 41.2377 38.4427 40.3125 38.1862C39.5221 37.9595 38.7968 37.5471 38.1964 36.9832C37.5961 36.4192 37.1379 35.7198 36.8598 34.9428C36.2325 33.1492 36.6378 31.1753 36.4749 29.2814C36.4056 28.4697 36.2314 27.6706 35.9568 26.9041C35.6885 26.1607 35.3222 25.4283 35.2352 24.6384C35.173 23.9682 35.3121 23.2946 35.6347 22.7045C35.9572 22.1145 36.4484 21.635 37.0448 21.3281C37.8072 20.9564 38.7453 20.8504 39.3004 20.2129C39.726 19.7185 39.8166 19.029 40.0146 18.4063C40.5494 16.7335 42.1462 15.3692 43.9003 15.386C45.3029 15.3971 46.6758 16.2279 48.0469 15.9008C48.8222 15.715 49.5272 15.1574 50.3265 15.2373C50.7094 15.2978 51.0762 15.4349 51.4053 15.6406C53.5334 16.7953 55.5584 18.1323 57.4577 19.6367C57.8506 19.9766 58.2808 20.2703 58.74 20.5122C59.0357 20.6279 59.3242 20.7614 59.6041 20.9118C60.2017 21.2835 60.5144 21.9917 60.6847 22.6794C60.889 23.507 60.9355 24.3659 60.8216 25.2109C60.7402 25.8075 60.507 26.4766 59.9427 26.6755C59.613 26.7679 59.2609 26.7341 58.9546 26.5807C58.0294 26.1774 57.2079 25.1997 56.2198 25.4339C55.4131 25.6198 55.0245 26.538 54.8136 27.3428C54.6285 28.0714 54.4768 28.8632 54.7636 29.5583C55.0005 30.1345 55.5037 30.5564 55.8202 31.0898C56.1366 31.6233 56.2272 32.4206 55.7239 32.7831C55.1688 33.1864 54.4157 32.7571 53.807 32.4374C53.1557 32.0935 52.3267 31.8798 51.7069 32.2757C51.4941 32.4095 51.322 32.6028 51.1148 32.7459C50.6875 33.0089 50.1824 33.1141 49.6863 33.0433C48.5076 32.9225 48.0673 32.1734 47.1698 31.5935C46.5093 31.1623 45.1363 30.9802 44.7422 31.8556Z" fill="#666666"/>
<path opacity="0.1" d="M80.7536 58.3528C80.7036 58.6316 80.3225 58.6632 80.2447 58.9346C79.5046 61.5572 77.8763 63.9158 75.3636 64.8823C74.8806 64.1184 74.481 63.6184 74.481 63.6184C74.481 63.6184 79.1697 54.9849 79.4306 56.1615C79.5139 56.5276 80.056 57.3789 80.7536 58.3528Z" fill="#020202"/>
<path d="M80.8923 56.5462C80.8926 58.2542 80.3888 59.9239 79.4444 61.3442C78.5 62.7645 77.1575 63.8716 75.5867 64.5255C74.0159 65.1794 72.2873 65.3507 70.6196 65.0177C68.9519 64.6847 67.42 63.8624 66.2175 62.6548C65.0151 61.4472 64.1961 59.9085 63.8643 58.2334C63.5324 56.5582 63.7026 54.8218 64.3532 53.2438C65.0038 51.6658 66.1056 50.3171 67.5194 49.3681C68.9331 48.4192 70.5953 47.9127 72.2956 47.9127C73.4256 47.9085 74.5451 48.1289 75.5899 48.5613C76.6346 48.9937 77.5839 49.6294 78.383 50.4319C79.1821 51.2344 79.8152 52.1878 80.2458 53.2372C80.6765 54.2865 80.8962 55.4111 80.8923 56.5462Z" fill="#F4F4F4"/>
<path opacity="0.1" d="M76.1406 130.889L76.2035 132.03C75.4504 132.198 74.0182 132.417 73.1837 131.904C72.105 131.24 70.5119 131.079 69.0519 130.175C69.078 129.77 69.0643 129.364 69.0112 128.962L76.1406 130.889Z" fill="#020202"/>
<path opacity="0.1" d="M88.4768 133.456C88.4269 133.711 88.3806 133.867 88.3806 133.867C88.3806 133.867 82.6354 133.276 80.9793 132.478C80.9793 131.902 80.9626 131.177 80.9626 131.177L88.1937 132.06L88.4768 133.456Z" fill="#020202"/>
<path d="M87.1798 107.505C86.7894 108.552 86.5932 108.749 86.9855 109.271C87.3778 109.793 87.1798 112.542 86.5581 112.802C85.9364 113.063 83.5976 114.633 83.5976 114.633C83.5976 114.633 84.8928 116.334 84.9317 117.049C84.9657 117.507 85.1417 117.941 85.4349 118.293C85.4349 118.293 87.4407 122.61 87.8404 123.984C88.24 125.358 88.6064 127.516 88.6064 127.516C88.6064 127.516 87.9051 129.478 88.3899 130.592C88.8747 131.705 88.3899 133.339 88.3899 133.339C88.3899 133.339 81.3938 132.619 80.6185 131.696C79.8432 130.772 80.3595 128.694 80.3595 128.694C80.1996 127.768 79.8682 126.88 79.3825 126.077C78.5998 124.833 79.5675 123.527 79.3825 123.46C79.1975 123.393 78.5998 122.676 78.0114 121.499C77.423 120.322 77.0566 120.778 77.0566 120.778C77.0566 120.778 77.819 127.385 77.0566 127.975C76.2943 128.564 76.1907 128.302 76.3868 129.09C76.5388 129.846 76.6475 130.611 76.7125 131.38C76.7125 131.38 74.3681 132.099 73.1968 131.38C72.0256 130.66 70.2622 130.528 68.7135 129.417C67.1647 128.305 69.4148 126.408 69.8052 126.146C70.1956 125.884 69.6757 122.09 69.6757 122.09L69.1539 118.362C69.1539 118.362 70.9117 118.754 70.3344 117.315C69.7571 115.877 69.0891 110.905 68.7634 110.12C68.4378 109.336 69.8736 108.288 69.6757 107.765C69.4777 107.243 70.5213 104.234 70.5213 104.234C70.5213 104.234 70.5879 101.749 71.2373 101.282C71.4853 101.108 71.6463 100.565 71.7536 99.9645C71.8674 99.256 71.9348 98.5407 71.9553 97.8233C71.9553 97.8233 86.8671 96.7769 89.2762 98.2155C90.3605 98.8623 90.2847 100.054 89.8313 101.26C89.2762 102.732 88.1364 104.234 87.8496 104.778C87.3112 105.782 87.5702 106.459 87.1798 107.505Z" fill="#ADADAD"/>
<path opacity="0.1" d="M89.8127 101.26C87.9624 101.782 85.4977 102.55 85.0962 102.99C84.4449 103.712 82.23 98.9348 82.23 98.9348C82.23 98.9348 82.3614 102.526 79.4305 101.024C76.8937 99.7229 72.7989 99.8939 71.7405 99.9645C71.8543 99.256 71.9217 98.5407 71.9422 97.8233C71.9422 97.8233 86.854 96.7769 89.2631 98.2155C90.3474 98.8623 90.2716 100.054 89.8127 101.26Z" fill="#020202"/>
<path d="M82.2301 61.7152C82.2301 61.7152 83.5253 60.1446 83.7936 60.7338C84.0619 61.323 85.5903 62.4995 85.5903 62.4995C85.5903 62.4995 86.0288 63.8731 86.8004 64.0701C87.572 64.2671 93.3672 72.1163 93.3672 72.1163L91.2819 76.367L89.5889 86.7031C89.5889 86.7031 89.6629 88.3387 89.2021 88.9335C88.7414 89.5282 86.9817 89.3907 87.7977 90.11C88.6137 90.8293 89.785 91.4836 90.4363 94.7567C91.0876 98.0298 91.8685 99.9238 91.8685 99.9238C91.8685 99.9238 85.7476 101.494 85.0962 102.214C84.4449 102.933 82.2301 98.158 82.2301 98.158C82.2301 98.158 82.3614 101.747 79.4305 100.247C76.4996 98.7472 71.4852 99.2045 71.4852 99.2045V95.3384C71.4852 95.3384 72.4622 93.8329 71.9422 92.7865C71.4223 91.7401 72.2975 89.7773 72.2975 89.7773C72.2975 89.7773 72.007 87.7495 71.4852 86.573C70.9634 85.3964 71.1595 79.8353 71.1595 79.8353C71.1595 79.8353 70.7636 76.2369 71.1244 74.4043C71.4306 72.8158 71.9713 71.2822 72.7286 69.8543C73.4447 68.4528 73.898 67.1443 73.7037 66.6202C73.5095 66.0961 75.4227 64.9623 75.4227 64.9623L76.4829 66.6853L76.7531 67.715C76.7531 67.715 82.3614 63.6779 82.2301 61.7152Z" fill="#EAEAEA"/>
<path d="M91.6021 70.8076C91.6021 70.8076 95.2491 74.4041 95.6395 74.9933C96.0299 75.5825 97.3381 78.6456 95.6451 79.5749C93.952 80.5043 87.3186 81.9373 86.6598 81.4429C86.0011 80.9485 82.034 82.0005 82.034 82.0005C82.034 82.0005 75.3987 83.6361 76.8309 80.9541C78.263 78.272 81.651 78.7237 81.651 78.7237C81.651 78.7237 87.1243 78.7144 87.709 78.1661C88.2937 77.6178 92.7049 76.4412 91.7057 74.0175C90.7065 71.5938 91.6021 70.8076 91.6021 70.8076Z" fill="#F4F4F4"/>
<path opacity="0.1" d="M80.8923 86.9001C80.8923 86.9001 72.3974 94.2921 73.243 94.2921C74.0886 94.2921 80.8923 86.9001 80.8923 86.9001Z" fill="#020202"/>
<path opacity="0.1" d="M86.558 89.9092C86.558 89.9092 83.8584 90.5616 84.3802 90.9556C84.902 91.3496 86.558 89.9092 86.558 89.9092Z" fill="#020202"/>
<path opacity="0.1" d="M77.0381 71.9844C77.0381 71.9844 80.4075 72.2873 79.8136 73.3468C79.2196 74.4062 77.0381 71.9844 77.0381 71.9844Z" fill="#020202"/>
<path opacity="0.1" d="M74.938 103.754C74.938 103.754 74.481 105.085 74.938 105.799C75.395 106.513 74.938 108.215 74.938 108.215V114.163C74.938 114.163 74.8751 118.481 76.4349 119.984L74.938 103.754Z" fill="#020202"/>
<path opacity="0.1" d="M70.4768 122.289C70.4768 122.289 71.3872 123.629 71.5185 124.12C71.6499 124.611 70.4768 122.289 70.4768 122.289Z" fill="#020202"/>
<path opacity="0.1" d="M70.7043 119.607C70.7043 119.607 72.8211 119.215 73.1468 119.443C73.4724 119.672 70.7043 119.607 70.7043 119.607Z" fill="#020202"/>
<path opacity="0.1" d="M70.0863 127.62C70.0863 127.62 69.4665 127.685 70.7044 128.363C71.9422 129.042 74.3514 129.9 74.3828 129.607C74.4143 129.313 70.0863 127.62 70.0863 127.62Z" fill="#020202"/>
<path opacity="0.1" d="M79.1475 121.111C79.3658 121.111 82.0913 120.947 81.9341 121.373C81.7768 121.798 79.1475 121.111 79.1475 121.111Z" fill="#020202"/>
<path opacity="0.1" d="M82.8499 117.284C82.8499 117.284 83.4679 116.206 83.6955 116.663C83.923 117.12 82.8499 117.284 82.8499 117.284Z" fill="#020202"/>
<path opacity="0.1" d="M80.8924 56.5461C80.8934 57.3488 80.7825 58.1478 80.563 58.9196C80.2041 59.2468 79.5842 59.2505 79.142 59.007C78.6239 58.7207 78.2853 58.2003 77.9485 57.7059C77.6117 57.2115 77.2287 56.7171 76.6773 56.5052C75.9797 56.2413 75.1841 56.5052 74.5772 56.9439C73.9703 57.3825 73.4855 57.9624 72.9119 58.4308C72.3383 58.8992 71.6074 59.2783 70.8765 59.1631C70.4047 59.0906 69.9865 58.823 69.5813 58.5646C69.0262 58.2133 68.4304 57.6669 67.8216 57.4308C67.2129 57.1948 66.7114 57.6167 66.1323 57.6167C65.6715 57.784 65.1701 58.165 65.2626 58.6464C65.3122 58.825 65.3923 58.9936 65.4995 59.1445C65.6854 59.5125 65.7588 59.9275 65.7104 60.3373C65.662 60.7471 65.494 61.1334 65.2275 61.4474C64.4605 60.3336 63.9651 59.0542 63.7812 57.7126C63.5974 56.3709 63.7303 55.0047 64.1691 53.7241C64.608 52.4436 65.3405 51.2847 66.3076 50.3411C67.2746 49.3974 68.449 48.6955 69.736 48.2919C71.023 47.8884 72.3864 47.7946 73.7161 48.018C75.0459 48.2415 76.3046 48.776 77.3908 49.5784C78.4769 50.3807 79.3599 51.4285 79.9685 52.6369C80.5771 53.8454 80.8942 55.1807 80.8942 56.535L80.8924 56.5461Z" fill="#020202"/>
<path d="M66.1304 57.3659C65.6696 57.5332 65.1682 57.9142 65.2589 58.3975C65.3103 58.5751 65.3909 58.7429 65.4975 58.8937C66.0378 59.8621 65.5808 61.2524 64.5724 61.7022C64.4143 61.7849 64.2338 61.8136 64.058 61.784C63.9186 61.7405 63.7917 61.664 63.6879 61.5609C63.1456 61.074 62.7716 60.4263 62.6203 59.7116C62.4612 58.9681 62.5592 58.18 62.4778 57.4161C62.3964 56.6522 62.1355 55.8994 62.0448 55.1299C61.9806 54.7496 62.021 54.3589 62.1614 53.9999C62.2834 53.763 62.4407 53.5461 62.6277 53.3568C63.1476 52.775 63.6898 52.1802 63.9507 51.4423C64.3633 50.2677 64.0635 48.7714 64.9665 47.9109C65.3847 47.5168 65.9694 47.37 66.4875 47.121C66.9753 46.8608 67.4424 46.5631 67.8845 46.2307C69.559 45.0746 71.5944 44.1861 73.5854 44.595C74.3808 44.7885 75.1425 45.1018 75.8446 45.5244C77.1487 46.2465 78.387 47.0824 79.5453 48.0224C80.0462 48.3945 80.4836 48.8459 80.8405 49.3588C81.1064 49.7979 81.2978 50.2784 81.4067 50.7807C81.6726 51.8764 81.7091 53.0156 81.514 54.1263C81.329 55.2154 80.909 56.273 80.8923 57.3789C80.8923 57.7507 80.9219 58.1521 80.7313 58.4718C80.426 58.9811 79.6693 59.0294 79.1512 58.7469C78.6331 58.4644 78.2945 57.9402 77.9595 57.4458C77.6246 56.9514 77.2398 56.457 76.6884 56.247C75.9908 55.9812 75.1951 56.247 74.5882 56.6838C73.9813 57.1206 73.4984 57.7023 72.9229 58.1707C72.3475 58.6391 71.6277 59.0183 70.8876 58.903C70.4157 58.8305 69.9976 58.5648 69.5923 58.3064C69.0372 57.9533 68.4414 57.4068 67.8345 57.1726C67.2276 56.9384 66.7077 57.3659 66.1304 57.3659Z" fill="#727272"/>
<path d="M85.8771 70.8076C85.8771 70.8076 76.3054 79.7032 78.2575 84.151C80.2096 88.5988 88.8044 80.7496 88.8044 80.7496L91.8685 73.6272L85.8771 70.8076Z" fill="#EDE5E6"/>
<g opacity="0.1">
<path d="M64.5687 61.1742C64.4113 61.2569 64.2313 61.2856 64.0562 61.256C63.9162 61.2129 63.7891 61.1357 63.6861 61.0311C63.1437 60.5447 62.7692 59.8977 62.6166 59.1836C62.4594 58.4308 62.5574 57.6502 62.476 56.8863C62.3946 56.1223 62.1318 55.3714 62.043 54.6001C62.043 54.5629 62.043 54.5239 62.0338 54.4849C62.0137 54.6977 62.0168 54.9121 62.043 55.1242C62.1318 55.8937 62.3946 56.6372 62.476 57.4104C62.5574 58.1836 62.4594 58.955 62.6166 59.7059C62.7687 60.4207 63.1433 61.0684 63.6861 61.5552C63.7896 61.6586 63.9166 61.7352 64.0562 61.7783C64.2313 61.8079 64.4113 61.7792 64.5687 61.6965C65.3644 61.3415 65.814 60.4066 65.7085 59.5516C65.67 59.8966 65.5453 60.2262 65.346 60.5099C65.1467 60.7935 64.8794 61.022 64.5687 61.1742Z" fill="#020202"/>
<path d="M81.5012 53.6003C81.3161 54.6894 80.8961 55.747 80.8813 56.8529C80.8813 57.2247 80.9109 57.6261 80.7185 57.9458C80.415 58.4551 79.6582 58.5034 79.1401 58.2209C78.6221 57.9384 78.2834 57.4161 77.9467 56.9198C77.6099 56.4236 77.2288 55.931 76.6755 55.721C75.9798 55.4571 75.1841 55.721 74.5772 56.1596C73.9703 56.5983 73.4855 57.1763 72.9119 57.6466C72.3383 58.1168 71.6074 58.4941 70.8766 58.3807C70.4047 58.3064 69.9865 58.0406 69.5813 57.7823C69.0262 57.4291 68.4304 56.8845 67.8235 56.6485C67.2166 56.4124 66.7133 56.8343 66.1341 56.8343C65.6734 57.0035 65.172 57.3826 65.2608 57.8677C65.2721 57.9202 65.2889 57.9712 65.3107 58.0202C65.492 57.7029 65.7862 57.4665 66.1341 57.3585C66.7115 57.3585 67.2221 56.9421 67.8235 57.1726C68.4249 57.4031 69.0318 57.9533 69.5813 58.3064C69.9828 58.5648 70.401 58.8305 70.8766 58.903C71.6167 59.0183 72.342 58.6447 72.9119 58.1707C73.4818 57.6968 73.9722 57.1113 74.5772 56.6838C75.1823 56.2563 75.9798 55.9812 76.6755 56.247C77.2306 56.457 77.6118 56.957 77.9467 57.4458C78.2816 57.9347 78.6221 58.4532 79.1401 58.7469C79.6582 59.0406 80.415 58.9811 80.7185 58.4718C80.9035 58.1521 80.8758 57.7525 80.8813 57.3789C80.8961 56.273 81.3106 55.2154 81.5012 54.1263C81.5988 53.5668 81.6385 52.9988 81.6196 52.4312C81.6078 52.8232 81.5682 53.2139 81.5012 53.6003Z" fill="#020202"/>
</g>
<path opacity="0.1" d="M74.4162 25.5399C74.4162 25.5399 70.9005 31.9504 75.7114 35.2217C80.5223 38.4929 80.9867 38.1658 80.9867 38.1658C80.9867 38.1658 80.9201 38.9501 80.9867 39.1472C81.0533 39.3442 82.2819 39.7995 82.2819 39.7995C82.2819 39.7995 83.7788 42.2158 85.9271 43.2678C88.0753 44.3198 88.4676 46.7993 88.4676 46.7993C88.4676 46.7993 88.4676 47.6506 89.5778 48.4349C90.688 49.2193 91.5428 51.5091 91.5428 51.5091V53.6039C91.5428 53.931 91.9333 54.9049 91.0876 55.009C90.242 55.1131 90.9563 57.0703 90.9563 57.0703C90.9563 57.0703 90.0459 58.1855 90.2402 58.7059C90.4345 59.2263 89.8498 60.2746 89.8498 60.2746C89.8498 60.2746 89.1337 61.321 89.1985 61.5181C89.2632 61.7151 88.4176 62.4344 88.6119 62.8916C88.8062 63.3488 87.6368 63.938 87.8311 64.4622C88.0254 64.9863 86.9984 65.2465 86.9984 65.2465L84.1841 71.789C84.1841 71.789 90.1051 73.0901 91.6335 76.3669L99.0977 62.6295C99.0977 62.6295 103.265 52.3604 103.396 51.7062C103.527 51.0519 102.484 48.697 102.484 48.697L97.4047 39.4037L89.785 28.6104C89.785 28.6104 83.7289 15.6629 74.4162 25.5399Z" fill="#020202"/>
<path opacity="0.1" d="M81.9341 28.2442C81.9341 28.2442 72.786 31.469 77.6043 34.7402C82.4226 38.0115 82.8796 37.6825 82.8796 37.6825C82.8796 37.6825 82.8148 38.4687 82.8796 38.6639C82.9443 38.859 84.1748 39.3181 84.1748 39.3181C84.1748 39.3181 85.6736 41.7344 87.8218 42.7864C89.9701 43.8384 90.3623 46.3179 90.3623 46.3179C90.3623 46.3179 90.3623 47.1691 91.4725 47.9535C92.5827 48.7379 93.4265 51.0277 93.4265 51.0277V53.1206C93.4265 53.4477 93.8169 54.4216 92.9695 54.5276C92.122 54.6335 92.8399 56.5889 92.8399 56.5889C92.8399 56.5889 91.9277 57.7041 92.1239 58.2226C92.32 58.7412 91.7334 59.7932 91.7334 59.7932C91.7334 59.7932 91.0174 60.8396 91.0821 61.0366C91.1469 61.2337 90.2994 61.953 90.4956 62.4102C90.6917 62.8674 89.5186 63.4566 89.7147 63.9808C89.9108 64.5049 88.8802 64.7651 88.8802 64.7651L86.0677 71.3058C86.0677 71.3058 90.9452 71.5586 92.4847 74.8372L100.98 62.1556C100.98 62.1556 105.148 51.8864 105.278 51.2322C105.407 50.5779 104.369 48.2156 104.369 48.2156L99.2902 38.9222L87.7034 32.2087C87.7034 32.2087 91.2468 18.3654 81.9341 28.2442Z" fill="#020202"/>
<path d="M74.9379 25.5399C74.9379 25.5399 71.4223 31.9504 76.2331 35.2217C81.044 38.4929 81.5084 38.1658 81.5084 38.1658C81.5084 38.1658 81.4437 38.9502 81.5084 39.1472C81.5732 39.3442 82.8037 39.7996 82.8037 39.7996C82.8037 39.7996 84.3024 42.2159 86.4506 43.2679C88.5989 44.3199 88.9912 46.7993 88.9912 46.7993C88.9912 46.7993 88.9912 47.6506 90.1014 48.4349C91.2116 49.2193 92.0646 51.5092 92.0646 51.5092V53.6039C92.0646 53.931 92.455 54.905 91.6075 55.009C90.7601 55.1131 91.478 57.0703 91.478 57.0703C91.478 57.0703 90.5658 58.1855 90.7619 58.7059C90.9581 59.2264 90.3715 60.2746 90.3715 60.2746C90.3715 60.2746 89.6554 61.3211 89.7202 61.5181C89.785 61.7151 88.9375 62.4344 89.1336 62.8916C89.3298 63.3489 88.1567 63.9381 88.3528 64.4622C88.5489 64.9864 87.5183 65.2466 87.5183 65.2466L84.7058 71.7891C84.7058 71.7891 90.6157 73.0901 92.1534 76.367L99.6176 62.6296C99.6176 62.6296 103.786 52.3604 103.916 51.7062C104.045 51.0519 103.004 48.697 103.004 48.697L97.9246 39.4037L90.3067 28.6141C90.3067 28.6141 84.2488 15.663 74.9379 25.5399Z" fill="#AAAAAA"/>
<g opacity="0.1">
<path d="M36.475 28.7591C36.4066 27.9468 36.2324 27.1469 35.9569 26.38C35.6886 25.6366 35.3222 24.9043 35.2353 24.1143C35.2353 24.0902 35.2353 24.0679 35.2353 24.0437C35.2158 24.2415 35.2158 24.4407 35.2353 24.6385C35.3222 25.4284 35.6886 26.1551 35.9569 26.9042C36.2324 27.6704 36.4066 28.4697 36.475 29.2814C36.5009 29.5862 36.512 29.8948 36.5157 30.2108C36.5213 29.7182 36.5157 29.2368 36.475 28.7591Z" fill="#020202"/>
<path d="M42.8439 36.9038C42.4461 37.7811 41.2378 37.9205 40.3127 37.6622C39.5229 37.4348 38.7981 37.0224 38.1979 36.4589C37.5976 35.8954 37.1391 35.1968 36.8599 34.4207C36.6028 33.6219 36.4777 32.7862 36.4899 31.9468C36.4788 32.9709 36.5176 33.982 36.8599 34.9429C37.139 35.7194 37.5975 36.4182 38.1977 36.9821C38.7979 37.5459 39.5228 37.9586 40.3127 38.1863C41.2378 38.4428 42.4461 38.3053 42.8439 37.4261C43.0123 37.0544 42.9956 36.6232 42.9882 36.1994C42.9848 36.4413 42.9359 36.6803 42.8439 36.9038Z" fill="#020202"/>
<path d="M60.8216 24.6851C60.7421 25.2798 60.5071 25.949 59.9427 26.1478C59.6138 26.2401 59.2626 26.207 58.9565 26.0549C58.0313 25.6497 57.2079 24.672 56.2198 24.9081C55.4131 25.094 55.0264 26.0103 54.8136 26.8169C54.6593 27.3266 54.5923 27.859 54.6156 28.3912C54.6509 28.0354 54.7172 27.6834 54.8136 27.3392C55.0264 26.5344 55.4131 25.6237 56.2198 25.4304C57.2079 25.1962 58.0239 26.1738 58.9565 26.5772C59.2621 26.7306 59.6136 26.7644 59.9427 26.672C60.5071 26.4731 60.7421 25.804 60.8216 25.2073C60.8725 24.8274 60.8911 24.4437 60.8771 24.0605C60.8679 24.2687 60.8494 24.4787 60.8216 24.6851Z" fill="#020202"/>
<path d="M55.7241 32.2572C55.169 32.6605 54.4159 32.2311 53.8072 31.9096C53.1559 31.5657 52.3269 31.352 51.707 31.7479C51.4943 31.8817 51.3222 32.075 51.1149 32.2181C50.6885 32.4831 50.1826 32.5884 49.6865 32.5155C48.5078 32.3947 48.0674 31.6457 47.17 31.0658C46.5113 30.6401 45.1347 30.458 44.7424 31.3315C44.6483 31.5887 44.6222 31.866 44.6665 32.1363C44.6787 32.0397 44.7042 31.9452 44.7424 31.8557C45.1365 30.9803 46.5113 31.1624 47.17 31.5899C48.0674 32.1698 48.5078 32.9188 49.6865 33.0397C50.1828 33.111 50.6884 33.0051 51.1149 32.7404C51.3222 32.5992 51.4943 32.4059 51.707 32.272C52.3325 31.8817 53.1559 32.0862 53.8072 32.4337C54.4159 32.7534 55.1653 33.1772 55.7241 32.7794C56.0498 32.5453 56.1275 32.1289 56.0553 31.7181C56.0173 31.9336 55.8989 32.1264 55.7241 32.2572Z" fill="#020202"/>
<path d="M44.6184 33.1604C44.3649 33.744 43.5859 33.9038 43.227 34.4298C42.9587 34.8202 42.9809 35.3071 42.9901 35.796C42.9867 35.4983 43.069 35.2059 43.227 34.954C43.5859 34.428 44.3649 34.2663 44.6184 33.6827C44.7071 33.4287 44.7312 33.1566 44.6887 32.8909C44.6773 32.9834 44.6537 33.0741 44.6184 33.1604Z" fill="#020202"/>
</g>
<path d="M129.613 120.389C129.613 120.86 129.665 121.241 129.73 121.241C129.795 121.241 129.848 120.86 129.848 120.389C129.848 119.919 129.782 120.14 129.717 120.14C129.652 120.14 129.613 119.919 129.613 120.389Z" fill="#FFD037"/>
<path d="M128.964 120.951C129.375 121.176 129.734 121.311 129.765 121.254C129.797 121.196 129.488 120.968 129.077 120.743C128.666 120.518 128.829 120.681 128.797 120.743C128.766 120.804 128.553 120.726 128.964 120.951Z" fill="#FFD037"/>
<path d="M113.014 49.6933C114.008 48.5781 113.619 46.8402 113.619 46.8402C113.619 46.8402 108.93 34.837 108.41 34.705C107.891 34.573 106.586 31.5453 106.586 31.5453C106.586 31.5453 94.0833 19.6071 93.6337 19.6071C93.1841 19.6071 88.6193 16.3098 88.0346 16.2447C87.4499 16.1797 86.5358 15.8488 85.5588 15.3154C84.5819 14.782 74.6826 15.3823 74.2922 15.8433C73.9017 16.3042 72.0718 16.6351 72.0718 16.6351C72.0718 16.6351 68.36 16.8321 67.8382 17.4919C67.3164 18.1517 63.477 18.5012 63.477 18.5012C63.477 18.5012 61.5878 19.2075 64.1523 21.0828C63.3308 21.213 62.3705 21.3133 61.3953 21.384C61.1511 21.4007 60.9032 21.4174 60.6552 21.4304H60.509C60.3453 20.9331 60.026 20.5021 59.5987 20.2018C59.3193 20.0495 59.0307 19.9147 58.7346 19.7985C58.276 19.5536 57.8465 19.2574 57.4541 18.9156C55.5558 17.3992 53.5301 16.051 51.3998 14.8861C51.071 14.6792 50.7042 14.5408 50.3211 14.479C49.5273 14.4028 48.8186 14.9623 48.0415 15.15C46.6759 15.479 45.2993 14.6426 43.8949 14.6296C42.1408 14.6128 40.5439 15.9845 40.0092 17.6759C39.8112 18.3023 39.7224 18.9993 39.295 19.4955C38.7399 20.1442 37.8018 20.239 37.0413 20.6238C36.4902 20.9125 36.0285 21.3473 35.7062 21.8811C35.3839 22.4149 35.2134 23.0272 35.2131 23.6515V23.6664C35.2131 23.7649 35.2131 23.8634 35.2298 23.9619C35.3168 24.7574 35.6831 25.4916 35.9514 26.2462C36.2271 27.0194 36.4013 27.8254 36.4695 28.6439C36.4704 28.6525 36.4704 28.6613 36.4695 28.6699C36.4806 28.8056 36.4899 28.9413 36.4954 29.0788C36.4954 29.1067 36.4954 29.1364 36.4954 29.1662C36.4954 29.2963 36.4954 29.4283 36.4954 29.5602C36.4954 30.2702 36.4714 30.9858 36.4732 31.6958V31.733V32.0546C36.4732 32.0806 36.4732 32.1066 36.4732 32.1326C36.4732 32.2274 36.4732 32.3185 36.4843 32.4188V32.5192C36.4843 32.6066 36.4973 32.6958 36.5065 32.7831C36.5065 32.8203 36.5065 32.8594 36.5158 32.8965C36.5158 32.982 36.5361 33.0657 36.5472 33.1493L36.5639 33.2683C36.5768 33.3519 36.5916 33.4355 36.6064 33.5192L36.6286 33.6344C36.6471 33.7236 36.6693 33.8203 36.6915 33.9021C36.7008 33.9337 36.7064 33.9634 36.7138 33.995C36.7471 34.1189 36.7841 34.2379 36.8248 34.3519C37.1018 35.1323 37.5592 35.8356 38.1595 36.4039C38.7597 36.9723 39.4856 37.3895 40.2775 37.6213C40.5757 37.7038 40.8842 37.7427 41.1934 37.7365C41.7485 37.7235 42.2796 37.5506 42.6089 37.1696C42.6903 37.2625 42.7699 37.3555 42.855 37.4484C44.0618 38.7668 45.5673 39.7734 47.2439 40.3829C48.9204 40.9925 50.7186 41.1869 52.4859 40.9498C54.2532 40.7127 55.9375 40.051 57.396 39.0208C58.8545 37.9907 60.0442 36.6225 60.8643 35.0321C61.0586 34.9894 61.251 34.9504 61.4453 34.9132C61.7821 34.85 62.1207 34.7905 62.4611 34.7273L62.7886 34.6753L62.9182 34.653C64.5835 34.389 66.2007 34.2125 67.359 34.0954L62.7812 34.666C62.7812 34.666 61.671 40.0208 61.3509 40.6137C61.0308 41.2066 62.4611 42.1954 62.4611 42.1954C62.4611 42.1954 63.699 43.7121 63.699 44.1749C63.699 44.6377 65.1312 45.9555 65.5216 46.6804C65.5712 46.7723 65.6335 46.8568 65.7066 46.9313C65.4176 47.0436 65.1507 47.2066 64.9184 47.4127C64.0136 48.2733 64.3152 49.7825 63.9007 50.9646C63.6416 51.7081 63.0995 52.3103 62.5777 52.8958C62.3903 53.0869 62.2331 53.3056 62.1114 53.5444C62.0436 53.7027 62.0017 53.8709 61.9875 54.0426C61.9782 54.1377 61.9745 54.2332 61.9764 54.3288V54.3623C61.9764 54.4366 61.9763 54.5091 61.9911 54.5816C61.9911 54.6132 61.9911 54.6448 61.9911 54.6764C62.0818 55.4533 62.3446 56.2042 62.4241 56.9811C62.5037 57.758 62.4075 58.5405 62.5666 59.297C62.6217 59.5608 62.7074 59.8172 62.8219 60.0609L60.1723 63.0348C60.1723 63.0348 60.1556 63.1816 60.1501 63.4232C57.9408 65.2652 54.5251 68.7409 55.7444 71.8058C55.8776 72.1416 56.001 72.4632 56.1145 72.7705C55.2171 73.3448 54.921 74.0269 56.2662 74.7072C56.479 74.815 56.6844 74.9079 56.8861 74.9916C57.5763 77.0268 57.8464 77.5937 59.0029 76.0938C59.1268 75.9302 59.2712 75.722 59.4284 75.4971C61.0567 75.4637 61.9986 74.7072 61.9986 74.7072C61.9986 74.7072 66.5559 74.4433 67.7346 75.17C68.3248 75.5417 69.7126 75.6161 70.9412 75.6068C70.9247 76.9364 70.9865 78.2658 71.1262 79.5881C71.1262 79.5881 70.9301 85.1938 71.4519 86.3815C71.9737 87.5692 72.2623 89.6137 72.2623 89.6137C72.2623 89.6137 71.3871 91.5913 71.9071 92.647C72.427 93.7028 71.4519 95.2194 71.4519 95.2194V99.1096L71.822 99.0836C71.7942 99.3457 71.7591 99.6208 71.7128 99.8828C71.6055 100.491 71.4445 101.035 71.1966 101.212C70.5452 101.682 70.4805 104.186 70.4805 104.186C70.4805 104.186 69.4387 107.221 69.633 107.749C69.8273 108.277 68.397 109.33 68.7227 110.122C69.0483 110.914 69.7144 115.925 70.2936 117.371C70.8728 118.817 69.1131 118.427 69.1131 118.427L69.633 122.185C69.633 122.185 70.1548 126.01 69.7644 126.274C69.374 126.538 67.1277 128.451 68.6727 129.571C68.793 129.659 68.9151 129.739 69.0428 129.815C69.0496 129.988 69.0453 130.162 69.0298 130.335C69.0002 130.631 68.9262 130.867 68.7615 130.893C68.3026 130.96 67.3904 131.421 67.198 131.224C67.0056 131.027 65.9028 131.722 64.7926 131.949L64.639 131.973L63.1976 131.601C61.1121 130.803 58.8228 130.718 56.6844 131.359C56.6844 131.359 55.639 131.523 55.132 132.307C54.8748 132.709 54.7619 133.274 54.9913 134.062C55.6871 136.393 60.4295 137.196 60.4295 137.196C60.4295 137.196 62.0726 137.536 64.0469 137.985C63.9821 137.985 63.9155 137.985 63.8489 137.985C63.304 137.982 62.7775 138.183 62.3733 138.55C61.9691 138.917 61.7165 139.423 61.6655 139.968C61.6146 140.513 61.7688 141.058 62.0978 141.494C62.4269 141.93 62.9068 142.227 63.4428 142.325C63.9789 142.423 64.5322 142.316 64.9934 142.025C65.4547 141.733 65.7904 141.279 65.9343 140.751C66.0783 140.223 66.0199 139.66 65.7709 139.173C65.5218 138.686 65.1001 138.311 64.589 138.121C66.8094 138.634 69.2685 139.259 70.2677 139.699C71.0116 139.981 71.7739 140.21 72.5492 140.387C72.5874 140.848 72.7712 141.285 73.0737 141.634C73.3763 141.983 73.7818 142.226 74.2314 142.328C74.681 142.43 75.1511 142.384 75.5733 142.199C75.9956 142.014 76.3479 141.698 76.5792 141.298C79.6008 141.931 82.5113 142.469 82.5113 142.469L87.3722 142.548H87.4055C86.8326 142.552 86.2846 142.784 85.8816 143.193C85.4786 143.602 85.2534 144.155 85.2554 144.731C85.2574 145.306 85.4863 145.857 85.8921 146.263C86.2979 146.67 86.8474 146.898 87.4203 146.898C87.9932 146.898 88.5427 146.67 88.9485 146.263C89.3542 145.857 89.5832 145.306 89.5851 144.731C89.5871 144.155 89.3619 143.602 88.9589 143.193C88.5559 142.784 88.0079 142.552 87.4351 142.548L94.7938 142.669C94.7055 142.97 94.6828 143.287 94.7272 143.597C94.7716 143.907 94.8821 144.205 95.0511 144.468C95.2202 144.732 95.4439 144.956 95.7069 145.125C95.9699 145.294 96.2661 145.404 96.5753 145.448C96.8845 145.491 97.1994 145.467 97.4986 145.378C97.7978 145.288 98.0742 145.135 98.309 144.928C98.5438 144.721 98.7315 144.466 98.8593 144.18C98.9871 143.894 99.052 143.583 99.0496 143.27C99.0493 143.09 99.0269 142.912 98.983 142.738L105.474 142.844L106.769 141.413C106.842 141.274 106.885 141.121 106.897 140.965C106.936 140.495 106.693 139.781 105.035 139.478C104.913 139.456 101.531 139.51 98.5426 139.56V138.381C98.5426 138.381 98.4594 137.733 98.4076 136.969C98.3928 136.744 98.3798 136.51 98.3742 136.279C98.5433 136.396 98.7311 136.482 98.9293 136.534C100.167 136.733 101.86 133.105 101.86 133.105C101.86 133.105 101.86 131.06 102.251 129.411C102.641 127.763 103.361 122.222 103.361 122.222L104.926 115.563C104.926 115.563 105.574 101.976 105.248 101.448C104.923 100.92 105.641 99.9962 105.641 99.9962C105.641 99.9962 106.16 97.0948 105.38 96.106C104.599 95.1172 105.835 94.1265 105.835 94.1265C105.835 94.1265 106.16 90.6973 105.248 89.3795C104.336 88.0617 105.676 87.138 105.676 87.138L106.001 81.7962C107.369 80.4115 108.605 72.1683 108.671 70.3877C108.688 69.3854 108.91 68.3972 109.323 67.4844C109.323 67.4844 110.233 66.0997 110.364 65.176C110.496 64.2522 111.475 62.3415 111.475 62.3415L113.168 56.009C113.85 53.4552 113.676 51.5668 113.223 50.2211C113.157 50.0316 113.086 49.8587 113.014 49.6933ZM82.4262 50.065C83.468 50.7248 83.1423 50.9219 83.468 51.3178C83.7936 51.7137 83.5327 51.6467 83.2718 52.3066C83.0109 52.9664 83.2071 52.7694 83.3366 53.4943C83.4661 54.2191 83.4032 54.2191 83.4032 54.2191L83.7289 54.2656L83.2755 57.3268C82.5354 57.8119 82.1968 58.7413 82.0432 59.7003C81.6065 59.1279 81.1661 58.5331 80.772 57.9792C80.9071 57.6763 80.8812 57.3157 80.8849 56.9755C80.8997 55.8603 81.3142 54.7953 81.5048 53.6968C81.6994 52.5794 81.6635 51.4337 81.3993 50.3308C81.3044 49.9158 81.1584 49.5143 80.9645 49.1357C81.3863 49.4182 81.9211 49.7528 82.4262 50.0724V50.065ZM83.5975 114.696C83.5975 114.696 84.4209 114.139 85.2202 113.631C85.4885 115.589 85.742 117.624 85.9215 119.464C85.6347 118.824 85.4349 118.39 85.4349 118.39C85.1411 118.035 84.9652 117.597 84.9316 117.137C84.9001 116.419 83.5975 114.704 83.5975 114.704V114.696ZM78.7145 46.9071C78.8995 46.9332 79.1622 47.1692 79.4102 47.4517C79.1807 47.2659 78.9495 47.08 78.7126 46.9053L78.7145 46.9071ZM66.7965 71.3077C66.0452 71.5456 63.4992 71.5103 61.9856 71.4211C62.5518 70.449 63.1143 69.4602 63.6139 68.5736C63.9085 68.6502 64.2085 68.7043 64.5113 68.7353L69.4683 64.3619C71.333 65.0188 73.3668 65.0057 75.2229 64.3247L75.358 64.5366C75.4153 64.6295 75.4764 64.7225 75.543 64.8265L75.419 64.6239C75.419 64.6239 73.5058 65.7689 73.7001 66.2967C73.8943 66.8246 73.441 68.1424 72.7249 69.555C72.5399 69.9081 72.3789 70.2576 72.2235 70.6089C70.6026 70.7613 67.5477 71.0698 66.7965 71.3077ZM76.2017 132.242L76.174 131.72C76.4885 131.651 76.6957 131.588 76.6957 131.588C76.6307 130.813 76.522 130.042 76.3701 129.279C76.174 128.488 76.2757 128.752 77.0381 128.164C77.8004 127.577 77.0381 120.915 77.0381 120.915C77.0381 120.915 77.4081 120.453 77.9947 121.64C78.5812 122.828 79.1696 123.553 79.3658 123.618C79.5619 123.683 78.5831 125.005 79.3658 126.257C79.8517 127.068 80.1825 127.962 80.3409 128.895C80.3409 128.895 79.821 130.989 80.6018 131.921C80.7073 132.029 80.833 132.116 80.9719 132.175C80.9719 132.348 80.9719 132.532 80.9719 132.705C80.9719 133.053 80.9719 133.35 80.9552 133.413C80.9476 133.458 80.9287 133.5 80.9003 133.535C80.8719 133.57 80.835 133.597 80.7931 133.613C80.7512 133.63 80.7057 133.635 80.6612 133.629C80.6167 133.622 80.5745 133.604 80.5389 133.577C80.3372 133.445 79.0586 133.74 79.1456 134.567C78.8432 134.926 78.5005 135.249 78.1242 135.528L76.3497 135.067L76.2017 132.242Z" fill="url(#paint1_linear_280_70)"/>
<path d="M60.2205 63.9158C60.2205 63.9158 59.6006 69.0178 64.5169 69.5401L65.2571 66.0086L63.7083 63.9158L61.4898 63.1611L60.2205 63.9158Z" fill="#FDC80C"/>
<path opacity="0.1" d="M61.4898 63.1611L60.2205 63.9139C60.2205 63.9139 59.6006 69.0159 64.5169 69.5382" fill="#020202"/>
<path d="M69.1408 35.0675C69.1408 35.0675 65.8231 35.2719 62.4962 35.8258C62.1558 35.8841 61.8171 35.946 61.4804 36.0117C61.2842 36.0489 61.0918 36.0879 60.8994 36.1306C59.1564 36.4912 57.5688 36.9596 56.6436 37.5581C55.5334 38.2737 55.1633 36.3462 55.1282 33.6679C55.1134 32.7256 55.1448 31.6921 55.1948 30.6476C55.2596 29.4394 55.3539 28.2164 55.4538 27.1161C55.674 24.6775 55.9275 22.7817 55.9275 22.7817C55.9275 22.7817 57.0895 22.7817 58.642 22.7278L59.1416 22.7092C59.6282 22.6906 60.1444 22.6646 60.6644 22.633C60.9105 22.62 61.1584 22.6051 61.4045 22.5865C62.3889 22.5159 63.3603 22.4155 64.18 22.2854C65.0534 22.1442 65.762 21.9657 66.1469 21.7278C67.9047 20.6758 69.1408 35.0675 69.1408 35.0675Z" fill="#F8BDC5"/>
<path d="M83.9231 53.9069L83.2755 58.2246C83.2755 58.2246 81.8637 59.9903 82.0487 60.9717C82.2337 61.9531 83.862 105.323 83.862 105.323C83.862 105.323 87.0539 123.638 85.9455 125.993C84.8372 128.348 85.8807 133.844 85.8807 133.844L92.5234 132.798L94.7438 52.7285L83.9231 53.9069Z" fill="#474463"/>
<path opacity="0.1" d="M83.9231 53.9069L83.2755 58.2246C83.2755 58.2246 81.8637 59.9903 82.0487 60.9717C82.2337 61.9531 83.862 105.323 83.862 105.323C83.862 105.323 87.0539 123.638 85.9455 125.993C84.8372 128.348 85.8807 133.844 85.8807 133.844L92.5234 132.798L94.7438 52.7285L83.9231 53.9069Z" fill="#020202"/>
<path d="M98.5759 134.956C98.3649 135.307 98.3816 136.341 98.4408 137.22C98.4926 137.976 98.5759 138.619 98.5759 138.619V143.067C98.5759 143.067 91.478 140.582 87.5701 137.965C85.9585 136.885 85.4996 135.882 85.5884 135.079C85.7179 133.936 86.9576 133.19 87.5701 133.19C88.1548 133.19 90.0014 132.166 91.515 131.261C92.7048 130.553 93.6928 129.919 93.6928 129.919C93.6928 129.919 98.9663 134.302 98.5759 134.956Z" fill="#575988"/>
<path opacity="0.1" d="M98.576 134.956C98.3651 135.307 98.3817 136.341 98.4409 137.22C96.8626 136.476 91.9759 131.714 91.5151 131.261C92.7049 130.553 93.693 129.919 93.693 129.919C93.693 129.919 98.9664 134.302 98.576 134.956Z" fill="#020202"/>
<path d="M113.164 56.916L111.471 63.1965C111.471 63.1965 110.494 65.0923 110.361 66.0086C110.228 66.9249 109.319 68.2985 109.319 68.2985C108.908 69.2026 108.686 70.1819 108.668 71.1757C108.603 72.9433 107.372 81.1196 105.998 82.4931L105.672 87.7922C105.672 87.7922 104.377 88.7067 105.282 90.0226C106.186 91.3385 105.868 94.7324 105.868 94.7324C105.868 94.7324 104.63 95.7138 105.413 96.6952C106.196 97.6766 105.672 100.556 105.672 100.556C105.672 100.556 104.956 101.47 105.282 101.994C105.607 102.518 104.96 115.994 104.96 115.994L103.394 122.599C103.394 122.599 102.676 128.095 102.284 129.731C101.892 131.367 101.894 133.393 101.894 133.393C101.894 133.393 100.201 136.991 98.9627 136.796C97.7249 136.601 91.7353 130.711 91.7353 130.711L92.5809 110.823C92.5809 110.823 93.297 102.385 92.8418 100.749C92.3867 99.1133 92.061 90.937 92.061 90.937L91.1488 78.0509L82.0414 63.6593C82.0414 63.6593 81.3809 59.4717 83.2682 58.2301L83.6105 55.9681L83.9195 53.9124L94.731 52.734L111.271 48.4182C111.271 48.4182 112.546 49.2081 113.214 51.1802C113.671 52.5091 113.847 54.3827 113.164 56.916Z" fill="#474463"/>
<path d="M84.3857 63.533C84.3857 63.533 76.7012 73.0122 77.0269 70.3636C77.2304 68.7001 76.1795 66.6686 75.3616 65.3843C74.8787 64.6204 74.479 64.1204 74.479 64.1204C74.479 64.1204 79.1677 55.4869 79.4286 56.6634C79.5119 57.0351 80.054 57.8883 80.7516 58.8622C82.2226 60.903 84.3857 63.533 84.3857 63.533Z" fill="#FFC1C8"/>
<path opacity="0.3" d="M98.5759 142.141V143.071C98.5759 143.071 91.478 140.586 87.5701 137.969C85.9585 136.889 85.4996 135.885 85.5884 135.082C87.7459 136.179 91.7592 138.27 92.9749 139.212C94.0074 140.011 96.6756 141.277 98.5759 142.141Z" fill="white"/>
<path d="M96.9051 145.671C98.1038 145.671 99.0755 144.695 99.0755 143.491C99.0755 142.287 98.1038 141.311 96.9051 141.311C95.7064 141.311 94.7346 142.287 94.7346 143.491C94.7346 144.695 95.7064 145.671 96.9051 145.671Z" fill="#474463"/>
<path d="M74.7344 142.61C75.9331 142.61 76.9048 141.634 76.9048 140.43C76.9048 139.226 75.9331 138.25 74.7344 138.25C73.5357 138.25 72.564 139.226 72.564 140.43C72.564 141.634 73.5357 142.61 74.7344 142.61Z" fill="#474463"/>
<path d="M106.93 141.205C106.918 141.36 106.875 141.511 106.803 141.649L105.507 143.067L87.4037 142.775L82.5354 142.695C82.5354 142.695 72.2883 140.822 70.2918 139.948C68.2953 139.075 60.4462 137.476 60.4462 137.476C60.4462 137.476 55.7056 136.677 55.0099 134.367C54.7749 133.584 54.8933 133.025 55.1505 132.627C55.6557 131.848 56.7029 131.685 56.7029 131.685C58.8422 131.05 61.1293 131.135 63.2161 131.926L93.5616 139.768L94.0316 139.889C94.0316 139.889 104.849 139.686 105.067 139.725C106.727 140.03 106.969 140.738 106.93 141.205Z" fill="#FDC80C"/>
<path opacity="0.3" d="M106.93 141.205C105.11 140.967 101.934 140.615 101.116 140.954C101.116 140.954 95.3416 140.236 87.3963 142.775L82.5354 142.695C82.5354 142.695 72.2883 140.822 70.2918 139.948C68.2953 139.075 60.4462 137.476 60.4462 137.476C60.4462 137.476 55.7056 136.677 55.0099 134.367C54.7749 133.584 54.8933 133.025 55.1505 132.627C55.4743 133.575 56.0979 134.948 57.0934 135.333C58.6569 135.937 65.0831 137.168 65.0831 137.168L77.8023 140.296C77.8023 140.296 85.1463 141.896 88.005 140.853C89.1763 140.43 91.3745 140.052 93.556 139.757L94.026 139.878C94.026 139.878 104.843 139.675 105.061 139.714C106.727 140.03 106.969 140.738 106.93 141.205Z" fill="white"/>
<path d="M89.365 138.85C89.3496 139.124 89.3156 139.396 89.2633 139.666C89.2633 139.666 82.0692 139.924 78.3241 139.366C77.2898 139.212 76.7051 138.88 76.4146 138.482C76.2849 138.294 76.2045 138.076 76.1809 137.849C76.1573 137.621 76.1912 137.391 76.2795 137.181C76.3209 137.06 76.3735 136.943 76.4368 136.831C76.7162 136.341 77.1454 135.993 77.3804 136.039C78.0318 136.171 79.1494 134.829 79.1494 134.829C79.0605 134.01 80.3428 133.714 80.5426 133.848C80.5783 133.876 80.6204 133.894 80.665 133.9C80.7095 133.906 80.7549 133.901 80.7968 133.885C80.8387 133.868 80.8757 133.841 80.9041 133.806C80.9325 133.771 80.9514 133.729 80.959 133.685C80.9719 133.623 80.9756 133.328 80.9756 132.982C80.9756 132.406 80.959 131.681 80.959 131.681L88.1901 132.564L88.4769 133.952C88.7396 135.19 89.106 136.891 89.2633 137.473C89.3726 137.923 89.407 138.388 89.365 138.85Z" fill="#474463"/>
<path opacity="0.1" d="M89.365 138.85C89.3496 139.124 89.3156 139.397 89.2633 139.666C89.2633 139.666 82.0692 139.924 78.3241 139.367C77.2898 139.212 76.7051 138.88 76.4146 138.482C77.3749 138.424 78.6238 138.393 79.3973 138.582C80.5001 138.857 87.0965 138.857 89.365 138.85Z" fill="#020202"/>
<path d="M76.4293 136.828C76.4371 136.895 76.4267 136.963 76.3989 137.024C76.3712 137.086 76.3274 137.139 76.272 137.177C75.3616 137.883 70.993 137.116 70.993 137.116C70.993 137.116 62.067 136.558 60.7329 135.644C60.6125 135.564 60.5118 135.458 60.4387 135.333C59.8836 134.326 61.8931 132.634 62.067 132.634C62.2409 132.634 64.6408 132.305 64.8018 132.274C65.912 132.049 67.0222 131.357 67.2072 131.554C67.3922 131.752 68.3174 131.292 68.7689 131.227C68.9336 131.203 69.0094 130.969 69.0372 130.67C69.0632 130.265 69.0496 129.858 68.9965 129.456L76.1258 131.383L76.1887 132.525L76.3941 136.324L76.42 136.79C76.4245 136.802 76.4276 136.815 76.4293 136.828Z" fill="#474463"/>
<path opacity="0.1" d="M71.0003 137.116C71.0003 137.116 62.0743 136.558 60.7402 135.644C60.6198 135.564 60.5192 135.458 60.446 135.333C62.2538 135.482 65.268 135.733 65.812 135.872C66.5947 136.058 70.9929 136.329 70.9929 136.329H76.4015L76.4274 136.796C76.6624 138.112 71.0003 137.116 71.0003 137.116Z" fill="#020202"/>
<path d="M63.8655 142.61C65.0642 142.61 66.0359 141.634 66.0359 140.43C66.0359 139.226 65.0642 138.25 63.8655 138.25C62.6668 138.25 61.6951 139.226 61.6951 140.43C61.6951 141.634 62.6668 142.61 63.8655 142.61Z" fill="#474463"/>
<path d="M87.4387 147.136C88.6374 147.136 89.6092 146.16 89.6092 144.956C89.6092 143.752 88.6374 142.775 87.4387 142.775C86.24 142.775 85.2683 143.752 85.2683 144.956C85.2683 146.16 86.24 147.136 87.4387 147.136Z" fill="#474463"/>
<path d="M65.3643 66.2709C65.3643 66.2709 64.9535 67.0143 64.3355 68.1184C62.8552 70.7428 60.1926 75.395 59.0473 76.8671C57.419 78.96 57.5503 76.9991 55.7907 72.6163C54.4843 69.3562 58.5051 65.6259 60.6552 63.9308C61.3953 63.3416 61.9134 63.0015 61.9134 63.0015L65.3643 66.2709Z" fill="#F8BDC5"/>
<path d="M73.243 71.3076C73.243 71.3076 67.8382 71.7648 66.7964 72.092C65.7547 72.4191 61.2621 72.2221 60.8754 72.092C60.4886 71.9619 52.7987 73.7276 56.3161 75.4933C59.8336 77.2591 62.0522 75.4933 62.0522 75.4933C62.0522 75.4933 66.6114 75.2313 67.7882 75.9524C68.965 76.6736 73.2578 76.2795 73.2578 76.2795L73.243 71.3076Z" fill="#FFC1C8"/>
<path opacity="0.1" d="M62.0152 31.274C62.6813 32.9859 62.265 34.4765 61.4804 36.0062C59.5154 36.3779 57.6669 36.8891 56.6381 37.5526C53.7072 39.4503 55.922 22.7688 55.922 22.7688C55.922 22.7688 57.3394 22.7688 59.1361 22.6963C58.5921 25.1906 60.6533 27.7797 62.0152 31.274Z" fill="#020202"/>
<path d="M62.1818 30.9023C62.1783 33.6421 61.1709 36.2847 59.3517 38.3261C57.5326 40.3675 55.0289 41.6648 52.3184 41.9704C49.6079 42.2761 46.8803 41.5688 44.6557 39.9835C42.4312 38.3981 40.8655 36.0456 40.2573 33.3748C39.6491 30.704 40.041 27.9017 41.3582 25.5026C42.6753 23.1034 44.8256 21.2753 47.3989 20.3669C49.9721 19.4585 52.7882 19.5334 55.31 20.5774C57.8317 21.6213 59.8827 23.5612 61.0716 26.027C61.8043 27.5467 62.1839 29.2137 62.1818 30.9023Z" fill="#F8BDC5"/>
<path opacity="0.1" d="M113.218 51.1746C112.866 51.6884 112.34 52.0553 111.737 52.2061C109.197 52.9254 91.2874 57.2431 90.1161 56.981C89.0818 56.7506 84.6429 56.1093 83.6196 55.9625L83.9286 53.9068L94.7401 52.7284L111.28 48.4126C111.28 48.4126 112.55 49.2025 113.218 51.1746Z" fill="#020202"/>
<path opacity="0.1" d="M69.1408 35.0675C67.0239 35.1949 64.9149 35.4306 62.8219 35.7737C62.8516 35.6781 62.8477 35.575 62.8108 35.4819L67.1406 34.9448C67.1406 34.9448 66.5078 24.7221 64.18 22.2724C65.0534 22.1311 65.7621 21.9527 66.1469 21.7148C67.9048 20.6758 69.1408 35.0675 69.1408 35.0675Z" fill="#020202"/>
<path d="M63.4769 19.7149C63.4769 19.7149 67.32 19.3674 67.8399 18.7131C68.3599 18.0589 72.0735 17.8637 72.0735 17.8637C72.0735 17.8637 73.8961 17.5366 74.2939 17.0775C74.6917 16.6184 84.5818 16.0311 85.5587 16.5552C86.5357 17.0793 87.4479 17.4046 88.0345 17.4715C88.621 17.5384 93.1784 20.806 93.6336 20.806C94.0888 20.806 106.586 32.6475 106.586 32.6475C106.586 32.6475 107.881 35.6567 108.41 35.7868C108.94 35.9169 113.621 47.8235 113.621 47.8235C113.621 47.8235 114.272 50.7007 111.734 51.4219C109.195 52.1431 91.2837 56.4589 90.1124 56.1968C88.9411 55.9347 83.4049 55.1504 83.4049 55.1504C83.4049 55.1504 83.4697 55.1504 83.3402 54.4311C83.2107 53.7118 83.0145 53.9069 83.2736 53.2527C83.5326 52.5984 83.7954 52.6635 83.4697 52.2713C83.144 51.8791 83.4697 51.6821 82.428 51.0279C81.3862 50.3736 80.2076 49.6543 80.1484 49.4592C80.0891 49.264 79.1714 47.9536 78.7162 47.8886C78.261 47.8235 65.4956 44.2251 65.4956 44.2251L62.4999 43.2438C62.4999 43.2438 61.0677 42.2624 61.3897 41.6751C61.7116 41.0877 62.82 35.7738 62.82 35.7738L67.3996 35.2069C67.3996 35.2069 66.7168 24.1293 64.1522 22.2706C61.5877 20.4119 63.4769 19.7149 63.4769 19.7149Z" fill="#FDC80C"/>
<path opacity="0.1" d="M65.3644 66.2709C65.3644 66.2709 64.9536 67.0143 64.3356 68.1184C64.2394 64.7059 61.8635 64.0442 60.6553 63.9308C61.3954 63.3416 61.9135 63.0015 61.9135 63.0015L65.3644 66.2709Z" fill="#020202"/>
<path d="M62.1817 41.478L62.4963 43.2438C62.4963 43.2438 63.7341 44.7493 63.7341 45.2065C63.7341 45.6637 65.1663 46.9722 65.5586 47.6915C65.9508 48.4108 67.3164 48.5428 66.7946 49.7863C66.2728 51.0297 63.279 60.5145 63.279 60.5145L60.2185 63.9158C60.2185 63.9158 65.2977 63.4567 64.515 69.5402L71.0929 63.7783L76.2442 54.3642C76.2442 54.3642 71.2298 44.8143 71.0355 44.03C70.8413 43.2456 62.1817 41.478 62.1817 41.478Z" fill="#FDC80C"/>
<path opacity="0.1" d="M77.4119 44.7493C77.4119 44.7493 81.5788 41.8052 81.5788 41.4781C81.5788 41.1509 77.4119 44.7493 77.4119 44.7493Z" fill="#020202"/>
<path opacity="0.1" d="M84.3857 48.4127C84.3857 48.4127 86.6061 47.8886 86.7912 46.7121C86.9762 45.5355 84.3857 48.4127 84.3857 48.4127Z" fill="#020202"/>
<path opacity="0.1" d="M86.2026 51.4219C86.2026 51.4219 89.3297 49.8662 89.1983 49.5967C89.067 49.3272 86.2026 51.4219 86.2026 51.4219Z" fill="#020202"/>
<path opacity="0.1" d="M102.939 41.4575C102.939 41.4575 101.644 42.3069 102.029 43.1024C102.414 43.8979 102.939 41.4575 102.939 41.4575Z" fill="#020202"/>
<path opacity="0.1" d="M106.775 41.8052C106.775 41.8052 103.085 45.3366 103.92 45.4035C104.754 45.4705 106.775 41.8052 106.775 41.8052Z" fill="#020202"/>
<path opacity="0.1" d="M98.3816 96.5576C98.3816 96.5576 103.135 97.4739 103.265 97.8011C103.394 98.1282 98.3816 96.5576 98.3816 96.5576Z" fill="#020202"/>
<path opacity="0.1" d="M100.075 99.697C100.075 99.697 102.613 101.268 102.678 101.725C102.743 102.182 100.075 99.697 100.075 99.697Z" fill="#020202"/>
<path opacity="0.1" d="M99.488 103.23C99.488 103.23 99.8785 104.996 100.53 105.258C101.181 105.52 99.488 103.23 99.488 103.23Z" fill="#020202"/>
<path opacity="0.1" d="M61.0826 25.9692C61.0826 25.9878 61.0826 26.0083 61.0733 26.0269C60.9845 26.6086 60.7477 27.2387 60.2037 27.432C59.875 27.5249 59.5237 27.4924 59.2174 27.3409C58.2923 26.9339 57.4689 25.9562 56.4808 26.1923C56.0108 26.3038 55.6814 26.6625 55.4483 27.103C55.2867 27.4201 55.1625 27.7551 55.0782 28.1011C54.8932 28.8297 54.7452 29.6215 55.0283 30.3148C55.0748 30.4282 55.1305 30.5376 55.1948 30.6419C55.4576 31.0638 55.8276 31.4226 56.0867 31.8482C56.4086 32.3798 56.4919 33.1771 55.9904 33.5414C55.8646 33.6245 55.722 33.6784 55.5729 33.6993C55.4237 33.7202 55.2718 33.7076 55.1282 33.6623C54.7609 33.5463 54.4077 33.3892 54.0754 33.1939C53.4203 32.85 52.5951 32.6363 51.9734 33.034C51.7587 33.1678 51.5867 33.3611 51.3813 33.5024C50.9544 33.768 50.4479 33.8739 49.951 33.8017C48.7741 33.6808 48.3338 32.9318 47.4345 32.3519C46.7758 31.9244 45.3991 31.7423 45.0069 32.6158C44.7552 33.1734 45.129 33.876 44.8829 34.4447C44.6368 35.0135 43.8541 35.1882 43.4914 35.7161C43.0141 36.4112 43.4581 37.4168 43.1084 38.1881C43.0549 38.3076 42.9831 38.418 42.8956 38.5152C40.9348 36.3929 39.8698 33.5894 39.9244 30.6945C39.979 27.7995 41.149 25.0387 43.1884 22.9924C45.2279 20.9462 47.9778 19.7742 50.8598 19.7227C53.7418 19.6713 56.5315 20.7444 58.642 22.7166L59.1416 22.698C59.6282 22.6794 60.1444 22.6534 60.6644 22.6218C60.7873 22.8833 60.8834 23.1567 60.9512 23.4377C61.1525 24.2658 61.1971 25.1246 61.0826 25.9692Z" fill="#020202"/>
<path d="M44.7422 32.3556C44.4887 32.9132 44.8625 33.6158 44.6182 34.1827C44.374 34.7496 43.5858 34.9261 43.2268 35.454C42.7476 36.151 43.1916 37.1565 42.8438 37.926C42.4441 38.8052 41.2377 38.9427 40.3125 38.6862C39.5221 38.4595 38.7968 38.0471 38.1964 37.4832C37.5961 36.9192 37.1379 36.2198 36.8598 35.4428C36.2325 33.6492 36.6378 31.6753 36.4749 29.7814C36.4056 28.9697 36.2314 28.1706 35.9568 27.4041C35.6885 26.6607 35.3222 25.9283 35.2352 25.1384C35.173 24.4682 35.3121 23.7946 35.6347 23.2045C35.9572 22.6145 36.4484 22.135 37.0448 21.8281C37.8072 21.4564 38.7453 21.3504 39.3004 20.7129C39.726 20.2185 39.8166 19.529 40.0146 18.9063C40.5494 17.2335 42.1462 15.8692 43.9003 15.886C45.3029 15.8971 46.6758 16.7279 48.0469 16.4008C48.8222 16.215 49.5272 15.6574 50.3265 15.7373C50.7094 15.7978 51.0762 15.9349 51.4053 16.1406C53.5334 17.2953 55.5584 18.6323 57.4577 20.1367C57.8506 20.4766 58.2808 20.7703 58.74 21.0122C59.0357 21.1279 59.3242 21.2614 59.6041 21.4118C60.2017 21.7835 60.5144 22.4917 60.6847 23.1794C60.889 24.007 60.9355 24.8659 60.8216 25.7109C60.7402 26.3075 60.507 26.9766 59.9427 27.1755C59.613 27.2679 59.2609 27.2341 58.9546 27.0807C58.0294 26.6774 57.2079 25.6997 56.2198 25.9339C55.4131 26.1198 55.0245 27.038 54.8136 27.8428C54.6285 28.5714 54.4768 29.3632 54.7636 30.0583C55.0005 30.6345 55.5037 31.0564 55.8202 31.5898C56.1366 32.1233 56.2272 32.9206 55.7239 33.2831C55.1688 33.6864 54.4157 33.2571 53.807 32.9374C53.1557 32.5935 52.3267 32.3798 51.7069 32.7757C51.4941 32.9095 51.322 33.1028 51.1148 33.2459C50.6875 33.5089 50.1824 33.6141 49.6863 33.5433C48.5076 33.4225 48.0673 32.6734 47.1698 32.0935C46.5093 31.6623 45.1363 31.4802 44.7422 32.3556Z" fill="#474463"/>
<path opacity="0.1" d="M80.7536 58.8528C80.7036 59.1316 80.3225 59.1632 80.2447 59.4346C79.5046 62.0572 77.8763 64.4158 75.3636 65.3823C74.8806 64.6184 74.481 64.1184 74.481 64.1184C74.481 64.1184 79.1697 55.4849 79.4306 56.6615C79.5139 57.0276 80.056 57.8789 80.7536 58.8528Z" fill="#020202"/>
<path d="M80.8923 57.0462C80.8926 58.7542 80.3888 60.4239 79.4444 61.8442C78.5 63.2645 77.1575 64.3716 75.5867 65.0255C74.0159 65.6794 72.2873 65.8507 70.6196 65.5177C68.9519 65.1847 67.42 64.3624 66.2175 63.1548C65.0151 61.9472 64.1961 60.4085 63.8643 58.7334C63.5324 57.0582 63.7026 55.3218 64.3532 53.7438C65.0038 52.1658 66.1056 50.8171 67.5194 49.8681C68.9331 48.9192 70.5953 48.4127 72.2956 48.4127C73.4256 48.4085 74.5451 48.6289 75.5899 49.0613C76.6346 49.4937 77.5839 50.1294 78.383 50.9319C79.1821 51.7344 79.8152 52.6878 80.2458 53.7372C80.6765 54.7865 80.8962 55.9111 80.8923 57.0462Z" fill="#FFC1C8"/>
<path opacity="0.1" d="M76.1406 131.389L76.2035 132.53C75.4504 132.698 74.0182 132.917 73.1837 132.404C72.105 131.74 70.5119 131.579 69.0519 130.675C69.078 130.27 69.0643 129.864 69.0112 129.462L76.1406 131.389Z" fill="#020202"/>
<path opacity="0.1" d="M88.4768 133.956C88.4269 134.211 88.3806 134.367 88.3806 134.367C88.3806 134.367 82.6354 133.776 80.9793 132.978C80.9793 132.402 80.9626 131.677 80.9626 131.677L88.1937 132.56L88.4768 133.956Z" fill="#020202"/>
<path d="M87.1798 108.005C86.7894 109.052 86.5932 109.249 86.9855 109.771C87.3778 110.293 87.1798 113.042 86.5581 113.302C85.9364 113.563 83.5976 115.133 83.5976 115.133C83.5976 115.133 84.8928 116.834 84.9316 117.549C84.9657 118.007 85.1417 118.441 85.4349 118.793C85.4349 118.793 87.4407 123.11 87.8404 124.484C88.24 125.858 88.6064 128.016 88.6064 128.016C88.6064 128.016 87.9051 129.978 88.3899 131.092C88.8747 132.205 88.3899 133.839 88.3899 133.839C88.3899 133.839 81.3938 133.119 80.6185 132.196C79.8432 131.272 80.3595 129.194 80.3595 129.194C80.1996 128.268 79.8682 127.38 79.3825 126.577C78.5998 125.333 79.5675 124.027 79.3825 123.96C79.1975 123.893 78.5998 123.176 78.0114 121.999C77.423 120.822 77.0566 121.278 77.0566 121.278C77.0566 121.278 77.819 127.885 77.0566 128.475C76.2943 129.064 76.1907 128.802 76.3868 129.59C76.5388 130.346 76.6475 131.111 76.7125 131.88C76.7125 131.88 74.3681 132.599 73.1968 131.88C72.0256 131.16 70.2622 131.028 68.7135 129.917C67.1648 128.805 69.4148 126.908 69.8052 126.646C70.1956 126.384 69.6757 122.59 69.6757 122.59L69.1539 118.862C69.1539 118.862 70.9117 119.254 70.3344 117.815C69.7571 116.377 69.0891 111.405 68.7634 110.62C68.4378 109.836 69.8736 108.788 69.6757 108.265C69.4777 107.743 70.5213 104.734 70.5213 104.734C70.5213 104.734 70.5879 102.249 71.2373 101.782C71.4853 101.608 71.6463 101.065 71.7536 100.465C71.8674 99.756 71.9348 99.0407 71.9553 98.3233C71.9553 98.3233 86.8671 97.2769 89.2762 98.7155C90.3605 99.3623 90.2847 100.554 89.8313 101.76C89.2762 103.232 88.1364 104.734 87.8496 105.278C87.3112 106.282 87.5702 106.959 87.1798 108.005Z" fill="#575988"/>
<path opacity="0.1" d="M89.8127 101.76C87.9624 102.282 85.4977 103.05 85.0962 103.49C84.4449 104.212 82.23 99.4348 82.23 99.4348C82.23 99.4348 82.3614 103.026 79.4305 101.524C76.8937 100.223 72.7989 100.394 71.7405 100.465C71.8543 99.756 71.9217 99.0407 71.9422 98.3233C71.9422 98.3233 86.854 97.2769 89.2631 98.7155C90.3474 99.3623 90.2716 100.554 89.8127 101.76Z" fill="#020202"/>
<path d="M82.2301 62.2152C82.2301 62.2152 83.5253 60.6446 83.7936 61.2338C84.0619 61.823 85.5903 62.9995 85.5903 62.9995C85.5903 62.9995 86.0288 64.3731 86.8004 64.5701C87.572 64.7671 93.3672 72.6163 93.3672 72.6163L91.2819 76.867L89.5889 87.2031C89.5889 87.2031 89.6629 88.8387 89.2021 89.4335C88.7414 90.0282 86.9817 89.8907 87.7977 90.61C88.6137 91.3293 89.785 91.9836 90.4363 95.2567C91.0876 98.5298 91.8685 100.424 91.8685 100.424C91.8685 100.424 85.7476 101.994 85.0962 102.714C84.4449 103.433 82.2301 98.658 82.2301 98.658C82.2301 98.658 82.3614 102.247 79.4305 100.747C76.4996 99.2472 71.4852 99.7045 71.4852 99.7045V95.8384C71.4852 95.8384 72.4622 94.3329 71.9422 93.2865C71.4223 92.2401 72.2975 90.2773 72.2975 90.2773C72.2975 90.2773 72.007 88.2495 71.4852 87.073C70.9634 85.8964 71.1595 80.3353 71.1595 80.3353C71.1595 80.3353 70.7636 76.7369 71.1244 74.9043C71.4306 73.3158 71.9713 71.7822 72.7286 70.3543C73.4447 68.9528 73.898 67.6443 73.7037 67.1202C73.5095 66.5961 75.4227 65.4623 75.4227 65.4623L76.4829 67.1853L76.7531 68.215C76.7531 68.215 82.3614 64.1779 82.2301 62.2152Z" fill="#DCE6F2"/>
<path d="M91.6021 71.3076C91.6021 71.3076 95.2491 74.9041 95.6395 75.4933C96.0299 76.0825 97.3381 79.1456 95.6451 80.0749C93.952 81.0043 87.3186 82.4373 86.6598 81.9429C86.0011 81.4485 82.034 82.5005 82.034 82.5005C82.034 82.5005 75.3987 84.1361 76.8309 81.4541C78.263 78.772 81.651 79.2237 81.651 79.2237C81.651 79.2237 87.1243 79.2144 87.709 78.6661C88.2937 78.1178 92.7049 76.9412 91.7057 74.5175C90.7065 72.0938 91.6021 71.3076 91.6021 71.3076Z" fill="#FFC1C8"/>
<path opacity="0.1" d="M80.8923 87.4001C80.8923 87.4001 72.3974 94.7921 73.243 94.7921C74.0886 94.7921 80.8923 87.4001 80.8923 87.4001Z" fill="#020202"/>
<path opacity="0.1" d="M86.558 90.4092C86.558 90.4092 83.8584 91.0616 84.3802 91.4556C84.902 91.8496 86.558 90.4092 86.558 90.4092Z" fill="#020202"/>
<path opacity="0.1" d="M77.0381 72.4844C77.0381 72.4844 80.4075 72.7873 79.8136 73.8468C79.2196 74.9062 77.0381 72.4844 77.0381 72.4844Z" fill="#020202"/>
<path opacity="0.1" d="M74.938 104.254C74.938 104.254 74.481 105.585 74.938 106.299C75.395 107.013 74.938 108.715 74.938 108.715V114.663C74.938 114.663 74.8751 118.981 76.4349 120.484L74.938 104.254Z" fill="#020202"/>
<path opacity="0.1" d="M70.4768 122.789C70.4768 122.789 71.3872 124.129 71.5185 124.62C71.6499 125.111 70.4768 122.789 70.4768 122.789Z" fill="#020202"/>
<path opacity="0.1" d="M70.7043 120.107C70.7043 120.107 72.8211 119.715 73.1468 119.943C73.4724 120.172 70.7043 120.107 70.7043 120.107Z" fill="#020202"/>
<path opacity="0.1" d="M70.0863 128.12C70.0863 128.12 69.4665 128.185 70.7044 128.863C71.9422 129.542 74.3514 130.4 74.3828 130.107C74.4143 129.813 70.0863 128.12 70.0863 128.12Z" fill="#020202"/>
<path opacity="0.1" d="M79.1475 121.611C79.3658 121.611 82.0913 121.447 81.9341 121.873C81.7768 122.298 79.1475 121.611 79.1475 121.611Z" fill="#020202"/>
<path opacity="0.1" d="M82.8499 117.784C82.8499 117.784 83.4679 116.706 83.6955 117.163C83.923 117.62 82.8499 117.784 82.8499 117.784Z" fill="#020202"/>
<path opacity="0.1" d="M80.8924 57.0461C80.8934 57.8488 80.7825 58.6478 80.563 59.4196C80.2041 59.7468 79.5842 59.7505 79.142 59.507C78.6239 59.2207 78.2853 58.7003 77.9485 58.2059C77.6117 57.7115 77.2287 57.2171 76.6773 57.0052C75.9797 56.7413 75.1841 57.0052 74.5772 57.4439C73.9703 57.8825 73.4855 58.4624 72.9119 58.9308C72.3383 59.3992 71.6074 59.7783 70.8765 59.6631C70.4047 59.5906 69.9865 59.323 69.5813 59.0646C69.0262 58.7133 68.4304 58.1669 67.8216 57.9308C67.2129 57.6948 66.7114 58.1167 66.1323 58.1167C65.6715 58.284 65.1701 58.665 65.2626 59.1464C65.3122 59.325 65.3923 59.4936 65.4995 59.6445C65.6854 60.0125 65.7588 60.4275 65.7104 60.8373C65.662 61.2471 65.494 61.6334 65.2275 61.9474C64.4605 60.8336 63.9651 59.5542 63.7812 58.2126C63.5974 56.8709 63.7303 55.5047 64.1691 54.2241C64.608 52.9436 65.3405 51.7847 66.3076 50.8411C67.2746 49.8974 68.449 49.1955 69.736 48.7919C71.023 48.3884 72.3864 48.2946 73.7161 48.518C75.0459 48.7415 76.3046 49.276 77.3908 50.0784C78.4769 50.8807 79.3599 51.9285 79.9685 53.1369C80.5771 54.3454 80.8942 55.6807 80.8942 57.035L80.8924 57.0461Z" fill="#020202"/>
<path d="M66.1304 57.8659C65.6696 58.0332 65.1682 58.4142 65.2589 58.8975C65.3103 59.0751 65.3909 59.2429 65.4975 59.3937C66.0378 60.3621 65.5808 61.7524 64.5724 62.2022C64.4143 62.2849 64.2338 62.3136 64.058 62.284C63.9186 62.2405 63.7917 62.164 63.6879 62.0609C63.1456 61.574 62.7716 60.9263 62.6203 60.2116C62.4612 59.4681 62.5592 58.68 62.4778 57.9161C62.3964 57.1522 62.1355 56.3994 62.0448 55.6299C61.9806 55.2496 62.021 54.8589 62.1614 54.4999C62.2834 54.263 62.4407 54.0461 62.6277 53.8568C63.1476 53.275 63.6898 52.6802 63.9507 51.9423C64.3633 50.7677 64.0635 49.2714 64.9665 48.4109C65.3847 48.0168 65.9694 47.87 66.4875 47.621C66.9753 47.3608 67.4424 47.0631 67.8845 46.7307C69.559 45.5746 71.5944 44.6861 73.5854 45.095C74.3808 45.2885 75.1425 45.6018 75.8446 46.0244C77.1487 46.7465 78.387 47.5824 79.5453 48.5224C80.0462 48.8945 80.4836 49.3459 80.8405 49.8588C81.1064 50.2979 81.2978 50.7784 81.4067 51.2807C81.6726 52.3764 81.7091 53.5156 81.514 54.6263C81.329 55.7154 80.909 56.773 80.8923 57.8789C80.8923 58.2507 80.9219 58.6521 80.7313 58.9718C80.426 59.4811 79.6693 59.5294 79.1512 59.2469C78.6331 58.9644 78.2945 58.4402 77.9595 57.9458C77.6246 57.4514 77.2398 56.957 76.6884 56.747C75.9908 56.4812 75.1951 56.747 74.5882 57.1838C73.9813 57.6206 73.4984 58.2023 72.9229 58.6707C72.3475 59.1391 71.6277 59.5183 70.8876 59.403C70.4157 59.3305 69.9976 59.0648 69.5923 58.8064C69.0372 58.4533 68.4414 57.9068 67.8345 57.6726C67.2276 57.4384 66.7077 57.8659 66.1304 57.8659Z" fill="#794F6A"/>
<path d="M85.8771 71.3076C85.8771 71.3076 76.3054 80.2032 78.2575 84.651C80.2096 89.0988 88.8044 81.2496 88.8044 81.2496L91.8685 74.1272L85.8771 71.3076Z" fill="#F8BDC5"/>
<g opacity="0.1">
<path d="M64.5687 61.6742C64.4113 61.7569 64.2313 61.7856 64.0562 61.756C63.9162 61.7129 63.7891 61.6357 63.6861 61.5311C63.1437 61.0447 62.7692 60.3977 62.6166 59.6836C62.4594 58.9308 62.5574 58.1502 62.476 57.3863C62.3946 56.6223 62.1318 55.8714 62.043 55.1001C62.043 55.0629 62.043 55.0239 62.0338 54.9849C62.0137 55.1977 62.0168 55.4121 62.043 55.6242C62.1318 56.3937 62.3946 57.1372 62.476 57.9104C62.5574 58.6836 62.4594 59.455 62.6166 60.2059C62.7687 60.9207 63.1433 61.5684 63.6861 62.0552C63.7896 62.1586 63.9166 62.2352 64.0562 62.2783C64.2313 62.3079 64.4113 62.2792 64.5687 62.1965C65.3644 61.8415 65.814 60.9066 65.7085 60.0516C65.67 60.3966 65.5453 60.7262 65.346 61.0099C65.1467 61.2935 64.8794 61.522 64.5687 61.6742Z" fill="#020202"/>
<path d="M81.5012 54.1003C81.3161 55.1894 80.8961 56.247 80.8813 57.3529C80.8813 57.7247 80.9109 58.1261 80.7185 58.4458C80.415 58.9551 79.6582 59.0034 79.1401 58.7209C78.6221 58.4384 78.2834 57.9161 77.9467 57.4198C77.6099 56.9236 77.2287 56.431 76.6755 56.221C75.9798 55.9571 75.1841 56.221 74.5772 56.6596C73.9703 57.0983 73.4855 57.6763 72.9119 58.1466C72.3383 58.6168 71.6074 58.9941 70.8766 58.8807C70.4047 58.8064 69.9865 58.5406 69.5813 58.2823C69.0262 57.9291 68.4304 57.3845 67.8235 57.1485C67.2166 56.9124 66.7133 57.3343 66.1341 57.3343C65.6734 57.5035 65.172 57.8826 65.2608 58.3677C65.2721 58.4202 65.2889 58.4712 65.3107 58.5202C65.492 58.2029 65.7862 57.9665 66.1341 57.8585C66.7115 57.8585 67.2221 57.4421 67.8235 57.6726C68.4249 57.9031 69.0318 58.4533 69.5813 58.8064C69.9828 59.0648 70.401 59.3305 70.8766 59.403C71.6167 59.5183 72.342 59.1447 72.9119 58.6707C73.4818 58.1968 73.9722 57.6113 74.5772 57.1838C75.1823 56.7563 75.9798 56.4812 76.6755 56.747C77.2306 56.957 77.6118 57.457 77.9467 57.9458C78.2816 58.4347 78.6221 58.9532 79.1401 59.2469C79.6582 59.5406 80.415 59.4811 80.7185 58.9718C80.9035 58.6521 80.8758 58.2525 80.8813 57.8789C80.8961 56.773 81.3106 55.7154 81.5012 54.6263C81.5988 54.0668 81.6385 53.4988 81.6196 52.9312C81.6078 53.3232 81.5682 53.7139 81.5012 54.1003Z" fill="#020202"/>
</g>
<path opacity="0.1" d="M74.4162 26.0399C74.4162 26.0399 70.9005 32.4504 75.7114 35.7217C80.5223 38.9929 80.9867 38.6658 80.9867 38.6658C80.9867 38.6658 80.9201 39.4501 80.9867 39.6472C81.0533 39.8442 82.2819 40.2995 82.2819 40.2995C82.2819 40.2995 83.7788 42.7158 85.9271 43.7678C88.0753 44.8198 88.4676 47.2993 88.4676 47.2993C88.4676 47.2993 88.4676 48.1506 89.5778 48.9349C90.688 49.7193 91.5428 52.0091 91.5428 52.0091V54.1039C91.5428 54.431 91.9333 55.4049 91.0876 55.509C90.242 55.6131 90.9563 57.5703 90.9563 57.5703C90.9563 57.5703 90.0459 58.6855 90.2402 59.2059C90.4345 59.7263 89.8498 60.7746 89.8498 60.7746C89.8498 60.7746 89.1337 61.821 89.1985 62.0181C89.2632 62.2151 88.4176 62.9344 88.6119 63.3916C88.8062 63.8488 87.6368 64.438 87.8311 64.9622C88.0254 65.4863 86.9984 65.7465 86.9984 65.7465L84.1841 72.289C84.1841 72.289 90.1051 73.5901 91.6335 76.8669L99.0977 63.1295C99.0977 63.1295 103.265 52.8604 103.396 52.2062C103.527 51.5519 102.484 49.197 102.484 49.197L97.4047 39.9037L89.785 29.1104C89.785 29.1104 83.7289 16.1629 74.4162 26.0399Z" fill="#020202"/>
<path opacity="0.1" d="M81.9341 28.7442C81.9341 28.7442 72.786 31.969 77.6043 35.2402C82.4226 38.5115 82.8796 38.1825 82.8796 38.1825C82.8796 38.1825 82.8148 38.9687 82.8796 39.1639C82.9443 39.359 84.1748 39.8181 84.1748 39.8181C84.1748 39.8181 85.6736 42.2344 87.8218 43.2864C89.9701 44.3384 90.3623 46.8179 90.3623 46.8179C90.3623 46.8179 90.3623 47.6691 91.4725 48.4535C92.5827 49.2378 93.4265 51.5277 93.4265 51.5277V53.6206C93.4265 53.9477 93.8169 54.9216 92.9695 55.0276C92.122 55.1335 92.8399 57.0888 92.8399 57.0888C92.8399 57.0888 91.9277 58.204 92.1238 58.7226C92.32 59.2412 91.7334 60.2932 91.7334 60.2932C91.7334 60.2932 91.0174 61.3396 91.0821 61.5366C91.1469 61.7337 90.2994 62.453 90.4956 62.9102C90.6917 63.3674 89.5186 63.9566 89.7147 64.4808C89.9108 65.0049 88.8802 65.2651 88.8802 65.2651L86.0677 71.8058C86.0677 71.8058 90.9452 72.0585 92.4847 75.3372L100.98 62.6556C100.98 62.6556 105.148 52.3864 105.278 51.7322C105.407 51.0779 104.369 48.7156 104.369 48.7156L99.2902 39.4222L87.7034 32.7087C87.7034 32.7087 91.2468 18.8654 81.9341 28.7442Z" fill="#020202"/>
<path d="M74.9379 26.0399C74.9379 26.0399 71.4223 32.4504 76.2331 35.7217C81.044 38.9929 81.5084 38.6658 81.5084 38.6658C81.5084 38.6658 81.4437 39.4502 81.5084 39.6472C81.5732 39.8442 82.8037 40.2996 82.8037 40.2996C82.8037 40.2996 84.3024 42.7159 86.4506 43.7679C88.5989 44.8199 88.9912 47.2993 88.9912 47.2993C88.9912 47.2993 88.9912 48.1506 90.1014 48.9349C91.2116 49.7193 92.0646 52.0092 92.0646 52.0092V54.1039C92.0646 54.431 92.455 55.405 91.6075 55.509C90.7601 55.6131 91.478 57.5703 91.478 57.5703C91.478 57.5703 90.5658 58.6855 90.7619 59.2059C90.9581 59.7264 90.3715 60.7746 90.3715 60.7746C90.3715 60.7746 89.6554 61.8211 89.7202 62.0181C89.785 62.2151 88.9375 62.9344 89.1336 63.3916C89.3298 63.8489 88.1567 64.4381 88.3528 64.9622C88.5489 65.4864 87.5183 65.7466 87.5183 65.7466L84.7058 72.2891C84.7058 72.2891 90.6157 73.5901 92.1534 76.867L99.6176 63.1296C99.6176 63.1296 103.786 52.8605 103.916 52.2062C104.045 51.5519 103.004 49.197 103.004 49.197L97.9246 39.9037L90.3067 29.1141C90.3067 29.1141 84.2488 16.163 74.9379 26.0399Z" fill="#FDC80C"/>
<g opacity="0.1">
<path d="M36.475 29.2591C36.4066 28.4468 36.2324 27.6469 35.9569 26.88C35.6886 26.1366 35.3222 25.4043 35.2353 24.6143C35.2353 24.5902 35.2353 24.5679 35.2353 24.5437C35.2158 24.7415 35.2158 24.9407 35.2353 25.1385C35.3222 25.9284 35.6886 26.6551 35.9569 27.4042C36.2324 28.1704 36.4066 28.9697 36.475 29.7814C36.5009 30.0862 36.512 30.3948 36.5157 30.7108C36.5213 30.2182 36.5157 29.7368 36.475 29.2591Z" fill="#020202"/>
<path d="M42.8439 37.4038C42.4461 38.2811 41.2378 38.4205 40.3127 38.1622C39.5229 37.9348 38.7981 37.5224 38.1979 36.9589C37.5976 36.3954 37.1391 35.6968 36.8599 34.9207C36.6028 34.1219 36.4777 33.2862 36.4899 32.4468C36.4788 33.4709 36.5176 34.482 36.8599 35.4429C37.139 36.2194 37.5975 36.9182 38.1977 37.4821C38.7979 38.0459 39.5228 38.4586 40.3127 38.6863C41.2378 38.9428 42.4461 38.8053 42.8439 37.9261C43.0123 37.5544 42.9956 37.1232 42.9882 36.6994C42.9848 36.9413 42.9359 37.1803 42.8439 37.4038Z" fill="#020202"/>
<path d="M60.8216 25.1851C60.7421 25.7798 60.5071 26.449 59.9427 26.6478C59.6138 26.7401 59.2626 26.707 58.9565 26.5549C58.0313 26.1497 57.2079 25.172 56.2198 25.4081C55.4131 25.594 55.0264 26.5103 54.8136 27.3169C54.6593 27.8266 54.5923 28.359 54.6156 28.8912C54.6509 28.5354 54.7172 28.1834 54.8136 27.8392C55.0264 27.0344 55.4131 26.1237 56.2198 25.9304C57.2079 25.6962 58.0239 26.6738 58.9565 27.0772C59.2621 27.2306 59.6136 27.2644 59.9427 27.172C60.5071 26.9731 60.7421 26.304 60.8216 25.7073C60.8725 25.3274 60.8911 24.9437 60.8771 24.5605C60.8679 24.7687 60.8494 24.9787 60.8216 25.1851Z" fill="#020202"/>
<path d="M55.7241 32.7572C55.169 33.1605 54.4159 32.7311 53.8072 32.4096C53.1559 32.0657 52.3269 31.852 51.707 32.2479C51.4943 32.3817 51.3222 32.575 51.1149 32.7181C50.6885 32.9831 50.1826 33.0884 49.6865 33.0155C48.5078 32.8947 48.0674 32.1457 47.17 31.5658C46.5113 31.1401 45.1347 30.958 44.7424 31.8315C44.6483 32.0887 44.6222 32.366 44.6665 32.6363C44.6787 32.5397 44.7042 32.4452 44.7424 32.3557C45.1365 31.4803 46.5113 31.6624 47.17 32.0899C48.0674 32.6698 48.5078 33.4188 49.6865 33.5397C50.1828 33.611 50.6884 33.5051 51.1149 33.2404C51.3222 33.0992 51.4943 32.9059 51.707 32.772C52.3325 32.3817 53.1559 32.5862 53.8072 32.9337C54.4159 33.2534 55.1653 33.6772 55.7241 33.2794C56.0498 33.0453 56.1275 32.6289 56.0553 32.2181C56.0173 32.4337 55.8989 32.6264 55.7241 32.7572Z" fill="#020202"/>
<path d="M44.6184 33.6604C44.3649 34.244 43.5859 34.4038 43.227 34.9298C42.9587 35.3202 42.9809 35.8071 42.9901 36.296C42.9867 35.9983 43.069 35.7059 43.227 35.454C43.5859 34.928 44.3649 34.7663 44.6184 34.1827C44.7071 33.9287 44.7312 33.6566 44.6887 33.3909C44.6773 33.4834 44.6537 33.5741 44.6184 33.6604Z" fill="#020202"/>
</g>
</g>
<defs>
<linearGradient id="paint0_linear_280_70" x1="74.455" y1="146.467" x2="74.455" y2="13.9809" gradientUnits="userSpaceOnUse">
<stop stop-color="#808080" stop-opacity="0.25"/>
<stop offset="0.54" stop-color="#808080" stop-opacity="0.12"/>
<stop offset="1" stop-color="#808080" stop-opacity="0.1"/>
</linearGradient>
<linearGradient id="paint1_linear_280_70" x1="74.455" y1="146.967" x2="74.455" y2="14.4809" gradientUnits="userSpaceOnUse">
<stop stop-color="#808080" stop-opacity="0.25"/>
<stop offset="0.54" stop-color="#808080" stop-opacity="0.12"/>
<stop offset="1" stop-color="#808080" stop-opacity="0.1"/>
</linearGradient>
<clipPath id="clip0_280_70">
<rect width="203" height="147" fill="white" transform="translate(-21 0.5)"/>
</clipPath>
</defs>
</svg>
