<svg width="227" height="170" viewBox="0 0 227 170" fill="none" xmlns="http://www.w3.org/2000/svg">
<g clip-path="url(#clip0_491_2295)">
<path d="M86.6341 164.39L82.4366 165.604L75.7549 149.985L81.9502 148.192L86.6341 164.39Z" fill="#9E616A"/>
<path d="M96.6729 107.785L92.3423 112.406C92.3423 112.406 69.5345 122.515 69.5345 127.714C69.5345 132.913 75.0199 155.441 77.3296 157.174C78.7208 158.223 78.0919 159.353 78.7821 160.954L86.8569 158.04C86.8569 158.04 86.2795 156.307 86.8569 155.441C87.4343 154.574 86.8569 153.997 86.8569 153.997C86.8569 153.997 85.9908 154.285 86.2795 153.419C86.5682 152.552 86.5682 152.264 86.2795 151.975C85.9908 151.686 85.1246 149.087 85.1246 149.087C85.1246 149.087 85.4133 138.689 81.3715 134.934C81.3715 134.934 100.137 129.447 102.447 125.692C104.757 121.937 105.334 108.363 105.334 108.363L96.6729 107.785Z" fill="#2F2E41"/>
<path d="M88.3453 166.784L74.358 169.672L74.3215 169.495C74.0236 168.05 74.3114 166.546 75.1216 165.314C75.9318 164.082 77.1981 163.222 78.6419 162.924L78.6423 162.924L80.7971 160.457L85.9642 161.412L87.1852 161.16L88.3453 166.784Z" fill="#2F2E41"/>
<path d="M101.904 146.847L96.5476 150.44L107.661 163.287L111.29 160.852L101.904 146.847Z" fill="#9E616A"/>
<path d="M109.905 99.8235C107.044 93.7884 115.766 111.634 114.611 117.161C113.709 121.476 96.8684 135.217 96.8684 135.217C101.943 137.38 105.192 147.26 105.192 147.26C105.192 147.26 106.887 149.413 107.257 149.586C107.626 149.76 107.724 150.032 107.746 150.945C107.767 151.858 108.484 151.293 108.484 151.293C108.484 151.293 109.223 151.641 108.973 152.652C108.724 153.663 109.854 155.097 109.854 155.097L103.611 160.919C102.42 159.647 102.261 158.027 100.596 157.511C97.8364 156.663 85.0467 137.326 83.2863 132.435C81.5258 127.543 99.5619 110.303 99.5619 110.303L101.094 101.77L109.905 99.8235Z" fill="#2F2E41"/>
<path d="M113.12 165.16L99.682 170L99.6208 169.83C99.1215 168.442 99.1936 166.913 99.8213 165.579C100.449 164.244 101.581 163.214 102.968 162.714L102.968 162.714L104.752 159.967L110.003 160.18L111.176 159.758L113.12 165.16Z" fill="#2F2E41"/>
<path d="M99.6651 70.9944L95.7753 73.9576L85.4423 76.6952C85.4423 76.6952 89.1448 102.691 87.3973 104.439C85.6498 106.187 87.2258 106.234 86.8747 108.505C86.5236 110.776 85.6701 115.431 85.6701 115.431C97.4656 121.678 107.635 121.845 115.803 114.536C115.907 114.084 115.854 113.609 115.652 113.192C115.45 112.774 115.112 112.437 114.693 112.238C113.172 111.432 116.094 107.665 114.852 107.035C113.609 106.405 115.357 100.942 115.357 100.942L119.144 83.0565L109.071 75.1723L107.539 71.4798L99.6651 70.9944Z" fill="#FFD917"/>
<path d="M104.519 94.2236C105.262 94.2236 105.864 93.6208 105.864 92.8772C105.864 92.1336 105.262 91.5308 104.519 91.5308C103.775 91.5308 103.173 92.1336 103.173 92.8772C103.173 93.6208 103.775 94.2236 104.519 94.2236Z" fill="#F2F2F2"/>
<path d="M103.647 69.3451C107.897 69.3451 111.341 65.8989 111.341 61.6478C111.341 57.3966 107.897 53.9504 103.647 53.9504C99.3978 53.9504 95.953 57.3966 95.953 61.6478C95.953 65.8989 99.3978 69.3451 103.647 69.3451Z" fill="#9E616A"/>
<path opacity="0.1" d="M114.852 91.8035L116.123 92.7577L116.759 88.3047L114.852 91.8035Z" fill="black"/>
<path d="M86.0518 76.6699C86.0518 76.6699 84.4621 76.3519 83.5083 79.2145C82.5545 82.0771 77.7666 97.1513 77.7666 99.0598C77.7666 100.968 100.837 105.129 100.837 105.129L98.571 97.1753L88.0911 93.8955L86.0518 76.6699Z" fill="#FFD917"/>
<path d="M101.847 103.95C103.898 103.95 105.561 102.286 105.561 100.235C105.561 98.183 103.898 96.5198 101.847 96.5198C99.7966 96.5198 98.134 98.183 98.134 100.235C98.134 102.286 99.7966 103.95 101.847 103.95Z" fill="#9E616A"/>
<path opacity="0.1" d="M88.7738 90.1101L89.0645 94.05L98.2893 98.8936L90.0845 93.388L88.7738 90.1101Z" fill="black"/>
<path d="M110.481 88.5589H110.361V85.2793C110.361 85.03 110.312 84.7832 110.217 84.5529C110.121 84.3226 109.981 84.1133 109.805 83.9371C109.629 83.7608 109.42 83.621 109.19 83.5256C108.959 83.4302 108.713 83.3811 108.464 83.3811H101.518C101.269 83.3811 101.022 83.4302 100.792 83.5256C100.562 83.621 100.353 83.7608 100.176 83.9371C100 84.1133 99.8604 84.3226 99.765 84.5529C99.6697 84.7832 99.6206 85.03 99.6206 85.2793V103.272C99.6206 103.521 99.6697 103.768 99.765 103.998C99.8604 104.228 100 104.438 100.176 104.614C100.353 104.79 100.562 104.93 100.792 105.025C101.022 105.121 101.269 105.17 101.518 105.17H108.464C108.713 105.17 108.959 105.121 109.19 105.025C109.42 104.93 109.629 104.79 109.805 104.614C109.981 104.438 110.121 104.228 110.217 103.998C110.312 103.768 110.361 103.521 110.361 103.272V90.8934H110.481V88.5589Z" fill="#F0F0F0"/>
<path d="M119.144 83.0566C119.144 83.0566 120.098 83.6928 120.733 86.5554C121.369 89.418 125.503 100.232 123.913 102.777C122.323 105.321 121.854 108.037 116.449 104.22L108.97 97.3697L114.375 92.2806L116.6 93.871L119.144 83.0566Z" fill="#FFD917"/>
<path d="M105.076 91.4004C105.953 91.4004 106.665 90.6884 106.665 89.8101C106.665 88.9317 105.953 88.2197 105.076 88.2197C104.198 88.2197 103.486 88.9317 103.486 89.8101C103.486 90.6884 104.198 91.4004 105.076 91.4004Z" fill="#FFD917"/>
<path d="M109.677 97.0091C111.728 97.0091 113.391 95.3459 113.391 93.2942C113.391 91.2426 111.728 89.5793 109.677 89.5793C107.627 89.5793 105.964 91.2426 105.964 93.2942C105.964 95.3459 107.627 97.0091 109.677 97.0091Z" fill="#9E616A"/>
<path opacity="0.1" d="M87.4919 102.548L98.9493 104.694L87.7942 105.122L87.4919 102.548Z" fill="black"/>
<path d="M110.422 56.5629C110.422 56.5629 112.425 52.7316 108.018 52.3833C108.018 52.3833 104.26 48.9736 100.431 51.7599C100.431 51.7599 98.3417 51.7599 97.1994 54.1248C97.1994 54.1248 95.5565 53.5014 95.1954 55.1697C95.1954 55.1697 93.9933 58.6526 95.1954 61.7873C96.3976 64.922 96.7969 65.2703 96.7969 65.2703C96.7969 65.2703 95.9535 61.3803 100.762 61.032C105.57 60.6837 109.982 57.6702 110.382 61.5015C110.783 65.3328 111.223 63.602 111.223 63.602C111.223 63.602 115.03 58.1302 110.422 56.5629Z" fill="#2F2E41"/>
<path d="M185.153 48.2966H122.864C121.909 48.2966 120.993 48.6761 120.318 49.3517C119.643 50.0272 119.264 50.9434 119.264 51.8987V66.8853C119.264 67.8406 119.643 68.7568 120.318 69.4323C120.993 70.1078 121.909 70.4873 122.864 70.4873H123.778V73.1949C123.778 73.3592 123.827 73.5198 123.918 73.6564C124.01 73.793 124.139 73.8995 124.291 73.9624C124.443 74.0252 124.61 74.0417 124.771 74.0096C124.932 73.9776 125.08 73.8985 125.196 73.7823L128.49 70.4873H185.153C186.107 70.4873 187.023 70.1078 187.699 69.4323C188.374 68.7568 188.753 67.8406 188.753 66.8853V51.8987C188.753 51.4257 188.66 50.9573 188.479 50.5202C188.298 50.0832 188.033 49.6861 187.699 49.3517C187.364 49.0172 186.967 48.7518 186.53 48.5708C186.094 48.3898 185.625 48.2966 185.153 48.2966Z" fill="#3F3D56"/>
<path d="M185.152 68.6594H122.864C122.394 68.6589 121.943 68.4718 121.611 68.1392C121.278 67.8066 121.091 67.3556 121.091 66.8853V51.8986C121.091 51.4283 121.278 50.9773 121.611 50.6447C121.943 50.3121 122.394 50.125 122.864 50.1245H170.172C174.614 50.1296 178.872 51.8971 182.013 55.0392C185.154 58.1814 186.921 62.4416 186.926 66.8853C186.925 67.3556 186.738 67.8066 186.406 68.1392C186.073 68.4718 185.623 68.6589 185.152 68.6594Z" fill="white"/>
<path d="M167.385 53.4023H140.762C140.2 53.4023 139.744 53.8584 139.744 54.4209V54.7404C139.744 55.3029 140.2 55.7589 140.762 55.7589H167.385C167.948 55.7589 168.404 55.3029 168.404 54.7404V54.4209C168.404 53.8584 167.948 53.4023 167.385 53.4023Z" fill="#FFD917"/>
<path d="M172.98 58.1155H135.168C134.605 58.1155 134.15 58.5715 134.15 59.134V59.4535C134.15 60.016 134.605 60.472 135.168 60.472H172.98C173.542 60.472 173.998 60.016 173.998 59.4535V59.134C173.998 58.5715 173.542 58.1155 172.98 58.1155Z" fill="#E6E6E6"/>
<path d="M172.98 62.8286H135.168C134.605 62.8286 134.15 63.2846 134.15 63.8471V64.1666C134.15 64.7291 134.605 65.1851 135.168 65.1851H172.98C173.542 65.1851 173.998 64.7291 173.998 64.1666V63.8471C173.998 63.2846 173.542 62.8286 172.98 62.8286Z" fill="#E6E6E6"/>
<path d="M224.193 0H175.642C175.274 -3.08263e-07 174.909 0.0726218 174.568 0.21372C174.228 0.354819 173.918 0.561631 173.658 0.822348C173.397 1.08306 173.19 1.39258 173.049 1.73322C172.908 2.07387 172.836 2.43897 172.836 2.80767V14.4891C172.836 14.8578 172.908 15.2229 173.049 15.5636C173.19 15.9042 173.397 16.2137 173.658 16.4744C173.918 16.7352 174.228 16.942 174.568 17.0831C174.909 17.2242 175.274 17.2968 175.642 17.2968H176.355V19.4072C176.355 19.5353 176.393 19.6605 176.464 19.767C176.535 19.8735 176.636 19.9565 176.754 20.0055C176.873 20.0545 177.003 20.0673 177.128 20.0423C177.254 20.0173 177.369 19.9556 177.46 19.8651L180.027 17.2968H224.193C224.562 17.2968 224.927 17.2242 225.267 17.0831C225.608 16.942 225.917 16.7352 226.178 16.4744C226.439 16.2137 226.645 15.9042 226.786 15.5636C226.927 15.2229 227 14.8578 227 14.4891V2.80767C227 2.43897 226.927 2.07387 226.786 1.73322C226.645 1.39258 226.439 1.08306 226.178 0.822348C225.917 0.561631 225.608 0.354819 225.267 0.21372C224.927 0.0726218 224.562 -3.08263e-07 224.193 0Z" fill="#F2F2F2"/>
<path d="M224.193 15.872H175.642C175.276 15.8716 174.924 15.7258 174.665 15.4665C174.406 15.2073 174.26 14.8558 174.26 14.4892V2.80766C174.26 2.44103 174.406 2.08953 174.665 1.83029C174.924 1.57104 175.276 1.42521 175.642 1.4248H212.517C215.979 1.42875 219.298 2.80644 221.747 5.25563C224.195 7.70483 225.572 11.0255 225.576 14.4892C225.575 14.8558 225.43 15.2073 225.17 15.4665C224.911 15.7258 224.56 15.8716 224.193 15.872Z" fill="white"/>
<path d="M210.22 3.97974H189.717C189.21 3.97974 188.799 4.39092 188.799 4.89815V4.89815C188.799 5.40538 189.21 5.81656 189.717 5.81656H210.22C210.727 5.81656 211.138 5.40538 211.138 4.89815C211.138 4.39092 210.727 3.97974 210.22 3.97974Z" fill="#F2F2F2"/>
<path d="M214.581 7.65356H185.357C184.85 7.65356 184.439 8.06475 184.439 8.57198V8.57198C184.439 9.0792 184.85 9.49039 185.357 9.49039H214.581C215.088 9.49039 215.499 9.0792 215.499 8.57198C215.499 8.06475 215.088 7.65356 214.581 7.65356Z" fill="#F2F2F2"/>
<path d="M214.581 11.3271H185.357C184.85 11.3271 184.439 11.7383 184.439 12.2456V12.2456C184.439 12.7528 184.85 13.164 185.357 13.164H214.581C215.088 13.164 215.499 12.7528 215.499 12.2456C215.499 11.7383 215.088 11.3271 214.581 11.3271Z" fill="#F2F2F2"/>
<path d="M115.581 19.2485H164.133C164.501 19.2485 164.866 19.3212 165.207 19.4623C165.547 19.6034 165.857 19.8102 166.117 20.0709C166.378 20.3316 166.585 20.6411 166.726 20.9818C166.867 21.3224 166.939 21.6875 166.939 22.0562V33.7377C166.939 34.1064 166.867 34.4715 166.726 34.8121C166.585 35.1527 166.378 35.4623 166.117 35.723C165.857 35.9837 165.547 36.1905 165.207 36.3316C164.866 36.4727 164.501 36.5453 164.133 36.5453H163.42V38.6558C163.42 38.7838 163.382 38.909 163.311 39.0155C163.24 39.122 163.139 39.205 163.021 39.254C162.902 39.303 162.772 39.3158 162.647 39.2908C162.521 39.2659 162.406 39.2042 162.315 39.1136L159.748 36.5453H115.581C115.213 36.5453 114.848 36.4727 114.507 36.3316C114.167 36.1905 113.857 35.9837 113.597 35.723C113.336 35.4623 113.129 35.1527 112.988 34.8121C112.847 34.4715 112.775 34.1064 112.775 33.7377V22.0562C112.775 21.6875 112.847 21.3224 112.988 20.9818C113.129 20.6411 113.336 20.3316 113.597 20.0709C113.857 19.8102 114.167 19.6034 114.507 19.4623C114.848 19.3212 115.213 19.2485 115.581 19.2485Z" fill="#F2F2F2"/>
<path d="M114.199 33.7377C114.203 30.2741 115.58 26.9534 118.028 24.5042C120.476 22.055 123.796 20.6773 127.258 20.6733H164.133C164.499 20.6737 164.851 20.8196 165.11 21.0788C165.369 21.3381 165.515 21.6896 165.515 22.0562V33.7377C165.515 34.1043 165.369 34.4558 165.11 34.7151C164.851 34.9743 164.499 35.1201 164.133 35.1205H115.581C115.215 35.1201 114.864 34.9743 114.604 34.7151C114.345 34.4558 114.2 34.1043 114.199 33.7377Z" fill="white"/>
<path d="M129.555 25.0652L150.058 25.0652C150.565 25.0652 150.976 24.654 150.976 24.1468C150.976 23.6395 150.565 23.2284 150.058 23.2284L129.555 23.2284C129.048 23.2284 128.637 23.6395 128.637 24.1468C128.637 24.654 129.048 25.0652 129.555 25.0652Z" fill="#F2F2F2"/>
<path d="M125.194 28.7388L154.418 28.7388C154.925 28.7388 155.336 28.3276 155.336 27.8204V27.8204C155.336 27.3131 154.925 26.9019 154.418 26.9019L125.194 26.9019C124.687 26.9019 124.276 27.3131 124.276 27.8204C124.276 28.3276 124.687 28.7388 125.194 28.7388Z" fill="#F2F2F2"/>
<path d="M125.194 32.4126L154.418 32.4126C154.925 32.4126 155.336 32.0014 155.336 31.4942C155.336 30.987 154.925 30.5758 154.418 30.5758L125.194 30.5758C124.687 30.5758 124.276 30.987 124.276 31.4942C124.276 32.0014 124.687 32.4126 125.194 32.4126Z" fill="#F2F2F2"/>
<path d="M82.7281 61.5254C85.109 62.1557 87.5523 60.741 88.1852 58.3654C88.8182 55.9899 87.4013 53.5531 85.0204 52.9228C82.6395 52.2925 80.1962 53.7072 79.5632 56.0828C78.9303 58.4583 80.3472 60.8951 82.7281 61.5254Z" fill="#FFD917"/>
<path d="M81.2229 49.8548C80.6254 49.6967 80.0868 49.3692 79.6722 48.9119C79.2576 48.4546 78.9848 47.8871 78.8868 47.2782L76.1416 30.0965C76.0507 29.5274 76.0774 28.9456 76.2201 28.387C76.3628 27.8285 76.6185 27.3048 76.9715 26.8484C77.3245 26.3919 77.7673 26.0122 78.2726 25.7327C78.778 25.4531 79.3353 25.2796 79.9103 25.2228C80.4853 25.166 81.0657 25.2271 81.616 25.4023C82.1664 25.5776 82.6749 25.8633 83.1103 26.2418C83.5458 26.6204 83.899 27.0838 84.1483 27.6037C84.3976 28.1235 84.5376 28.6888 84.5598 29.2648L85.2299 46.6516C85.2491 47.1492 85.1511 47.6445 84.9436 48.0976C84.7362 48.5508 84.4251 48.9491 84.0354 49.2606C83.6458 49.5721 83.1883 49.7882 82.6999 49.8914C82.2114 49.9946 81.7056 49.9821 81.2229 49.8548Z" fill="#FFD917"/>
</g>
<defs>
<clipPath id="clip0_491_2295">
<rect width="227" height="170" fill="white"/>
</clipPath>
</defs>
</svg>
