<svg width="540" height="480" viewBox="0 0 540 480" fill="none" xmlns="http://www.w3.org/2000/svg">
<path d="M271.75 173.5C308.339 173.5 338 143.503 338 106.5C338 69.4969 308.339 39.5 271.75 39.5C235.161 39.5 205.5 69.4969 205.5 106.5C205.5 143.503 235.161 173.5 271.75 173.5Z" fill="#FEB8B8"/>
<path d="M334.111 49.2463C324.122 32.9871 308.486 21.0064 290.213 15.6103L282.01 21.6101V13.8195C277.622 13.1463 273.18 12.8869 268.744 13.0449L261.667 19.463V13.5781C251.19 14.8832 241.096 18.3502 232.022 23.7604C222.947 29.1707 215.09 36.4069 208.945 45.0127C193.577 67.2198 190.983 98.1147 206.098 120.5C210.247 107.718 215.283 95.7249 219.433 82.9442C222.695 83.3898 226 83.4059 229.265 82.992L234.313 71.1848L235.723 82.4923C251.37 81.1263 274.578 78.1258 289.411 75.377L287.969 66.7021L296.599 73.9104C301.143 72.862 303.841 71.9105 303.619 71.1836C314.651 89.0112 328.152 100.398 339.183 118.225C343.373 93.0872 348.195 72.1854 334.111 49.2463Z" fill="#2F2E41"/>
<path d="M415 277.227C412.715 263.452 410.358 249.413 403.969 237.003C399.769 228.875 393.103 221.13 384.118 219.522C382.347 219.364 380.608 218.961 378.949 218.323C376.316 217.053 340.934 196.814 335.31 193.289C330.481 190.263 322.859 184.66 319.016 184.66C315.149 184.575 300.323 188.033 242.456 183.5C242.456 183.5 226.559 189.778 214.258 197.392C214.072 197.268 154.197 229.485 151.948 229.4C147.688 229.22 143.728 231.953 141.286 235.395C138.845 238.836 137.699 243.097 136.5 247.216C149.578 276.398 161.543 305.617 174.622 334.798C175.234 335.898 175.56 337.134 175.568 338.393C175.305 339.699 174.749 340.928 173.941 341.987C167.527 352.31 167.731 365.294 168.432 377.428C169.133 389.561 170 402.377 164.588 413.252C163.116 416.238 161.202 418.971 159.802 421.957C156.524 428.719 155.339 450.348 157.254 457.613L397.164 464.5C392.006 450.292 415 277.227 415 277.227Z" fill="#FECB23"/>
<path d="M115.899 336.182C115.42 339.622 115.372 343.107 115.756 346.559L119.196 395.615C119.519 400.239 119.837 404.851 120.274 409.463C121.1 418.414 122.333 427.293 123.864 436.16C123.898 437.419 124.434 438.613 125.354 439.48C126.275 440.346 127.504 440.815 128.772 440.784C143.917 443.965 159.565 443.838 175.022 442.971C198.608 441.664 258.951 439.192 262.637 434.437C266.324 429.682 264.175 421.991 259.368 418.147C254.561 414.302 174.931 404.929 174.931 404.929C175.709 398.807 178.056 393.042 180.282 387.23C184.282 376.921 188.017 366.274 188.089 355.231C188.161 344.188 183.97 332.577 174.859 326.251C167.364 321.057 157.714 320.094 148.58 320.308C141.935 320.497 130.454 318.917 124.384 321.496C119.581 323.596 116.797 331.512 115.899 336.182Z" fill="#FBBEBE"/>
<path d="M135.775 248.169C134.602 249.396 133.692 250.849 133.102 252.44C123.366 274.354 117.616 297.824 116.12 321.752C116.146 322.919 115.877 324.073 115.337 325.108C114.805 325.797 114.212 326.437 113.567 327.021C113.004 327.687 112.578 328.458 112.313 329.289C112.048 330.12 111.95 330.995 112.024 331.864C112.098 332.733 112.342 333.579 112.743 334.354C113.144 335.128 113.694 335.816 114.362 336.379C114.471 336.471 114.584 336.559 114.699 336.644C116.686 332.909 121.443 331.688 125.672 331.364C145.917 329.764 165.694 339.171 186 338.462C184.567 333.517 182.507 328.766 181.338 323.762C176.171 301.544 189.059 277.354 181.158 255.953C179.579 251.671 176.942 247.461 172.787 245.584C171.067 244.891 169.267 244.415 167.428 244.167C162.297 243.241 152.083 239.284 147.122 240.872C145.291 241.462 144.568 243.181 143.051 244.22C140.745 245.691 137.686 246.232 135.775 248.169Z" fill="#FECB23"/>
<path d="M414.646 321.499C408.597 318.915 397.154 320.498 390.531 320.308C381.428 320.094 371.81 321.059 364.34 326.261C355.259 332.597 351.083 344.225 351.155 355.285C351.226 366.345 354.949 377.008 358.935 387.332C361.154 393.153 363.493 398.928 364.269 405.058C364.269 405.058 284.905 414.446 280.114 418.297C275.323 422.147 273.182 429.85 276.857 434.612C280.531 439.374 395.178 444.155 410.273 440.968C411.537 441 412.761 440.53 413.679 439.662C414.596 438.794 415.13 437.598 415.165 436.337C416.69 427.457 417.919 418.564 418.742 409.6C419.177 404.981 419.494 400.362 419.816 395.731L423.245 346.6C423.627 343.143 423.579 339.652 423.102 336.206C422.208 331.53 419.433 323.602 414.646 321.499Z" fill="#FBBEBE"/>
<path d="M396.449 244.22C394.932 243.181 394.209 241.462 392.378 240.872C387.417 239.284 377.203 243.241 372.072 244.167C370.233 244.415 368.433 244.891 366.713 245.584C362.558 247.461 359.921 251.671 358.342 255.953C350.441 277.354 363.329 301.544 358.162 323.762C356.993 328.766 354.933 333.517 353.5 338.462C373.806 339.171 393.583 329.764 413.828 331.364C418.057 331.688 422.814 332.909 424.801 336.644C424.916 336.559 425.029 336.471 425.138 336.379C425.806 335.816 426.356 335.128 426.757 334.354C427.158 333.579 427.402 332.733 427.476 331.864C427.55 330.995 427.452 330.12 427.187 329.289C426.922 328.458 426.496 327.688 425.933 327.021C425.288 326.437 424.695 325.797 424.163 325.108C423.623 324.073 423.354 322.919 423.38 321.752C421.884 297.824 416.134 274.354 406.398 252.44C405.808 250.849 404.898 249.396 403.725 248.169C401.814 246.232 398.755 245.691 396.449 244.22Z" fill="#FECB23"/>
<path d="M252.25 443.5C262.329 443.5 270.5 435.553 270.5 425.75C270.5 415.947 262.329 408 252.25 408C242.171 408 234 415.947 234 425.75C234 435.553 242.171 443.5 252.25 443.5Z" fill="#FBBEBE"/>
<path d="M292 443.5C301.665 443.5 309.5 435.553 309.5 425.75C309.5 415.947 301.665 408 292 408C282.335 408 274.5 415.947 274.5 425.75C274.5 435.553 282.335 443.5 292 443.5Z" fill="#FBBEBE"/>
<path d="M402.633 466.5H155.867C152.986 466.497 150.224 465.354 148.187 463.322C146.149 461.29 145.003 458.535 145 455.661V306.339C145.003 303.465 146.149 300.71 148.187 298.678C150.224 296.646 152.986 295.503 155.867 295.5H402.633C405.514 295.503 408.276 296.646 410.313 298.678C412.351 300.71 413.497 303.465 413.5 306.339V455.661C413.497 458.535 412.351 461.29 410.313 463.322C408.276 465.354 405.514 466.497 402.633 466.5Z" fill="#3F3D56"/>
<path d="M279 388C283.142 388 286.5 384.642 286.5 380.5C286.5 376.358 283.142 373 279 373C274.858 373 271.5 376.358 271.5 380.5C271.5 384.642 274.858 388 279 388Z" fill="white"/>
<path d="M211.5 131.5C200.454 131.5 191.5 122.188 191.5 110.7V100.3C191.5 88.8124 200.454 79.5 211.5 79.5L211.5 131.5Z" fill="#FECB23"/>
<path d="M334 79.5C344.77 79.5 353.5 88.8125 353.5 100.3V110.7C353.5 122.188 344.77 131.5 334 131.5V79.5Z" fill="#FECB23"/>
<path d="M344.5 101.5H341.437C341.437 59.7544 309.839 25.7916 271 25.7916C232.161 25.7916 200.562 59.7544 200.562 101.5H197.5C197.5 57.9392 230.472 22.5 271 22.5C311.528 22.5 344.5 57.9393 344.5 101.5Z" fill="#FECB23"/>
</svg>
