<svg width="24" height="24" viewBox="0 0 24 24" fill="none" xmlns="http://www.w3.org/2000/svg">
<path d="M5.99994 21C5.82815 20.9995 5.65939 20.9547 5.50994 20.87C5.35547 20.7832 5.22685 20.6569 5.13724 20.504C5.04763 20.3511 5.00024 20.1772 4.99994 20V5.33C4.98642 4.73032 5.20977 4.14946 5.62157 3.71332C6.03338 3.27718 6.60047 3.02089 7.19994 3H16.7999C17.3994 3.02089 17.9665 3.27718 18.3783 3.71332C18.7901 4.14946 19.0135 4.73032 18.9999 5.33V20C18.9989 20.1745 18.9522 20.3457 18.8645 20.4966C18.7767 20.6475 18.6511 20.7727 18.4999 20.86C18.3479 20.9478 18.1755 20.994 17.9999 20.994C17.8244 20.994 17.652 20.9478 17.4999 20.86L11.8299 17.65L6.49994 20.85C6.34949 20.9434 6.17695 20.9952 5.99994 21Z" fill="white"/>
<path fill-rule="evenodd" clip-rule="evenodd" d="M5.50994 20.87C5.65939 20.9547 5.82815 20.9995 5.99994 21C6.17695 20.9951 6.34949 20.9434 6.49994 20.85L11.8299 17.65L17.4999 20.86C17.652 20.9478 17.8244 20.994 17.9999 20.994C18.1755 20.994 18.3479 20.9478 18.4999 20.86C18.6511 20.7727 18.7767 20.6475 18.8645 20.4966C18.9522 20.3457 18.9989 20.1745 18.9999 20V5.33C19.0135 4.73032 18.7901 4.14946 18.3783 3.71332C17.9665 3.27718 17.3994 3.02089 16.7999 3H7.19994C6.60047 3.02089 6.03338 3.27718 5.62157 3.71332C5.20977 4.14946 4.98642 4.73032 4.99994 5.33V20C5.00024 20.1772 5.04763 20.3511 5.13724 20.504C5.22685 20.6569 5.35547 20.7832 5.50994 20.87ZM6.49994 19.1004L11.8078 15.9137L17.4999 19.1363V5.3131L17.5003 5.29619C17.5049 5.09104 17.4285 4.89233 17.2877 4.74312C17.1512 4.5986 16.9649 4.5118 16.767 4.5H7.23292C7.03498 4.5118 6.84868 4.5986 6.71222 4.74312C6.57134 4.89233 6.49493 5.09104 6.49956 5.29619L6.49994 5.3131V19.1004Z" fill="#E6E6E6"/>
</svg>
