<svg width="24" height="24" viewBox="0 0 24 24" fill="none" xmlns="http://www.w3.org/2000/svg">
<path fill-rule="evenodd" clip-rule="evenodd" d="M5.50997 20.87C5.65943 20.9547 5.82818 20.9995 5.99997 21C6.17698 20.9951 6.34952 20.9434 6.49997 20.85L11.83 17.65L17.5 20.86C17.652 20.9478 17.8244 20.994 18 20.994C18.1755 20.994 18.3479 20.9478 18.5 20.86C18.6511 20.7727 18.7768 20.6475 18.8645 20.4966C18.9522 20.3457 18.9989 20.1745 19 20V5.33C19.0135 4.73032 18.7901 4.14946 18.3783 3.71332C17.9665 3.27718 17.3994 3.02089 16.8 3H7.19997C6.6005 3.02089 6.03341 3.27718 5.6216 3.71332C5.2098 4.14946 4.98645 4.73032 4.99997 5.33V20C5.00027 20.1772 5.04766 20.3511 5.13727 20.504C5.22688 20.6569 5.3555 20.7832 5.50997 20.87ZM6.49997 19.1004L11.8078 15.9137L17.5 19.1363V5.3131L17.5003 5.29619C17.505 5.09104 17.4286 4.89233 17.2877 4.74312C17.1512 4.5986 16.9649 4.5118 16.767 4.5H7.23295C7.03501 4.5118 6.84871 4.5986 6.71225 4.74312C6.57137 4.89233 6.49496 5.09104 6.49959 5.29619L6.49997 5.3131V19.1004Z" fill="#E6E6E6"/>
</svg>
