<svg width="24" height="24" viewBox="0 0 24 24" fill="none" xmlns="http://www.w3.org/2000/svg">
<path d="M7.5 11.25C7.5 9.12868 7.5 8.06802 8.15901 7.40901C8.81802 6.75 9.87868 6.75 12 6.75H14.25C16.3713 6.75 17.4319 6.75 18.091 7.40901C18.75 8.06802 18.75 9.12868 18.75 11.25V15C18.75 17.1213 18.75 18.1819 18.091 18.841C17.4319 19.5 16.3713 19.5 14.25 19.5H12C9.87868 19.5 8.81802 19.5 8.15901 18.841C7.5 18.1819 7.5 17.1213 7.5 15V11.25Z" stroke="#020202" stroke-width="1.5"/>
<path d="M7.5 17.25C6.25736 17.25 5.25 16.2427 5.25 15V10.5C5.25 7.67157 5.25 6.25736 6.12868 5.37868C7.00736 4.5 8.42157 4.5 11.25 4.5H14.25C15.4927 4.5 16.5 5.50736 16.5 6.75" stroke="#020202" stroke-width="1.5"/>
</svg>
