<svg width="288" height="267" viewBox="0 0 288 267" fill="none" xmlns="http://www.w3.org/2000/svg">
<path d="M206.106 59.4093H204.735V21.7793C204.735 16.0031 202.446 10.4634 198.372 6.37901C194.298 2.29461 188.772 7.28846e-06 183.011 0H103.486C100.633 -7.66873e-06 97.8081 0.563323 95.1723 1.65783C92.5365 2.75233 90.1416 4.35657 88.1243 6.37896C86.1069 8.40135 84.5067 10.8023 83.4149 13.4446C82.3232 16.087 81.7612 18.9191 81.7612 21.7792V228.221C81.7612 231.081 82.3232 233.913 83.4149 236.555C84.5067 239.198 86.1069 241.599 88.1242 243.621C90.1416 245.643 92.5365 247.248 95.1722 248.342C97.808 249.437 100.633 250 103.486 250H183.011C188.772 250 194.298 247.705 198.372 243.621C202.446 239.537 204.735 233.997 204.735 228.221V86.1951H206.105L206.106 59.4093Z" fill="#3F3D56"/>
<path d="M183.887 5.66626H173.507C173.984 6.83957 174.166 8.11257 174.037 9.37312C173.908 10.6337 173.472 11.8431 172.767 12.8948C172.062 13.9465 171.11 14.8083 169.994 15.4042C168.879 16 167.634 16.3118 166.37 16.3119H120.812C119.548 16.3118 118.303 16 117.188 15.4042C116.072 14.8083 115.12 13.9465 114.415 12.8948C113.71 11.8431 113.273 10.6337 113.145 9.37312C113.016 8.11258 113.198 6.83957 113.675 5.66626H103.98C99.6768 5.66626 95.5502 7.37983 92.5077 10.43C89.4652 13.4802 87.7559 17.6171 87.7559 21.9307V228.069C87.7559 230.205 88.1755 232.32 88.9908 234.294C89.8061 236.267 91.0012 238.06 92.5077 239.57C94.0142 241.08 95.8027 242.278 97.771 243.096C99.7394 243.913 101.849 244.334 103.98 244.334H183.887C186.018 244.334 188.127 243.913 190.096 243.096C192.064 242.278 193.853 241.08 195.359 239.57C196.866 238.06 198.061 236.267 198.876 234.294C199.691 232.32 200.111 230.205 200.111 228.069V21.9307C200.111 19.7949 199.691 17.6799 198.876 15.7066C198.061 13.7333 196.866 11.9403 195.359 10.43C193.853 8.91971 192.064 7.72168 190.096 6.90431C188.127 6.08695 186.018 5.66626 183.887 5.66626Z" fill="white"/>
<path d="M150.486 95.0523C158.434 95.0523 164.877 94.4371 164.877 93.6782C164.877 92.9194 158.434 92.3042 150.486 92.3042C142.538 92.3042 136.095 92.9194 136.095 93.6782C136.095 94.4371 142.538 95.0523 150.486 95.0523Z" fill="#E6E6E6"/>
<path d="M288 45.3059C288 43.0968 286.209 41.3059 284 41.3059H149.513C147.304 41.3059 145.513 43.0968 145.513 45.3059V73.9081C145.513 76.1173 147.304 77.9081 149.513 77.9081H150.532V89.312L161.907 77.9081H284C286.209 77.9081 288 76.1173 288 73.9081V45.3059Z" fill="#FDC80C"/>
<path d="M270.153 166.816C270.153 164.607 268.362 162.816 266.153 162.816H152.398C150.189 162.816 148.398 164.607 148.398 166.816V196.621C148.398 198.83 150.195 200.621 152.404 200.621V209.723L161.484 200.621H266.153C268.362 200.621 270.153 198.83 270.153 196.621V166.816Z" fill="#FDC80C"/>
<path d="M171.596 175.912V182.215H170.311V175.912H171.596ZM171.609 182.803V185.865H164.855V187H172.02V188.039H163.598V184.881H170.324V183.828H163.557V182.803H171.609ZM165.908 177.184C165.895 178.824 167.084 180.314 168.957 180.902L168.314 181.914C166.886 181.449 165.812 180.479 165.266 179.234C164.705 180.574 163.611 181.641 162.148 182.146L161.492 181.121C163.406 180.479 164.582 178.879 164.582 177.184V176.24H165.908V177.184ZM183.723 175.912V188.189H182.424V175.912H183.723ZM179.977 177.02V181.49H175.574V184.17C177.557 184.163 179.293 184.074 181.344 183.732L181.467 184.799C179.293 185.168 177.447 185.25 175.287 185.25H174.248V180.451H178.65V178.072H174.234V177.02H179.977ZM195.467 176.459V177.539C195.467 178.701 195.467 179.932 195.125 181.6L193.84 181.49C193.977 180.827 194.065 180.239 194.113 179.686L186.826 180.027L186.648 178.934L194.168 178.729C194.182 178.312 194.182 177.922 194.182 177.539V177.512H186.963V176.459H195.467ZM196.807 182.352V183.391H185.664V182.352H190.08V180.629H191.393V182.352H196.807ZM195.727 186.918V187.971H187.045V184.334H188.344V186.918H195.727ZM202.918 176.555V178.086H205.283V176.555H206.486V181.736H201.688V176.555H202.918ZM202.918 180.711H205.283V179.07H202.918V180.711ZM211.613 175.926V182.297H210.383V179.617H208.947V182.174H207.744V176.145H208.947V178.564H210.383V175.926H211.613ZM211.613 182.803V185.824H204.723V187H212.037V188.039H203.424V184.867H210.328V183.814H203.396V182.803H211.613ZM223.439 175.912V188.189H222.141V175.912H223.439ZM219.693 177.02V181.49H215.291V184.17C217.273 184.163 219.01 184.074 221.061 183.732L221.184 184.799C219.01 185.168 217.164 185.25 215.004 185.25H213.965V180.451H218.367V178.072H213.951V177.02H219.693ZM233.516 178.277C233.516 179.439 234.609 180.438 236.4 180.82L235.867 181.832C234.459 181.518 233.427 180.813 232.887 179.877C232.36 180.896 231.308 181.661 229.852 181.996L229.305 180.984C231.109 180.602 232.217 179.494 232.217 178.277H229.578V177.252H232.217V175.939H233.516V177.252H236.141V178.277H233.516ZM238.971 175.926V188.162H237.686V175.926H238.971ZM228.771 182.748C231.096 182.748 234.172 182.734 236.838 182.393L236.934 183.336C235.812 183.521 234.657 183.637 233.529 183.705V187.793H232.23V183.773C231.055 183.821 229.934 183.828 228.949 183.828L228.771 182.748ZM244.275 176.473C245.889 176.459 247.133 177.396 247.406 178.77H249.799V175.912H251.098V182.488H249.799V179.836H247.42C247.153 181.244 245.902 182.188 244.275 182.188C242.402 182.188 241.062 181.012 241.062 179.316C241.062 177.648 242.402 176.459 244.275 176.473ZM244.275 177.553C243.113 177.553 242.307 178.264 242.307 179.316C242.307 180.369 243.113 181.094 244.275 181.094C245.41 181.094 246.217 180.369 246.217 179.316C246.217 178.264 245.41 177.553 244.275 177.553ZM244.398 183.076V184.498H249.799V183.076H251.098V188.012H243.113V183.076H244.398ZM244.398 186.945H249.799V185.523H244.398V186.945ZM255.24 177.102L255.117 184.143H253.764L253.641 177.102H255.24ZM254.447 187.096C253.914 187.096 253.463 186.658 253.477 186.125C253.463 185.592 253.914 185.154 254.447 185.154C254.967 185.154 255.418 185.592 255.418 186.125C255.418 186.658 254.967 187.096 254.447 187.096Z" fill="white"/>
<path d="M152.367 214.306C158.711 214.306 163.855 213.815 163.855 213.209C163.855 212.603 158.711 212.112 152.367 212.112C146.023 212.112 140.879 212.603 140.879 213.209C140.879 213.815 146.023 214.306 152.367 214.306Z" fill="#E6E6E6"/>
<path d="M120.738 145.892C128.687 145.892 135.13 145.277 135.13 144.518C135.13 143.759 128.687 143.144 120.738 143.144C112.79 143.144 106.347 143.759 106.347 144.518C106.347 145.277 112.79 145.892 120.738 145.892Z" fill="#E6E6E6"/>
<path d="M29 107C29 104.791 30.7909 103 33 103H122C124.209 103 126 104.791 126 107V129.807C126 131.752 124.423 133.329 122.477 133.329V141L114.492 133.329H33C30.7909 133.329 29 131.539 29 129.329V107Z" fill="#FDC80C"/>
<path d="M53.9648 111.912V124.162H52.7207V117.832H51.1348V123.533H49.9453V112.158H51.1348V116.766H52.7207V111.912H53.9648ZM48.4551 113.389V114.441H45.1602V120.115C46.6641 120.102 47.7988 120.033 49.1113 119.787L49.207 120.854C47.7305 121.154 46.4727 121.209 44.6816 121.223H43.8613V113.389H48.4551ZM65.6816 111.912V124.162H64.3828V111.912H65.6816ZM55.6191 120.826C56.624 120.819 57.7793 120.812 58.9824 120.771V119.555C57.5469 119.37 56.6172 118.529 56.6309 117.326C56.6172 115.945 57.8203 115.029 59.5977 115.029C61.3887 115.029 62.6191 115.945 62.6191 117.326C62.6191 118.516 61.6895 119.35 60.2676 119.541V120.73C61.4023 120.683 62.5508 120.594 63.6309 120.457L63.7266 121.428C61.0059 121.879 58.0391 121.906 55.7969 121.906L55.6191 120.826ZM63.3574 113.375V114.414H55.8789V113.375H58.9824V111.939H60.2812V113.375H63.3574ZM59.5977 116.041C58.5723 116.041 57.8477 116.547 57.8613 117.326C57.8477 118.105 58.5723 118.584 59.5977 118.584C60.6504 118.584 61.375 118.105 61.375 117.326C61.375 116.547 60.6504 116.041 59.5977 116.041ZM82.5117 116.725V117.791H80.6113V124.148H79.3125V111.912H80.6113V116.725H82.5117ZM72.8184 113.102V119.992C74.5273 119.992 76.3115 119.849 78.2598 119.445L78.4102 120.539C76.3184 120.963 74.377 121.072 72.5449 121.072H71.5332V113.102H72.8184ZM92.7109 111.912V116.793H94.6113V117.873H92.7109V124.148H91.4121V111.912H92.7109ZM89.5117 113.197C89.498 116.738 87.9395 119.896 83.9062 121.893L83.1816 120.881C86.251 119.35 87.9189 117.135 88.1855 114.277H83.7969V113.197H89.5117ZM106.479 121.551V122.631H95.2676V121.551H97.9473V118.352C96.9424 117.798 96.334 116.916 96.334 115.822C96.334 113.895 98.2207 112.623 100.846 112.623C103.484 112.623 105.371 113.895 105.371 115.822C105.371 116.902 104.783 117.771 103.799 118.324V121.551H106.479ZM100.846 113.662C98.918 113.662 97.5918 114.496 97.5918 115.822C97.5918 117.135 98.918 117.996 100.846 117.996C102.76 117.996 104.113 117.135 104.113 115.822C104.113 114.496 102.76 113.662 100.846 113.662ZM99.2324 121.551H102.486V118.816C101.987 118.946 101.434 119.008 100.846 119.008C100.271 119.008 99.7246 118.946 99.2324 118.83V121.551ZM109.623 113.102L109.5 120.143H108.146L108.023 113.102H109.623ZM108.83 123.096C108.297 123.096 107.846 122.658 107.859 122.125C107.846 121.592 108.297 121.154 108.83 121.154C109.35 121.154 109.801 121.592 109.801 122.125C109.801 122.658 109.35 123.096 108.83 123.096Z" fill="white"/>
<path d="M171.635 55.1016V65H170.117V56.6055H170.062L167.697 58.1504V56.7148L170.158 55.1016H171.635ZM181.041 55.1562V56.1953H173.74V55.1562H176.748V53.8574H178.047V55.1562H181.041ZM177.391 56.7422C179.154 56.7559 180.357 57.6309 180.357 58.9707C180.357 60.3105 179.154 61.1992 177.391 61.1992C175.613 61.1992 174.41 60.3105 174.41 58.9707C174.41 57.6309 175.613 56.7559 177.391 56.7422ZM177.391 57.7402C176.352 57.7402 175.654 58.2188 175.668 58.9707C175.654 59.7363 176.352 60.1875 177.391 60.1875C178.43 60.1875 179.127 59.7363 179.141 58.9707C179.127 58.2188 178.43 57.7402 177.391 57.7402ZM183.352 53.9121V57.2344H185.129V58.3145H183.352V61.5684H182.053V53.9121H183.352ZM183.352 62.1973V66.1621H182.053V63.25H175.258V62.1973H183.352ZM196.039 53.9258V62.9766H194.74V58.8066H191.377V57.7676H194.74V56.4824H191.377V55.4434H194.74V53.9258H196.039ZM196.354 64.8496V65.9023H188.055V62.1836H189.367V64.8496H196.354ZM187.836 54.7734V60.1328C189.463 60.1328 191.008 60.0303 192.758 59.709L192.895 60.7754C190.953 61.1445 189.299 61.2129 187.494 61.2266H186.551V54.7734H187.836ZM211.857 53.9121V66.1621H210.613V53.9121H211.857ZM209.369 54.1719V65.5469H208.139V59.3125H206.238V58.2461H208.139V54.1719H209.369ZM205.035 57.3301C205.035 59.4219 205.883 61.5137 207.605 62.5117L206.826 63.4688C205.657 62.7715 204.851 61.5342 204.434 60.0508C203.989 61.6504 203.155 63.0107 201.959 63.7559L201.166 62.7852C202.902 61.7324 203.791 59.5039 203.791 57.3301V56.3457H201.535V55.293H207.141V56.3457H205.035V57.3301ZM224.613 60.8164V61.8691H219.637V66.1484H218.365V61.8691H213.443V60.8164H224.613ZM223.561 54.6367V55.6758H219.773C219.794 57.1934 221.681 58.5469 223.998 58.8613L223.52 59.8867C221.51 59.5723 219.773 58.5811 219.035 57.1797C218.276 58.5811 216.547 59.5723 214.564 59.8867L214.072 58.8613C216.362 58.5469 218.249 57.1934 218.297 55.6758H214.482V54.6367H223.561ZM235.469 59.5586V60.5977H231.764V63.5918H236.754V64.6582H225.543V63.5918H230.479V60.5977H226.938V54.8555H235.359V55.9082H228.236V59.5586H235.469ZM247.186 53.9121V58.793H249.086V59.873H247.186V66.1484H245.887V53.9121H247.186ZM243.986 55.1973C243.973 58.7383 242.414 61.8965 238.381 63.8926L237.656 62.8809C240.726 61.3496 242.394 59.1348 242.66 56.2773H238.271V55.1973H243.986ZM260.953 63.5508V64.6309H249.742V63.5508H252.422V60.3516C251.417 59.7979 250.809 58.916 250.809 57.8223C250.809 55.8945 252.695 54.623 255.32 54.623C257.959 54.623 259.846 55.8945 259.846 57.8223C259.846 58.9023 259.258 59.7705 258.273 60.3242V63.5508H260.953ZM255.32 55.6621C253.393 55.6621 252.066 56.4961 252.066 57.8223C252.066 59.1348 253.393 59.9961 255.32 59.9961C257.234 59.9961 258.588 59.1348 258.588 57.8223C258.588 56.4961 257.234 55.6621 255.32 55.6621ZM253.707 63.5508H256.961V60.8164C256.462 60.9463 255.908 61.0078 255.32 61.0078C254.746 61.0078 254.199 60.9463 253.707 60.8301V63.5508ZM264.098 55.1016L263.975 62.1426H262.621L262.498 55.1016H264.098ZM263.305 65.0957C262.771 65.0957 262.32 64.6582 262.334 64.125C262.32 63.5918 262.771 63.1543 263.305 63.1543C263.824 63.1543 264.275 63.5918 264.275 64.125C264.275 64.6582 263.824 65.0957 263.305 65.0957Z" fill="white"/>
<path d="M144.5 267C173.495 267 197 264.985 197 262.5C197 260.015 173.495 258 144.5 258C115.505 258 92 260.015 92 262.5C92 264.985 115.505 267 144.5 267Z" fill="#E6E6E6"/>
</svg>
