<svg width="14" height="18" viewBox="0 0 14 18" fill="none" xmlns="http://www.w3.org/2000/svg">
<path d="M0.756377 17.435L0.754848 17.4341C0.677615 17.3907 0.613303 17.3276 0.568496 17.2511C0.523754 17.1748 0.500065 17.088 0.499847 16.9995V2.33H0.499974L0.49972 2.31873C0.489167 1.85056 0.663533 1.39708 0.985031 1.05659C1.30466 0.718076 1.74411 0.518342 2.2091 0.5H11.7906C12.2556 0.518342 12.695 0.718076 13.0147 1.05659C13.3362 1.39708 13.5105 1.85056 13.5 2.31873L13.4998 2.31873V2.33V16.9983C13.4991 17.0851 13.4758 17.1702 13.4321 17.2453C13.3883 17.3207 13.3254 17.3834 13.2499 17.427L13.4998 17.86L13.2498 17.427C13.1738 17.4709 13.0876 17.494 12.9998 17.494C12.9121 17.494 12.8259 17.4709 12.7499 17.427L12.7462 17.4249L7.07618 14.2149L6.82245 14.0712L6.57248 14.2213L1.24248 17.4213L1.24245 17.4213L1.23615 17.4252C1.16309 17.4705 1.0796 17.4963 0.993761 17.4999C0.910499 17.4984 0.828893 17.4761 0.756377 17.435Z" fill="#E6E6E6" stroke="#E6E6E6"/>
</svg>
