<svg width="24" height="24" viewBox="0 0 24 24" fill="none" xmlns="http://www.w3.org/2000/svg">
<path d="M18.4844 13.0952H6.12902L4.00053 20.1902L18.4844 13.0952ZM6.1291 11.0952H18.4849L4.00053 4L6.1291 11.0952ZM2.08487 4.5747C1.76748 3.51671 2.36785 2.40175 3.42583 2.08435C3.90842 1.93957 4.42788 1.98227 4.88035 2.20392L21.4059 10.299C22.3978 10.7849 22.808 11.983 22.3221 12.9749C22.1269 13.3736 21.8045 13.6959 21.4059 13.8912L4.88035 21.9863C3.8884 22.4722 2.69035 22.062 2.20444 21.07C1.9828 20.6176 1.9401 20.0981 2.08488 19.6155L4.341 12.0951L2.08487 4.5747Z" fill="#020202"/>
</svg>
