<svg width="100" height="100" viewBox="0 0 100 100" fill="none" xmlns="http://www.w3.org/2000/svg">
<path fill-rule="evenodd" clip-rule="evenodd" d="M41.6667 39.5833C41.6667 37.3732 42.5446 35.2536 44.1074 33.6908C45.6702 32.128 47.7899 31.25 50 31.25C52.2101 31.25 54.3298 32.128 55.8926 33.6908C57.4554 35.2536 58.3333 37.3732 58.3333 39.5833C58.3333 41.7935 57.4554 43.9131 55.8926 45.4759C54.3298 47.0387 52.2101 47.9167 50 47.9167C47.7899 47.9167 45.6702 47.0387 44.1074 45.4759C42.5446 43.9131 41.6667 41.7935 41.6667 39.5833ZM41.6667 52.0833C38.904 52.0833 36.2545 53.1808 34.301 55.1343C32.3475 57.0878 31.25 59.7373 31.25 62.5C31.25 64.1576 31.9085 65.7473 33.0806 66.9194C34.2527 68.0915 35.8424 68.75 37.5 68.75H62.5C64.1576 68.75 65.7473 68.0915 66.9194 66.9194C68.0915 65.7473 68.75 64.1576 68.75 62.5C68.75 59.7373 67.6525 57.0878 65.699 55.1343C63.7455 53.1808 61.096 52.0833 58.3333 52.0833H41.6667Z" fill="#E6E6E6"/>
<circle opacity="0.1" cx="50" cy="50" r="50" fill="#FECE23"/>
</svg>
