<svg width="175" height="40" viewBox="0 0 175 40" fill="none" xmlns="http://www.w3.org/2000/svg">
<path d="M8.54297 38.707H0L13.2363 0.527344H23.4141L36.5977 38.707H28.1074L25.2598 29.9004H11.4434L8.54297 38.707ZM13.4473 23.7305H23.2559L18.457 9.12305H18.1934L13.4473 23.7305Z" fill="#F5F6F8"/>
<path d="M40.9219 38.707V0.527344H48.832V32.168H65.2852V38.707H40.9219Z" fill="#F5F6F8"/>
<path d="M78.3105 0.527344V38.707H70.4004V0.527344H78.3105Z" fill="#F5F6F8"/>
<path d="M84.7441 0.527344H94.5527L105.152 26.4199H105.574L116.174 0.527344H125.982V38.707H118.283V13.7109H117.967L108 38.5488H102.727L92.7598 13.6055H92.4434V38.707H84.7441V0.527344Z" fill="#F5F6F8"/>
<path d="M167.379 19.6172C167.379 32.0625 159.627 39.2344 149.555 39.2344C139.377 39.2344 131.678 32.0098 131.678 19.6172C131.678 7.17188 139.377 0 149.555 0C159.627 0 167.379 7.17188 167.379 19.6172ZM159.311 19.6172C159.311 11.4434 155.461 7.01367 149.555 7.01367C143.648 7.01367 139.746 11.4434 139.746 19.6172C139.746 27.791 143.648 32.2207 149.555 32.2207C155.461 32.2207 159.311 27.791 159.311 19.6172Z" fill="#F5F6F8"/>
<path d="M175 35C175 37.2091 173.209 39 171 39C168.791 39 167 37.2091 167 35C167 32.7909 168.791 31 171 31C173.209 31 175 32.7909 175 35Z" fill="#FECB23"/>
</svg>
